SplineFontDB: 3.0
FontName: ibm3270-Regular
FullName: 3270
FamilyName: ibm3270
Weight: Regular
Copyright: Copyright 2019 The 3270font Project Authors (https://github.com/rbanffy/3270font)
UComments: "2011-5-25: Created."
Version: 2.0.3
ItalicAngle: 0
UnderlinePosition: -198
UnderlineWidth: 110
Ascent: 1600
Descent: 400
InvalidEm: 0
woffMajor: 1
woffMinor: 0
LayerCount: 2
Layer: 0 0 "Back" 1
Layer: 1 0 "Fore" 0
XUID: [1021 799 1486169484 8980278]
UseXUID: 1
FSType: 0
OS2Version: 0
OS2_WeightWidthSlopeOnly: 1
OS2_UseTypoMetrics: 1
CreationTime: 1306332354
ModificationTime: 1573115577
PfmFamily: 49
TTFWeight: 400
TTFWidth: 5
LineGap: 180
VLineGap: 0
OS2TypoAscent: 0
OS2TypoAOffset: 1
OS2TypoDescent: 0
OS2TypoDOffset: 1
OS2TypoLinegap: 180
OS2WinAscent: 0
OS2WinAOffset: 1
OS2WinDescent: 0
OS2WinDOffset: 1
HheadAscent: 0
HheadAOffset: 1
HheadDescent: 0
HheadDOffset: 1
OS2Vendor: '3270'
MarkAttachClasses: 1
DEI: 91125
LangName: 1033 "" "" "" "" "" "" "" "" "" "" "" "" "" "This Font Software is licensed under the SIL Open Font License, Version 1.1. This license is available with a FAQ at: http://scripts.sil.org/OFL" "http://scripts.sil.org/OFL"
GaspTable: 1 65535 3 0
Encoding: UnicodeFull
Compacted: 1
UnicodeInterp: none
NameList: Adobe Glyph List
DisplaySize: -24
AntiAlias: 1
FitToEm: 1
ExtremaBound: 10
WinInfo: 0 32 15
BeginPrivate: 1
BlueValues 36 [98 106 950 954 1196 1196 1318 1318]
EndPrivate
Grid
122 2600 m 0
 122 -1400 l 1024
  Named: "Origin X"
-2000 98 m 0
 4000 98 l 1024
  Named: "Origin Y"
-2000 160 m 0
 4000 160 l 1024
-2000 220 m 0
 4000 220 l 1024
-2000 280 m 0
 4000 280 l 1024
-2000 342 m 0
 4000 342 l 1024
-2000 404 m 0
 4000 404 l 1024
-2000 464 m 0
 4000 464 l 1024
-2000 524 m 0
 4000 524 l 1024
-2000 586 m 0
 4000 586 l 1024
-2000 648 m 0
 4000 648 l 1024
-2000 708 m 0
 4000 708 l 1024
-2000 768 m 0
 4000 768 l 1024
-2000 830 m 0
 4000 830 l 1024
-2000 892 m 0
 4000 892 l 1024
-2000 952 m 0
 4000 952 l 1024
-2000 1012 m 0
 4000 1012 l 1024

StartChar: Euro
Encoding: 8364 8364 2
Width: 1080
VWidth: 0
InSpiro: 1
Flags: HW
HStem: 98 122<562 744> 524 122<108 230 352 832> 768 122<108 230 352 898> 1196 122<566 750>
VStem: 230 122<438 524 646 768 890 988>
DStem2: 230 1042 352 988 0.712175 0.702002<48.9774 347.4> 352 438 230 378 0.696786 -0.717279<0 302.692> 744 220 804 98 0.723869 0.689938<0 180.895> 802 1318 750 1196 0.729187 -0.684314<45.5686 215.268>
LayerCount: 2
Back
Fore
SplineSet
108 890 m 1
 228 890 l 1
 232 1042 l 1
 510 1318 l 1
 802 1318 l 1
 932 1194 l 2
 936 1190 939 1186 941 1181 c 0
 943 1176 944 1171 945 1166 c 0
 946 1161 946 1155 946 1150 c 0
 946 1145 945 1139 943 1134 c 0
 941 1129 939 1124 936 1120 c 0
 933 1116 930 1111 926 1108 c 0
 922 1105 918 1102 913 1099 c 0
 909 1096 904 1094 899 1092 c 0
 894 1090 889 1090 884 1090 c 0
 879 1090 873 1091 868 1092 c 0
 863 1093 858 1095 853 1097 c 0
 851 1098 848 1099 846 1101 c 0
 844 1102 842 1104 840 1106 c 2
 750 1196 l 1
 566 1196 l 1
 352 988 l 1
 352 890 l 1
 962 890 l 1
 898 770 l 1
 352 768 l 1
 352 646 l 1
 902 646 l 1
 832 522 l 1
 352 524 l 1
 352 438 l 1
 562 220 l 1
 744 220 l 1
 840 316 l 2
 844 320 849 323 854 326 c 0
 859 329 864 331 870 332 c 0
 875 333 880 334 886 334 c 0
 892 334 897 333 902 331 c 0
 908 330 913 327 918 325 c 0
 923 322 928 318 932 314 c 0
 936 310 940 306 943 301 c 0
 945 296 948 291 949 285 c 0
 951 280 952 274 952 268 c 0
 952 262 951 256 949 250 c 0
 948 245 945 239 943 234 c 0
 941 231 940 229 938 226 c 0
 936 224 934 222 932 220 c 2
 804 98 l 1
 502 98 l 1
 230 378 l 1
 230 524 l 1
 108 524 l 1
 108 586 l 1
 108 646 l 1
 230 646 l 1
 228 768 l 1
 108 770 l 1
 108 890 l 1
  Spiro
    108 890 v
    228 890 v
    232 1042 v
    510 1318 v
    802 1318 v
    932 1194 v
    941 1181 o
    945 1166 o
    946 1150 o
    943 1134 o
    936 1120 o
    926 1108 o
    913 1099 o
    899 1092 o
    884 1090 o
    868 1092 o
    853 1097 o
    840 1106 [
    750 1196 v
    566 1196 v
    352 988 v
    352 890 v
    962 890 v
    898 770 v
    352 768 v
    352 646 v
    902 646 v
    832 522 v
    352 524 v
    352 438 v
    562 220 v
    744 220 v
    840 316 ]
    853.688 325.992 o
    869.646 332.004 o
    886 334 o
    902.354 331.486 o
    918.312 324.51 o
    932 314 o
    942.51 300.756 o
    949.486 285.242 o
    952 268 o
    949.486 250.24 o
    942.51 233.762 o
    932 220 [
    804 98 v
    502 98 v
    230 378 v
    230 524 v
    108 524 v
    108 586 v
    108 646 v
    230 646 v
    228 768 v
    108 770 v
    0 0 z
  EndSpiro
EndSplineSet
Validated: 1
EndChar

StartChar: eightones
Encoding: 1114117 -1 6
Width: 1080
VWidth: 0
Flags: HW
HStem: 356 576<401 691>
VStem: 266 560<495 794>
LayerCount: 2
Back
Fore
SplineSet
266 644 m 0
 266 804 392 932 546 932 c 0
 700 932 826 804 826 644 c 0
 826 486 700 356 546 356 c 0
 392 356 266 486 266 644 c 0
EndSplineSet
Validated: 1
EndChar

StartChar: hyphen
Encoding: 45 45 7
Width: 1080
VWidth: 0
Flags: HW
HStem: 600 112<238 834>
VStem: 238 596<600 712>
LayerCount: 2
Back
Fore
SplineSet
238 712 m 1
 834 712 l 1
 834 600 l 1
 238 600 l 1
 238 712 l 1
EndSplineSet
Validated: 1
EndChar

StartChar: less
Encoding: 60 60 9
Width: 1080
VWidth: 0
Flags: HW
VStem: 250 588
LayerCount: 2
Back
Fore
SplineSet
822 198 m 2
 832 186 838 170 838 154 c 0
 838 138 830 124 820 112 c 0
 810 100 794 94 778 92 c 0
 774 92 771 91 767 91 c 0
 756 91 747 94 736 100 c 1
 250 590 l 1
 250 702 l 1
 734 1194 l 1
 745 1199 757 1206 770 1206 c 0
 771 1206 773 1206 774 1206 c 0
 788 1204 800 1198 810 1188 c 0
 822 1178 828 1162 830 1146 c 0
 830 1142 831 1139 831 1135 c 0
 831 1123 828 1113 822 1102 c 1
 366 646 l 1
 822 198 l 2
EndSplineSet
Validated: 1
EndChar

StartChar: bracketleft
Encoding: 91 91 10
Width: 1080
VWidth: 0
Flags: HW
HStem: -26 124<474 714> 1196 122<474 714>
VStem: 358 356<-26 98 1196 1318> 358 116<98 1196>
LayerCount: 2
Back
Fore
SplineSet
358 1318 m 1xe0
 714 1318 l 1
 714 1196 l 1xe0
 474 1196 l 1
 474 98 l 1xd0
 714 98 l 1
 714 -26 l 1
 358 -26 l 1
 358 1318 l 1xe0
EndSplineSet
Validated: 1
EndChar

StartChar: bracketright
Encoding: 93 93 11
Width: 1080
VWidth: 0
Flags: HW
HStem: -26 124<358 596> 1196 122<358 596>
VStem: 358 356<-26 98 1196 1318> 596 118<98 1196>
LayerCount: 2
Back
Fore
SplineSet
358 1318 m 1xe0
 714 1318 l 1
 714 -26 l 1
 358 -26 l 1
 358 98 l 1xe0
 596 98 l 1
 596 1196 l 1xd0
 358 1196 l 1
 358 1318 l 1xe0
EndSplineSet
Validated: 1
EndChar

StartChar: parenleft
Encoding: 40 40 13
Width: 1080
VWidth: 0
Flags: HW
HStem: 98 42G<669 683> 1156 40G<667 682>
VStem: 368 114<428 868>
LayerCount: 2
Back
Fore
SplineSet
384 940 m 2
 634 1178 l 2
 646 1188 660 1196 674 1196 c 0
 690 1196 704 1188 714 1176 c 0
 726 1164 732 1150 732 1134 c 0
 732 1118 726 1106 714 1094 c 2
 482 868 l 1
 482 428 l 1
 716 196 l 2
 728 186 734 170 734 154 c 0
 734 138 728 126 716 116 c 0
 704 104 690 98 676 98 c 0
 662 98 646 104 636 116 c 2
 386 366 l 2
 374 378 368 388 368 404 c 2
 368 892 l 2
 368 908 372 928 384 940 c 2
EndSplineSet
Validated: 1
EndChar

StartChar: braceright
Encoding: 125 125 14
Width: 1080
VWidth: 0
InSpiro: 1
Flags: HW
HStem: 0 120<228 384> 614 120<678 750> 1226 120<228 384>
VStem: 474 120<208 526 820 1138>
LayerCount: 2
Back
Fore
SplineSet
228 1346 m 1
 408 1346 l 2
 428 1346 444 1336 450 1328 c 2
 576 1206 l 2
 590 1192 594 1174 594 1164 c 2
 594 820 l 1
 678 734 l 1
 750 734 l 1
 750 614 l 1
 678 614 l 1
 594 526 l 1
 594 184 l 2
 594 174 590 154 576 140 c 2
 450 18 l 2
 444 12 428 0 408 0 c 1
 348 0 288 0 228 0 c 1
 228 40 228 80 228 120 c 1
 384 120 l 1
 474 208 l 1
 474 550 l 2
 474 570 484 586 490 592 c 2
 568 674 l 1
 490 754 l 2
 484 760 474 776 474 796 c 2
 474 1138 l 1
 384 1226 l 1
 228 1226 l 1
 228 1346 l 1
  Spiro
    408 1346 ]
    426.428 1343.12 o
    440.9 1336.21 o
    450 1328 [
    576 1206 ]
    586.88 1191.13 o
    592.448 1176.21 o
    594 1164 [
    594 820 v
    678 734 v
    750 734 v
    750 614 v
    678 614 v
    594 526 v
    594 184 ]
    592.448 171.274 o
    586.88 155.391 o
    576 140 [
    450 18 ]
    440.9 10.6747 o
    426.428 3.32734 o
    408 0 v
    228 0 v
    228 120 v
    384 120 v
    474 208 v
    474 550 ]
    476.81 568.428 o
    483.192 582.9 o
    490 592 [
    568 674 v
    490 754 ]
    483.192 763.1 o
    476.81 777.572 o
    474 796 [
    474 1138 v
    384 1226 v
    228 1226 v
    228 1346 v
    0 0 z
  EndSpiro
EndSplineSet
Validated: 1
EndChar

StartChar: braceleft
Encoding: 123 123 15
Width: 1080
VWidth: 0
Flags: HW
HStem: 0 120<560 716> 614 120<194 266> 1226 120<560 716>
VStem: 350 120<208 526 820 1138>
LayerCount: 2
Back
Fore
SplineSet
716 1346 m 1
 716 1226 l 1
 560 1226 l 1
 470 1138 l 1
 470 796 l 2
 470 776 460 760 454 754 c 2
 376 674 l 1
 454 592 l 2
 460 586 470 570 470 550 c 2
 470 208 l 1
 560 120 l 1
 716 120 l 1
 716 80 716 40 716 0 c 1
 656 0 596 0 536 0 c 1
 516 0 500 12 494 18 c 2
 368 140 l 2
 354 154 350 174 350 184 c 2
 350 526 l 1
 266 614 l 1
 194 614 l 1
 194 734 l 1
 266 734 l 1
 350 820 l 1
 350 1164 l 2
 350 1174 354 1192 368 1206 c 2
 494 1328 l 2
 500 1336 516 1346 536 1346 c 2
 716 1346 l 1
EndSplineSet
Validated: 1
EndChar

StartChar: equal
Encoding: 61 61 17
Width: 1080
VWidth: 0
Flags: HW
HStem: 488 112<120 952> 822 112<120 952>
LayerCount: 2
Back
Fore
SplineSet
120 934 m 1
 952 934 l 1
 952 822 l 1
 120 822 l 1
 120 934 l 1
120 600 m 1
 952 600 l 1
 952 488 l 1
 120 488 l 1
 120 600 l 1
EndSplineSet
Validated: 1
EndChar

StartChar: quotedbl
Encoding: 34 34 19
Width: 1080
VWidth: 0
Flags: HW
HStem: 952 366<230 354 596 718>
VStem: 230 124<952 1318> 596 122<952 1318>
LayerCount: 2
Back
Fore
SplineSet
230 1318 m 1
 354 1318 l 1
 354 952 l 1
 230 952 l 1
 230 1318 l 1
596 1318 m 1
 718 1318 l 1
 718 952 l 1
 596 952 l 1
 596 1318 l 1
EndSplineSet
Validated: 1
EndChar

StartChar: slash
Encoding: 47 47 20
Width: 1080
VWidth: 0
InSpiro: 1
Flags: HW
LayerCount: 2
Back
Fore
SplineSet
140 236 m 0
 128 248 122 262 122 278 c 0
 122 294 128 308 140 320 c 0
 870 1050 l 0
 880 1062 896 1068 912 1068 c 0
 926 1068 942 1062 954 1050 c 0
 966 1040 972 1024 972 1008 c 0
 972 992 966 976 954 966 c 0
 224 236 l 0
 212 224 196 218 182 218 c 0
 166 218 152 224 140 236 c 0
  Spiro
    139.129 235.574 o
    123.731 262.678 o
    123.731 293.322 o
    139.129 320.426 o
    869.13 1050.43 o
    896.234 1065.82 o
    926.878 1065.82 o
    953.982 1050.43 o
    969.38 1023.32 o
    969.38 992.678 o
    953.982 965.574 o
    223.982 235.574 o
    196.878 220.176 o
    166.233 220.176 o
    0 0 z
  EndSpiro
EndSplineSet
Validated: 1
EndChar

StartChar: bar
Encoding: 124 124 22
Width: 1080
VWidth: 0
Flags: HW
VStem: 474 122<-236 1440>
LayerCount: 2
Back
Fore
SplineSet
474 1440 m 1
 596 1440 l 1
 596 -236 l 1
 474 -236 l 1
 474 1440 l 1
EndSplineSet
Validated: 1
EndChar

StartChar: brokenbar
Encoding: 166 166 23
Width: 1080
VWidth: 0
Flags: HW
VStem: 474 122<-236 468 708 1440>
LayerCount: 2
Back
Fore
SplineSet
474 708 m 17
 474 1440 l 1
 596 1440 l 1
 596 708 l 9
 474 708 l 17
596 468 m 17
 596 -236 l 1
 474 -236 l 1
 474 468 l 9
 596 468 l 17
EndSplineSet
Validated: 1
EndChar

StartChar: question
Encoding: 63 63 24
Width: 1080
VWidth: 0
Flags: HW
HStem: 100 122<476 596> 954 42G<238 358> 1200 118<448 742>
VStem: 238 120<954 1112> 476 120<100 222 464 648> 834 118<1038 1110>
LayerCount: 2
Back
Fore
SplineSet
358 954 m 1
 238 954 l 1
 238 1138 l 0
 238 1154 246 1170 256 1180 c 0
 382 1304 l 0
 394 1316 412 1318 424 1318 c 0
 766 1318 l 0
 782 1318 798 1312 808 1302 c 0
 934 1176 l 0
 946 1164 952 1148 952 1134 c 0
 952 1012 l 0
 952 996 942 978 932 968 c 0
 596 648 l 1
 596 464 l 1
 476 464 l 1
 476 674 l 0
 476 688 482 706 494 718 c 0
 834 1038 l 1
 834 1110 l 1
 742 1200 l 1
 448 1200 l 1
 358 1112 l 1
 358 954 l 1
476 222 m 1
 596 222 l 1
 596 100 l 1
 476 100 l 1
 476 222 l 1
EndSplineSet
Validated: 1
EndChar

StartChar: exclam
Encoding: 33 33 25
Width: 1080
VWidth: 0
Flags: HW
HStem: 98 122<474 598> 1278 40G<474 596>
VStem: 474 122<98 220 462 1318>
LayerCount: 2
Back
Fore
SplineSet
474 220 m 1
 598 220 l 1
 598 98 l 1
 474 98 l 1
 474 220 l 1
474 1318 m 1
 596 1318 l 1
 596 462 l 1
 474 462 l 1
 474 1318 l 1
EndSplineSet
Validated: 1
EndChar

StartChar: dollar
Encoding: 36 36 26
Width: 1080
VWidth: 0
Flags: HW
HStem: 218 120<128 484 604 764> 590 120<328 484 604 760> 956 120<328 484 604 972> 1276 40G<484 604>
VStem: 122 120<794 870> 484 120<-22 218 338 590 710 956 1076 1316> 848 120<422 500>
LayerCount: 2
Back
Fore
SplineSet
972 1076 m 1
 972 956 l 1
 604 956 l 1
 604 710 l 1
 784 710 l 2
 800 710 818 702 828 692 c 2
 952 568 l 2
 964 556 968 540 968 526 c 2
 968 398 l 2
 968 382 962 366 952 356 c 2
 832 236 l 2
 820 224 802 218 788 218 c 2
 604 218 l 1
 604 -22 l 1
 484 -22 l 1
 484 218 l 1
 128 218 l 1
 128 338 l 1
 484 338 l 1
 484 590 l 1
 302 590 l 2
 288 590 272 596 260 608 c 2
 140 728 l 2
 130 738 122 754 122 770 c 2
 122 896 l 2
 122 910 128 926 140 938 c 2
 260 1058 l 2
 270 1068 286 1076 302 1076 c 2
 484 1076 l 1
 484 1316 l 1
 604 1316 l 1
 604 1076 l 1
 972 1076 l 1
484 956 m 1
 328 956 l 1
 242 870 l 1
 242 794 l 1
 328 710 l 1
 484 710 l 1
 484 956 l 1
604 338 m 1
 764 338 l 1
 848 422 l 1
 848 500 l 1
 760 590 l 1
 604 590 l 1
 604 338 l 1
EndSplineSet
Validated: 1
EndChar

StartChar: cent
Encoding: 162 162 27
Width: 1080
VWidth: 0
InSpiro: 1
Flags: HW
HStem: 464 122<294 474 596 840> 952 122<290 474 596 840> 1278 40G<474 596>
VStem: 110 124<650 892> 474 122<220 464 586 952 1074 1318>
LayerCount: 2
Back
Fore
SplineSet
474 1318 m 1
 596 1318 l 1
 596 1074 l 1
 840 1074 l 1
 840 952 l 1
 596 952 l 1
 596 586 l 1
 840 586 l 1
 840 464 l 1
 596 464 l 1
 596 220 l 1
 474 220 l 1
 474 464 l 1
 268 464 l 2
 264 464 260 463 256 463 c 0
 250 464 l 0
 246 466 240 470 236 472 c 0
 232 474 228 478 224 482 c 2
 126 580 l 2
 124 582 122 584 120 586 c 0
 118 588 118 592 116 594 c 0
 114 596 112 598 110 600 c 0
 108 602 110 606 110 608 c 0
 110 610 110 614 110 616 c 0
 110 618 110 622 110 624 c 2
 110 916 l 2
 110 920 109 923 109 927 c 0
 109 928 109 930 110 932 c 0
 112 936 116 942 118 946 c 0
 120 950 124 954 128 958 c 2
 218 1056 l 2
 220 1058 222 1060 224 1062 c 0
 226 1064 230 1064 232 1066 c 0
 236 1068 242 1070 246 1072 c 0
 252 1074 258 1074 264 1074 c 2
 474 1074 l 1
 474 1318 l 1
  Spiro
    474 1318 v
    596 1318 v
    596 1074 v
    840 1074 v
    840 952 v
    596 952 v
    596 586 v
    840 586 v
    840 464 v
    596 464 v
    596 220 v
    474 222 v
    474 464 v
    268 464 ]
    262.006 464.074 o
    255.994 464.594 o
    250 466 o
    245.486 467.998 o
    240.514 470.002 o
    236 472 o
    232.004 474.59 o
    227.996 478.078 o
    224 482 [
    126 580 v
    120 586 o
    118.52 588.516 o
    117.48 591.484 o
    116 594 o
    114.52 595.998 o
    113.48 598.002 o
    112 600 o
    110.593 602.516 o
    110.074 605.484 o
    110 608 o
    110 616 o
    110 624 v
    110 916 ]
    110.074 921.476 o
    110.593 926.524 o
    112 932 o
    113.998 936.514 o
    116.002 941.486 o
    118 946 o
    120.589 949.996 o
    124.078 954.004 o
    128 958 [
    218 1056 v
    224 1062 o
    226.516 1063.48 o
    229.484 1064.52 o
    232 1066 o
    236.514 1068 o
    241.486 1070 o
    246 1072 o
    251.994 1073.41 o
    258.006 1073.93 o
    264 1074 [
    474 1074 v
    0 0 z
  EndSpiro
474 952 m 1
 290 952 l 1
 234 892 l 1
 234 650 l 1
 294 586 l 1
 474 586 l 1
 474 952 l 1
  Spiro
    474 952 v
    290 952 v
    234 892 v
    234 650 v
    294 586 v
    474 586 v
    0 0 z
  EndSpiro
EndSplineSet
Validated: 1
EndChar

StartChar: sterling
Encoding: 163 163 28
Width: 1080
VWidth: 0
InSpiro: 1
Flags: HW
HStem: 100 124<240 296 570 770> 224 114<240 310> 706 122<120 368 488 732> 1196 122<572 650>
VStem: 368 120<320 706 828 1110>
LayerCount: 2
Back
Fore
SplineSet
310 224 m 1x78
 296 224 l 1
 240 224 l 1xb8
 240 212 l 1
 296 212 l 1
 310 224 l 1x78
  Spiro
    310 220 v
    296 224 v
    240 224 v
    240 212 v
    296 212 v
    0 0 z
  EndSpiro
488 280 m 1
 504 276 l 2
 512 272 520 268 526 262 c 2
 570 224 l 1
 770 224 l 1
 876 320 l 1
 958 232 l 1
 834 116 l 2
 826 108 808 100 792 100 c 2
 548 100 l 2
 536 100 518 106 506 116 c 2
 454 166 l 1
 414 178 l 1
 346 112 l 2
 336 102 318 100 304 100 c 2
 180 100 l 2xb8
 148 100 120 124 120 156 c 2
 120 278 l 2
 120 310 148 338 180 338 c 2
 300 338 l 2x78
 308 338 314 336 320 336 c 2
 368 320 l 1
 368 706 l 1
 120 706 l 1
 120 828 l 1
 368 828 l 1
 368 1134 l 2
 368 1146 372 1164 384 1176 c 2
 504 1298 l 2
 514 1308 530 1318 548 1318 c 2
 676 1318 l 2
 688 1318 706 1310 718 1298 c 2
 838 1178 l 1
 752 1094 l 1
 650 1196 l 1
 572 1196 l 1
 488 1110 l 1
 488 828 l 1
 732 828 l 1
 732 706 l 1
 488 706 l 1
 488 280 l 1
  Spiro
    488 280 v
    504 276 ]
    511.918 271.93 o
    519.414 267.402 o
    526 262 [
    570 220 v
    770 220 v
    876 320 v
    958 232 v
    834 116 ]
    823.124 108.303 o
    808.206 102.366 o
    792 100 [
    548 100 ]
    534.46 101.922 o
    519.54 107.415 o
    506 116 [
    454 166 v
    414 178 v
    346 112 ]
    333.792 103.415 o
    318.874 97.9222 o
    304 96 [
    180 96 ]
    150.249 104.428 o
    128.428 126.249 o
    120 156 [
    120 278 ]
    128.428 307.752 o
    150.249 329.572 o
    180 338 [
    300 338 ]
    307.4 337.482 o
    313.932 336.518 o
    320 336 [
    368 320 v
    368 706 v
    121 706 v
    121 828 v
    368 828 v
    368 1134 ]
    369.478 1147.54 o
    374.526 1162.46 o
    384 1176 [
    504 1298 ]
    515.838 1307.62 o
    530.832 1315.04 o
    548 1318 [
    676 1318 ]
    689.54 1315.49 o
    704.46 1308.51 o
    718 1298 [
    838 1178 v
    752 1094 v
    650 1196 v
    572 1196 v
    488 1110 v
    488 828 v
    731 828 v
    731 706 v
    488 706 v
    0 0 z
  EndSpiro
EndSplineSet
Validated: 1
EndChar

StartChar: yen
Encoding: 165 165 29
Width: 1080
VWidth: 0
InSpiro: 1
Flags: HW
HStem: 98 42G<474 596> 342 122<108 474 596 962> 708 122<108 474 596 962>
VStem: 474 122<98 342 464 708 830 896>
DStem2: 206 1306 124 1212 0.742239 -0.670136<2.12916 440.474> 534 1012 594 902 0.746699 0.665163<0 436.158>
LayerCount: 2
Back
Fore
SplineSet
534 1012 m 1
 858 1304 l 1
 942 1212 l 1
 594 902 l 1
 594 830 l 1
 962 830 l 1
 962 708 l 1
 596 708 l 1
 596 464 l 1
 962 464 l 1
 962 342 l 1
 596 342 l 1
 596 98 l 1
 474 98 l 1
 474 342 l 1
 108 342 l 1
 108 464 l 1
 474 464 l 1
 474 708 l 1
 108 708 l 1
 108 830 l 1
 474 830 l 1
 474 896 l 1
 124 1212 l 1
 206 1306 l 1
 534 1012 l 1
  Spiro
    534 1012 v
    858 1304 v
    942 1212 v
    594 902 v
    596 830 v
    962 830 v
    962 708 v
    596 708 v
    596 464 v
    962 464 v
    962 342 v
    596 342 v
    596 98 v
    474 98 v
    474 342 v
    108 342 v
    108 464 v
    474 464 v
    474 708 v
    108 708 v
    108 830 v
    474 830 v
    472 896 v
    124 1212 v
    206 1306 v
    0 0 z
  EndSpiro
EndSplineSet
Validated: 1
EndChar

StartChar: paragraph
Encoding: 182 182 30
Width: 1080
VWidth: 0
InSpiro: 1
Flags: HW
HStem: 96 42G<128 240> 344 118<490 612 734 856> 724 112<240 530> 1208 110<240 530>
VStem: 128 112<96 724 836 1208> 612 122<-24 344 462 584 920 1120>
LayerCount: 2
Back
Fore
SplineSet
240 1208 m 1
 240 836 l 1
 530 836 l 1
 612 920 l 1
 612 1120 l 1
 530 1208 l 1
 240 1208 l 1
  Spiro
    240 1208 v
    240 836 v
    530 836 v
    616 920 v
    616 1120 v
    530 1208 v
    0 0 z
  EndSpiro
240 96 m 1
 128 96 l 1
 128 1318 l 1
 552 1318 l 2
 556 1318 559 1319 562 1319 c 0
 563 1319 565 1319 566 1318 c 1
 572 1318 576 1312 580 1308 c 0
 584 1306 588 1304 590 1300 c 2
 710 1180 l 2
 714 1178 718 1174 720 1168 c 0
 722 1164 724 1160 726 1156 c 1
 726 1150 728 1146 728 1142 c 2
 728 896 l 2
 728 890 726 886 724 880 c 0
 724 876 722 872 718 868 c 0
 716 864 714 860 710 856 c 2
 590 740 l 2
 586 738 582 734 578 732 c 0
 574 730 570 726 564 724 c 0
 560 724 556 724 552 724 c 2
 240 724 l 1
 240 96 l 1
  Spiro
    240 96 v
    128 96 v
    128 1318 v
    552 1318 ]
    557.402 1318.44 o
    561.93 1318.89 o
    566 1318 v
    571.402 1316.3 o
    575.93 1312.37 o
    580 1308 o
    583.922 1305.93 o
    587.41 1303.4 o
    590 1300 [
    710 1180 ]
    713.922 1177.34 o
    717.41 1173.33 o
    720 1168 ]
    726 1156 v
    726.518 1150.6 o
    727.482 1146.07 o
    728 1142 [
    728 896 ]
    727.408 890.524 o
    725.924 885.476 o
    724 880 o
    722.5 874 o
    718 868 o
    715.928 864.004 o
    713.404 859.996 o
    710 856 [
    590 740 ]
    586.004 737.484 o
    581.996 734.516 o
    578 732 o
    573.93 729.484 o
    569.402 726.516 o
    564 724 o
    552 724 v
    240 724 v
    0 0 z
  EndSpiro
612 584 m 1
 734 584 l 1
 734 462 l 1
 856 462 l 1
 856 344 l 1
 734 344 l 1
 734 -24 l 1
 612 -24 l 1
 612 344 l 1
 490 344 l 1
 490 462 l 1
 612 462 l 1
 612 584 l 1
  Spiro
    612.218 584 v
    733.218 584 v
    733.218 462 v
    855.218 462 v
    855.218 343 v
    733.218 343 v
    733.218 -24 v
    612.218 -24 v
    612.218 343 v
    489.218 343 v
    489.218 462 v
    612.218 462 v
    0 0 z
  EndSpiro
EndSplineSet
Validated: 1
EndChar

StartChar: currency
Encoding: 164 164 31
Width: 1080
VWidth: 0
Flags: HW
HStem: 356 96<416 635> 838 94<416 632>
VStem: 236 96<523 766> 716 96<523 766>
DStem2: 172 1176 104 1110 0.698805 -0.715312<0 339.146> 108 184 176 118 0.701517 0.712652<0.668114 333.788> 622 916 710 866 0.69874 0.715376<25.7202 360.65> 716 428 626 376 0.69874 -0.715376<0 334.962>
LayerCount: 2
Back
Fore
SplineSet
428 374 m 1
 176 118 l 1
 108 184 l 1
 340 424 l 1
 276 476 236 556 236 644 c 0
 236 734 276 814 340 866 c 1
 104 1110 l 1
 172 1176 l 1
 426 916 l 1
 456 928 490 932 524 932 c 0
 558 932 592 928 622 916 c 1
 874 1174 l 1
 944 1108 l 1
 710 866 l 1
 772 814 812 732 812 644 c 0
 812 558 776 480 716 428 c 1
 948 184 l 1
 878 118 l 1
 626 376 l 1
 594 364 560 356 524 356 c 0
 490 356 458 364 428 374 c 1
332 644 m 0
 332 538 418 452 524 452 c 0
 630 452 716 538 716 644 c 0
 716 750 630 838 524 838 c 0
 418 838 332 750 332 644 c 0
EndSplineSet
Validated: 1
EndChar

StartChar: zero
Encoding: 48 48 32
Width: 1080
VWidth: 0
Flags: HW
HStem: 98 120<446 628> 1200 120<450 622>
VStem: 120 118<426 990> 476 120<524 886> 834 118<422 990>
CounterMasks: 1 38
LayerCount: 2
Back
Fore
SplineSet
536 888 m 0
 568 888 596 860 596 828 c 0
 596 582 l 0
 596 550 568 522 536 522 c 0
 502 522 476 550 476 582 c 0
 476 828 l 0
 476 860 502 888 536 888 c 0
238 990 m 1
 238 426 l 1
 446 218 l 1
 628 218 l 1
 834 422 l 1
 834 990 l 1
 622 1200 l 1
 450 1200 l 1
 238 990 l 1
138 1056 m 2
 386 1302 l 0
 396 1314 414 1320 428 1320 c 0
 646 1320 l 0
 662 1320 678 1312 688 1302 c 0
 934 1056 l 0
 946 1046 952 1028 952 1014 c 0
 952 398 l 0
 952 382 944 364 934 356 c 1
 694 116 l 0
 682 104 664 98 652 98 c 0
 424 98 l 0
 408 98 390 106 382 116 c 0
 138 360 l 0
 126 372 120 388 120 402 c 0
 120 1014 l 0
 120 1030 128 1048 138 1056 c 2
EndSplineSet
Validated: 1
EndChar

StartChar: one
Encoding: 49 49 33
Width: 1080
VWidth: 0
Flags: HW
HStem: 100 42G<476 596> 1276 40G<531 542>
VStem: 476 120<100 1108>
LayerCount: 2
Back
Fore
SplineSet
498 1296 m 2
 510 1308 524 1316 538 1316 c 0
 546 1316 558 1316 566 1312 c 0
 590 1302 596 1282 596 1256 c 2
 596 100 l 1
 476 100 l 1
 476 1108 l 1
 284 912 l 1
 200 990 l 1
 498 1296 l 2
EndSplineSet
Validated: 1
EndChar

StartChar: two
Encoding: 50 50 34
Width: 1080
VWidth: 0
Flags: HW
HStem: 96 120<320 952> 952 42G<120 238> 1200 120<446 748>
VStem: 120 118<952 992> 834 118<910 1114>
LayerCount: 2
Back
Fore
SplineSet
238 952 m 1
 120 952 l 1
 120 1016 l 0
 120 1032 128 1048 138 1058 c 0
 380 1302 l 0
 392 1314 408 1320 422 1320 c 0
 770 1320 l 0
 786 1320 802 1312 812 1302 c 0
 934 1180 l 0
 946 1168 952 1152 952 1138 c 0
 952 886 l 0
 952 870 944 854 934 844 c 0
 320 216 l 1
 952 216 l 1
 952 96 l 1
 174 96 l 0
 160 96 144 102 132 114 c 0
 120 126 114 142 114 156 c 0
 114 170 120 186 132 198 c 0
 834 910 l 1
 834 1114 l 1
 748 1200 l 1
 446 1200 l 1
 238 992 l 1
 238 952 l 1
EndSplineSet
Validated: 1
EndChar

StartChar: three
Encoding: 51 51 35
Width: 1080
VWidth: 0
Flags: HW
HStem: 100 120<318 636> 1200 120<238 834>
VStem: 834 116<418 502 1158 1200>
LayerCount: 2
Back
Fore
SplineSet
238 1200 m 1
 238 1320 l 1
 952 1320 l 1
 952 1134 l 2
 952 1118 944 1102 934 1092 c 2
 668 826 l 1
 676 824 684 818 688 814 c 2
 932 570 l 2
 944 558 950 542 950 528 c 2
 950 394 l 2
 950 378 942 362 932 352 c 2
 698 118 l 2
 686 106 670 100 656 100 c 2
 294 100 l 2
 278 100 262 108 252 118 c 2
 120 250 l 1
 204 334 l 1
 318 220 l 1
 636 220 l 1
 834 418 l 1
 834 502 l 1
 626 712 l 1
 528 712 l 2
 514 712 498 718 486 730 c 0
 474 742 468 756 468 772 c 0
 468 788 474 802 486 814 c 2
 834 1158 l 1
 834 1200 l 1
 238 1200 l 1
EndSplineSet
Validated: 1
EndChar

StartChar: four
Encoding: 52 52 36
Width: 1080
VWidth: 0
Flags: HW
HStem: 488 112<234 714 834 952> 1280 40G<652 834>
VStem: 120 114<600 742> 714 120<50 488 600 1200>
LayerCount: 2
Back
Fore
SplineSet
834 600 m 1
 952 600 l 1
 952 488 l 1
 834 488 l 1
 834 50 l 1
 714 50 l 1
 714 488 l 1
 180 488 l 2
 148 488 120 516 120 548 c 2
 120 772 l 2
 120 784 126 802 138 814 c 2
 618 1302 l 2
 626 1312 644 1320 660 1320 c 2
 834 1320 l 1
 834 600 l 1
714 600 m 1
 714 1200 l 1
 686 1200 l 1
 234 742 l 1
 234 600 l 1
 714 600 l 1
EndSplineSet
Validated: 1
EndChar

StartChar: five
Encoding: 53 53 37
Width: 1080
VWidth: 0
Flags: HW
HStem: 100 120<126 628> 834 120<238 630> 1200 120<238 952>
VStem: 120 118<954 1200> 834 118<428 630>
LayerCount: 2
Back
Fore
SplineSet
952 1320 m 1
 952 1200 l 1
 238 1200 l 1
 238 954 l 1
 652 954 l 2
 666 954 682 948 694 936 c 2
 934 696 l 2
 944 688 952 670 952 654 c 2
 952 402 l 2
 952 388 946 372 934 360 c 2
 692 118 l 2
 684 108 666 100 650 100 c 2
 126 100 l 1
 126 220 l 1
 628 220 l 1
 834 428 l 1
 834 630 l 1
 630 834 l 1
 120 834 l 1
 120 1320 l 1
 952 1320 l 1
EndSplineSet
Validated: 1
EndChar

StartChar: six
Encoding: 54 54 38
Width: 1080
VWidth: 0
Flags: HW
HStem: 70 120<450 620> 710 114<458 628>
VStem: 120 122<400 492 656 986> 832 120<404 504>
LayerCount: 2
Back
Fore
SplineSet
120 372 m 2
 120 374 120 372 120 374 c 0
 120 1010 l 0
 120 1024 126 1040 138 1052 c 0
 424 1338 l 1
 510 1254 l 1
 242 986 l 1
 242 656 l 1
 392 806 l 0
 402 816 418 824 434 824 c 0
 654 824 l 0
 668 824 684 818 696 806 c 0
 934 564 l 0
 944 554 952 538 952 522 c 0
 952 378 l 0
 952 364 946 348 934 336 c 0
 686 88 l 0
 676 78 660 70 644 70 c 0
 426 70 l 0
 412 70 396 76 384 88 c 0
 138 332 l 0
 136 334 120 372 120 372 c 2
242 492 m 1
 242 400 l 1
 450 190 l 1
 620 190 l 1
 832 404 l 1
 832 504 l 1
 628 710 l 1
 458 710 l 1
 242 492 l 1
EndSplineSet
Validated: 1
EndChar

StartChar: seven
Encoding: 55 55 39
Width: 1080
VWidth: 0
Flags: HW
HStem: 98 42G<358 476> 1200 120<120 832>
VStem: 358 118<98 640> 832 120<1164 1200>
LayerCount: 2
Back
Fore
SplineSet
476 98 m 1
 358 98 l 1
 358 666 l 2
 358 682 366 700 376 708 c 2
 832 1164 l 1
 832 1200 l 1
 120 1200 l 1
 120 1320 l 1
 952 1320 l 1
 952 1140 l 2
 952 1126 946 1108 934 1098 c 2
 476 640 l 1
 476 98 l 1
EndSplineSet
Validated: 1
EndChar

StartChar: eight
Encoding: 56 56 40
Width: 1080
VWidth: 0
Flags: HW
HStem: 98 110<438 630> 726 112<446 630> 1204 114<442 630>
VStem: 120 120<414 508> 238 120<916 1108> 712 118<916 1120> 836 116<416 508>
LayerCount: 2
Back
Fore
SplineSet
256 1166 m 2xee
 372 1298 l 2
 384 1312 400 1318 416 1318 c 2
 654 1318 l 2
 672 1318 686 1312 696 1302 c 2
 812 1182 l 2
 824 1170 830 1156 830 1142 c 2
 830 892 l 1
 810 852 l 1
 738 784 l 1
 938 570 l 2
 946 560 952 546 952 530 c 2
 952 388 l 1
 952 374 946 362 934 350 c 1
 692 112 l 2
 682 102 670 98 654 98 c 2
 414 98 l 2
 396 98 380 104 372 112 c 2
 138 350 l 1
 120 390 l 1
 120 532 l 2xf6
 120 542 128 556 140 570 c 2
 336 780 l 1
 258 848 l 2
 246 858 238 874 238 892 c 2
 238 1130 l 2
 238 1140 244 1154 256 1166 c 2xee
240 508 m 1
 240 414 l 1
 438 208 l 1
 630 208 l 1
 836 416 l 1
 836 508 l 1
 630 726 l 1
 446 726 l 1
 240 508 l 1
358 1108 m 1xee
 358 916 l 1
 444 838 l 1
 632 838 l 1
 712 916 l 1
 712 1120 l 1
 630 1204 l 1
 442 1204 l 1
 358 1108 l 1xee
EndSplineSet
Validated: 1
EndChar

StartChar: nine
Encoding: 57 57 41
Width: 1080
VWidth: 0
Flags: HW
HStem: 588 120<318 506> 1200 120<448 746>
VStem: 120 120<786 992> 834 118<302 868 1032 1114>
LayerCount: 2
Back
Fore
SplineSet
834 868 m 1
 572 606 l 0
 564 596 546 588 530 588 c 0
 294 588 l 0
 280 588 264 594 252 606 c 0
 138 720 l 0
 128 728 120 746 120 762 c 0
 120 1016 l 0
 120 1030 126 1048 138 1058 c 0
 382 1302 l 0
 390 1312 408 1320 424 1320 c 0
 770 1320 l 0
 784 1320 802 1314 812 1302 c 0
 934 1178 l 0
 944 1168 952 1152 952 1136 c 0
 952 280 l 0
 952 266 946 250 934 238 c 0
 774 78 l 1
 690 162 l 1
 834 302 l 1
 834 868 l 1
834 1032 m 1
 834 1114 l 1
 746 1200 l 1
 448 1200 l 1
 240 992 l 1
 240 786 l 1
 318 708 l 1
 506 708 l 1
 834 1032 l 1
EndSplineSet
Validated: 1
EndChar

StartChar: germandbls
Encoding: 223 223 42
Width: 1080
VWidth: 0
InSpiro: 1
Flags: HW
HStem: 106 118<556 762> 1202 116<430 518>
VStem: 110 112<98 1006> 600 114<1038 1116> 844 114<304 502>
DStem2: 126 1072 222 1006 0.727338 0.686279<24.53 310.328> 618 890 496 848 0.709142 -0.705066<0 433.832>
LayerCount: 2
Back
Fore
SplineSet
110 1030 m 2
 110 1034 109 1037 109 1041 c 0
 109 1042 109 1044 110 1046 c 0
 112 1050 114 1056 116 1060 c 0
 118 1064 122 1068 126 1072 c 2
 368 1300 l 2
 370 1302 372 1304 374 1306 c 0
 376 1308 378 1308 380 1310 c 0
 384 1312 388 1318 392 1318 c 0
 394 1318 398 1318 400 1318 c 0
 402 1318 406 1318 408 1318 c 2
 542 1318 l 2
 546 1318 549 1319 553 1319 c 0
 554 1319 556 1319 558 1318 c 0
 562 1316 568 1310 572 1308 c 0
 576 1306 580 1302 584 1298 c 2
 698 1178 l 2
 700 1176 702 1174 704 1172 c 0
 706 1170 706 1168 708 1166 c 0
 710 1162 712 1158 712 1154 c 0
 712 1152 714 1148 714 1146 c 0
 714 1144 714 1140 714 1138 c 2
 714 1014 l 2
 714 1012 714 1008 714 1006 c 0
 714 1004 712 1002 712 1000 c 0
 712 998 710 994 710 992 c 0
 710 990 710 988 708 986 c 0
 706 984 706 982 704 980 c 0
 702 978 700 978 698 976 c 2
 618 890 l 1
 942 566 l 2
 946 562 950 558 952 554 c 0
 954 550 956 546 956 542 c 0
 956 540 958 536 958 534 c 0
 958 532 958 528 958 526 c 2
 958 280 l 2
 958 274 956 270 954 264 c 0
 954 260 952 256 950 252 c 0
 948 248 944 244 940 240 c 2
 826 128 l 2
 822 124 818 120 814 118 c 0
 810 116 804 114 800 112 c 0
 796 110 790 106 786 106 c 2
 534 106 l 2
 532 106 528 106 526 106 c 0
 524 106 522 106 520 106 c 0
 516 108 510 112 506 114 c 0
 502 116 498 120 494 124 c 2
 372 244 l 1
 452 324 l 1
 556 224 l 1
 762 224 l 1
 844 304 l 1
 844 502 l 1
 496 848 l 2
 492 852 488 856 486 860 c 0
 484 864 484 870 482 874 c 0
 480 878 480 884 480 888 c 0
 480 892 480 898 480 902 c 0
 480 908 484 912 486 916 c 0
 488 920 492 924 496 928 c 2
 600 1038 l 1
 600 1116 l 1
 518 1202 l 1
 430 1202 l 1
 222 1006 l 1
 222 98 l 1
 110 98 l 1
 110 1030 l 2
  Spiro
    110 1030 ]
    109.556 1035.48 o
    109.111 1040.52 o
    110 1046 o
    111.998 1050.51 o
    114.002 1055.49 o
    116 1060 o
    118.589 1064 o
    122.078 1068 o
    126 1072 [
    368 1300 v
    374 1306 o
    375.998 1307.48 o
    378.002 1308.52 o
    380 1310 o
    383.996 1312.96 o
    388.004 1316.37 o
    392 1318 o
    400 1318 o
    408 1318 v
    542 1318 ]
    547.476 1318.44 o
    552.524 1318.89 o
    558 1318 o
    562.514 1314.97 o
    567.486 1311.03 o
    572 1308 o
    575.996 1305.41 o
    580.004 1301.92 o
    584 1298 [
    698 1178 v
    704 1172 o
    705.48 1170 o
    706.52 1168 o
    708 1166 o
    709.924 1162 o
    711.408 1158 o
    712 1154 o
    712.518 1151.48 o
    713.482 1148.52 o
    714 1146 o
    714 1138 v
    714 1014 v
    714 1006 o
    713.482 1004 o
    712.518 1002 o
    712 1000 o
    711.482 997.484 o
    710.518 994.516 o
    710 992 o
    709.926 990.002 o
    709.406 987.998 o
    708 986 o
    706.52 984.002 o
    705.48 981.998 o
    704 980 o
    702.002 978.52 o
    699.998 977.48 o
    698 976 [
    618 890 v
    942 566 ]
    945.922 562.004 o
    949.41 557.996 o
    952 554 o
    953.924 550.004 o
    955.408 545.996 o
    956 542 o
    956.518 539.484 o
    957.482 536.516 o
    958 534 o
    958 526 v
    958 280 ]
    957.408 274.524 o
    955.924 269.476 o
    954 264 o
    953.408 260.004 o
    951.924 255.996 o
    950 252 o
    947.41 248.004 o
    943.922 243.996 o
    940 240 [
    826 128 ]
    822.004 124.078 o
    817.996 120.589 o
    814 118 o
    809.486 116.002 o
    804.514 113.998 o
    800 112 o
    795.486 109.558 o
    790.514 107.109 o
    786 106 [
    534 106 v
    526 106 o
    520 106 o
    515.486 108.516 o
    510.514 111.484 o
    506 114 o
    502.004 116.589 o
    497.996 120.078 o
    494 124 [
    372 244 v
    452 324 v
    556 224 v
    762 224 v
    844 304 v
    844 502 v
    496 848 ]
    492.078 851.996 o
    488.59 856.004 o
    486 860 o
    484.52 864.514 o
    483.48 869.486 o
    482 874 o
    480.594 878.514 o
    480.074 883.486 o
    480 888 o
    480 902 o
    481.11 907.402 o
    483.558 911.93 o
    486 916 o
    488.59 919.996 o
    492.078 924.004 o
    496 928 [
    600 1038 v
    600 1116 v
    518 1202 v
    430 1202 v
    222 1006 v
    222 98 v
    110 98 v
    0 0 z
  EndSpiro
EndSplineSet
Validated: 1
EndChar

StartChar: section
Encoding: 167 167 43
Width: 1080
VWidth: 0
Flags: HW
HStem: -142 120<232 516> 1196 122<428 714>
VStem: 110 122<672 874> 232 114<1024 1108> 596 118<62 146> 714 118<300 502>
DStem2: 232 672 128 606 0.722374 -0.691503<0 602.496> 346 1016 282 918 0.722374 -0.691503<21.5354 621.266>
LayerCount: 2
Back
Fore
SplineSet
664 252 m 1xe4
 714 300 l 1
 714 502 l 1
 282 918 l 1
 232 874 l 1
 232 672 l 1
 664 252 l 1xe4
714 146 m 1xc8
 714 40 l 2
 714 34 714 30 714 24 c 1
 712 20 706 16 704 12 c 0
 702 8 700 4 696 0 c 2
 584 -122 l 2
 580 -126 576 -130 572 -132 c 0
 566 -134 562 -140 558 -142 c 0
 556 -143 554 -143 552 -143 c 0
 548 -143 545 -142 542 -142 c 2
 232 -142 l 1
 232 -22 l 1xd4
 516 -22 l 1
 596 62 l 1
 596 158 l 1
 128 606 l 2
 124 610 120 614 118 618 c 0
 116 622 112 628 110 632 c 0
 109 634 109 636 109 638 c 0
 109 642 110 645 110 648 c 2
 110 900 l 2xe8
 110 906 114 910 116 916 c 0
 118 920 120 926 122 930 c 0
 126 934 130 936 134 940 c 2
 232 1024 l 1
 232 1130 l 2
 232 1134 231 1137 231 1141 c 0
 231 1142 231 1144 232 1146 c 0
 232 1150 236 1154 238 1158 c 0
 240 1162 244 1166 246 1170 c 2
 360 1292 l 2
 362 1296 366 1300 372 1302 c 0
 376 1304 380 1306 386 1308 c 0
 390 1310 396 1318 402 1318 c 2
 714 1318 l 1
 714 1196 l 1
 428 1196 l 1
 346 1108 l 1
 346 1016 l 1
 814 568 l 2
 818 564 822 560 824 556 c 0
 828 550 830 546 830 542 c 0
 832 536 832 530 832 526 c 2
 832 274 l 2xd4
 832 268 828 262 826 258 c 0
 824 252 822 248 820 244 c 0
 818 240 814 236 810 232 c 2
 714 146 l 1xc8
EndSplineSet
Validated: 1
EndChar

StartChar: numbersign
Encoding: 35 35 44
Width: 1080
VWidth: 0
InSpiro: 1
Flags: HW
HStem: 586 120<116 234 354 592 710 830> 952 122<116 234 354 592 710 830> 1156 40G<234 354 592 710>
VStem: 234 120<464 586 708 952 1074 1196> 592 118<466 586 706 952 1074 1196>
LayerCount: 2
Back
Fore
SplineSet
592 952 m 1
 354 952 l 1
 354 706 l 1
 592 706 l 1
 592 952 l 1
  Spiro
    592 952 v
    354 952 v
    354 706 v
    592 706 v
    0 0 z
  EndSpiro
234 1196 m 1
 354 1196 l 1
 354 1074 l 1
 592 1074 l 1
 592 1196 l 1
 710 1196 l 1
 710 1072 l 1
 830 1072 l 1
 830 952 l 1
 710 952 l 1
 710 706 l 1
 830 706 l 1
 830 586 l 1
 710 586 l 1
 710 466 l 1
 592 466 l 1
 592 586 l 1
 354 586 l 1
 354 464 l 1
 234 464 l 1
 234 586 l 1
 116 586 l 1
 116 708 l 1
 234 708 l 1
 234 952 l 1
 116 952 l 1
 116 1074 l 1
 234 1074 l 1
 234 1196 l 1
  Spiro
    234 1196 v
    354 1196 v
    354 1074 v
    592 1074 v
    592 1196 v
    710 1196 v
    710 1072 v
    830 1072 v
    830 952 v
    710 952 v
    710 706 v
    830 706 v
    830 586 v
    710 586 v
    710 466 v
    592 466 v
    592 586 v
    354 586 v
    354 464 v
    234 464 v
    234 586 v
    116 586 v
    116 708 v
    234 708 v
    234 952 v
    116 952 v
    116 1074 v
    234 1074 v
    0 0 z
  EndSpiro
EndSplineSet
Validated: 1
EndChar

StartChar: at
Encoding: 64 64 45
Width: 1080
VWidth: 0
Flags: HW
HStem: 102 120<314 952> 584 120<478 596 716 754> 824 116<564 596> 1192 120<324 752>
VStem: 120 120<298 1108> 358 120<704 738> 596 120<704 824> 832 120<784 1112>
LayerCount: 2
Back
Fore
SplineSet
596 704 m 1
 596 824 l 1
 564 824 l 1
 478 738 l 1
 478 704 l 1
 596 704 l 1
716 704 m 1
 754 704 l 1
 832 784 l 1
 832 1112 l 1
 752 1192 l 1
 324 1192 l 1
 240 1108 l 1
 240 298 l 1
 314 222 l 1
 952 222 l 1
 952 102 l 1
 290 102 l 0
 276 102 258 108 246 120 c 0
 136 230 l 0
 126 240 120 256 120 272 c 0
 120 1132 l 0
 120 1146 124 1162 136 1174 c 0
 256 1294 l 0
 266 1304 284 1312 300 1312 c 0
 776 1312 l 0
 790 1312 808 1306 820 1294 c 0
 936 1178 l 0
 946 1168 952 1152 952 1136 c 0
 952 758 l 0
 952 744 948 728 936 716 c 0
 822 602 l 0
 812 592 796 584 780 584 c 0
 418 584 l 0
 386 584 358 612 358 644 c 0
 358 762 l 0
 358 776 362 792 374 804 c 0
 496 926 l 0
 506 936 524 940 540 940 c 0
 656 940 l 0
 688 940 716 916 716 884 c 0
 716 704 l 1
EndSplineSet
Validated: 1
EndChar

StartChar: percent
Encoding: 37 37 46
Width: 1080
VWidth: 0
InSpiro: 1
Flags: HW
HStem: -26 116<725 852> 230 116<725 855> 940 116<239 366> 1196 116<239 369>
VStem: 120 114<1062 1191> 374 110<1062 1190> 606 114<96 225> 860 110<96 224>
LayerCount: 2
Back
Fore
SplineSet
720 162 m 0
 720 122 750 90 790 90 c 0
 828 90 860 122 860 162 c 0
 860 202 828 230 790 230 c 0
 750 230 720 202 720 162 c 0
  Spiro
    729.344 125.825 o
    754.51 99.94 o
    789.8 90.124 o
    825.09 99.94 o
    850.258 125.825 o
    859.8 162.124 o
    850.258 198.423 o
    825.09 224.308 o
    789.8 234.124 o
    754.51 224.308 o
    729.344 198.423 o
    719.8 162.124 o
    0 0 z
  EndSpiro
606 160 m 0
 606 262 688 346 788 346 c 0
 888 346 970 262 970 160 c 0
 970 58 888 -26 788 -26 c 0
 688 -26 606 58 606 160 c 0
  Spiro
    605.8 160.124 o
    630.612 253.594 o
    696.046 320.248 o
    787.8 345.524 o
    879.556 320.248 o
    944.988 253.594 o
    969.8 160.124 o
    944.988 66.655 o
    879.556 1.70407e-06 o
    787.8 -25.276 o
    696.046 1.70407e-06 o
    630.612 66.655 o
    0 0 z
  EndSpiro
234 1128 m 0
 234 1088 264 1056 304 1056 c 0
 342 1056 374 1088 374 1128 c 0
 374 1168 342 1196 304 1196 c 0
 264 1196 234 1168 234 1128 c 0
  Spiro
    243.098 1091.7 o
    268.266 1065.82 o
    303.556 1056 o
    338.846 1065.82 o
    364.012 1091.7 o
    373.556 1128 o
    364.012 1164.3 o
    338.846 1190.18 o
    303.556 1200 o
    268.266 1190.18 o
    243.098 1164.3 o
    233.556 1128 o
    0 0 z
  EndSpiro
120 1126 m 0
 120 1228 202 1312 302 1312 c 0
 402 1312 484 1228 484 1126 c 0
 484 1024 402 940 302 940 c 0
 202 940 120 1024 120 1126 c 0
  Spiro
    119.555 1126 o
    144.368 1219.47 o
    209.8 1286.12 o
    301.556 1311.4 o
    393.31 1286.12 o
    458.744 1219.47 o
    483.556 1126 o
    458.744 1032.53 o
    393.31 965.876 o
    301.556 940.6 o
    209.8 965.876 o
    144.368 1032.53 o
    0 0 z
  EndSpiro
EndSplineSet
Refer: 20 47 S 1 0 0 1 0 0 2
Validated: 1
EndChar

StartChar: underscore
Encoding: 95 95 47
Width: 1080
VWidth: 0
Flags: HW
HStem: -26 124<108 962>
LayerCount: 2
Back
Fore
SplineSet
108 98 m 1
 962 98 l 1
 962 -26 l 1
 108 -26 l 1
 108 98 l 1
EndSplineSet
Validated: 1
EndChar

StartChar: ampersand
Encoding: 38 38 48
Width: 1080
VWidth: 0
InSpiro: 1
Flags: HW
HStem: 106 114<310 512> 596 124<282 354> 1076 112<310 396>
VStem: 120 112<304 518 786 992> 354 112<550 596> 474 114<796 996>
LayerCount: 2
Back
Fore
SplineSet
372 484 m 2
 368 488 364 490 362 494 c 0
 360 498 356 502 354 506 c 0
 353 507 353 509 353 511 c 0
 353 514 354 517 354 520 c 2
 354 596 l 1
 282 596 l 1
 228 518 l 1
 228 304 l 1
 310 220 l 1
 512 220 l 1
 574 282 l 1
 372 484 l 2
  Spiro
    372 484 ]
    368.078 487.478 o
    364.59 490.522 o
    362 494 o
    359.484 497.996 o
    356.516 502.004 o
    354 506 o
    353.112 510.514 o
    353.556 515.486 o
    354 520 [
    354 596 v
    282 596 v
    228 518 v
    228 304 v
    310 220 v
    512 220 v
    574 282 v
    0 0 z
  EndSpiro
130 736 m 2
 128 740 122 742 120 746 c 0
 120 748 120 748 120 750 c 0
 120 752 120 754 120 756 c 0
 120 758 120 760 120 762 c 0
 120 764 120 766 120 768 c 2
 120 1014 l 2
 120 1016 120 1020 120 1022 c 0
 120 1024 120 1026 120 1028 c 0
 120 1030 120 1034 120 1036 c 0
 120 1038 118 1040 120 1042 c 0
 122 1044 126 1046 128 1048 c 0
 130 1050 132 1052 134 1054 c 2
 244 1172 l 2
 248 1176 252 1180 256 1182 c 0
 260 1184 266 1186 270 1188 c 0
 272 1189 274 1189 275 1189 c 0
 279 1189 282 1188 286 1188 c 2
 420 1188 l 2
 424 1188 430 1188 434 1186 c 0
 438 1184 444 1182 448 1180 c 0
 450 1178 452 1178 454 1176 c 0
 456 1174 458 1174 460 1172 c 2
 572 1062 l 2
 574 1060 574 1058 576 1056 c 0
 578 1054 580 1052 580 1050 c 0
 582 1046 584 1040 586 1036 c 0
 588 1032 588 1026 588 1022 c 2
 588 774 l 2
 588 772 594 768 594 766 c 0
 594 764 592 760 592 758 c 0
 590 754 590 748 588 744 c 0
 586 742 586 740 584 738 c 0
 582 736 580 734 578 732 c 2
 466 618 l 1
 466 550 l 1
 656 364 l 1
 866 572 l 1
 948 492 l 1
 736 282 l 1
 942 78 l 1
 862 0 l 1
 656 202 l 1
 576 122 l 2
 572 118 568 114 564 112 c 0
 560 110 554 108 550 106 c 0
 548 105 546 105 545 105 c 0
 541 105 538 106 534 106 c 2
 286 106 l 2
 283 106 280 105 277 105 c 0
 275 105 273 105 272 106 c 0
 268 108 264 112 260 114 c 0
 258 116 256 116 254 118 c 0
 252 120 250 120 248 122 c 2
 128 240 l 2
 124 244 122 248 120 252 c 0
 118 256 114 262 112 266 c 0
 112 267 111 268 111 269 c 0
 111 274 114 277 114 282 c 2
 114 536 l 2
 114 538 114 540 114 542 c 0
 114 544 114 546 114 548 c 0
 114 550 120 552 120 554 c 0
 120 556 120 556 120 558 c 0
 122 562 118 564 120 568 c 2
 184 656 l 1
 130 736 l 2
  Spiro
    130 736 ]
    126.967 739.478 o
    123.033 742.522 o
    120 746 o
    120 750 o
    120 756 o
    120 762 o
    120 768 v
    120 1014 v
    120 1022 o
    120 1028 o
    120 1036 o
    119.556 1038 o
    119.111 1040 o
    120 1042 o
    122.516 1044 o
    125.484 1046 o
    128 1048 o
    134 1054 v
    244 1172 ]
    247.996 1175.92 o
    252.004 1179.41 o
    256 1182 o
    260.514 1184 o
    265.486 1186 o
    270 1188 o
    275.476 1188.89 o
    280.524 1188.44 o
    286 1188 [
    420 1188 ]
    424.514 1187.93 o
    429.486 1187.41 o
    434 1186 o
    438.514 1184 o
    443.486 1182 o
    448 1180 o
    449.998 1178.52 o
    452.002 1177.48 o
    454 1176 o
    455.998 1174.52 o
    458.002 1173.48 o
    460 1172 [
    572 1062 ]
    573.48 1060 o
    574.52 1058 o
    576 1056 o
    577.924 1054 o
    579.408 1052 o
    580 1050 o
    581.998 1045.49 o
    584.002 1040.51 o
    586 1036 o
    587.406 1031.49 o
    587.926 1026.51 o
    588 1022 [
    588 774 ]
    589.552 771.484 o
    592.448 768.516 o
    594 766 o
    593.482 763.484 o
    592.518 760.516 o
    592 758 o
    590.52 753.486 o
    589.48 748.514 o
    588 744 o
    586.52 742.002 o
    585.48 739.998 o
    584 738 o
    578 732 v
    466 618 v
    466 550 v
    656 364 v
    866 572 v
    948 492 v
    736 282 v
    942 78 v
    862 0 v
    656 202 v
    576 122 ]
    572.004 118.078 o
    567.996 114.589 o
    564 112 o
    559.486 110.002 o
    554.514 107.998 o
    550 106 o
    544.524 105.111 o
    539.476 105.556 o
    534 106 [
    286 106 ]
    281.486 105.556 o
    276.514 105.111 o
    272 106 o
    268.004 108.516 o
    263.996 111.484 o
    260 114 o
    258.002 115.48 o
    255.998 116.52 o
    254 118 o
    252.002 119.48 o
    249.998 120.52 o
    248 122 [
    128 240 ]
    124.595 243.996 o
    122.072 248.004 o
    120 252 o
    117.484 256.514 o
    114.516 261.486 o
    112 266 o
    111.629 271.476 o
    113.039 276.524 o
    114 282 [
    114 536 v
    114 542 o
    114 548 o
    115.553 549.998 o
    118.447 552.002 o
    120 554 o
    120 558 o
    120.445 561.478 o
    119.555 564.522 o
    120 568 [
    184 656 v
    0 0 z
  EndSpiro
474 796 m 1
 474 996 l 1
 396 1076 l 1
 310 1076 l 1
 232 992 l 1
 232 786 l 1
 278 720 l 1
 402 720 l 1
 474 796 l 1
  Spiro
    474 796 v
    474 996 v
    396 1076 v
    310 1076 v
    232 992 v
    232 786 v
    278 720 v
    402 720 v
    0 0 z
  EndSpiro
EndSplineSet
Validated: 1
EndChar

StartChar: period
Encoding: 46 46 50
Width: 1080
VWidth: 0
Flags: HW
HStem: 100 222<358 596>
VStem: 358 238<100 322>
LayerCount: 2
Back
Fore
SplineSet
358 322 m 1
 596 322 l 1
 596 100 l 1
 358 100 l 1
 358 322 l 1
EndSplineSet
Validated: 1
EndChar

StartChar: comma
Encoding: 44 44 51
Width: 1080
VWidth: 0
InSpiro: 1
Flags: HW
HStem: -192 570
VStem: 476 238<214 378>
LayerCount: 2
Back
Fore
SplineSet
714 378 m 1
 714 164 l 1
 678 80 l 1
 408 -192 l 1
 240 -24 l 1
 476 214 l 1
 476 378 l 1
 714 378 l 1
  Spiro
    714 378 v
    714 164 v
    678 80 v
    408 -192 v
    240 -24 v
    476 214 v
    476 378 v
    357 189 z
  EndSpiro
EndSplineSet
Validated: 1
EndChar

StartChar: colon
Encoding: 58 58 52
Width: 1080
VWidth: 0
Flags: HW
HStem: 100 222<358 596> 600 222<358 596>
VStem: 358 238<100 322 600 822>
LayerCount: 2
Back
Fore
SplineSet
358 322 m 1
 596 322 l 1
 596 100 l 1
 358 100 l 1
 358 322 l 1
358 822 m 1
 596 822 l 1
 596 600 l 1
 358 600 l 1
 358 822 l 1
EndSplineSet
Validated: 1
EndChar

StartChar: plus
Encoding: 43 43 53
Width: 1080
VWidth: 0
Flags: HW
HStem: 586 126<120 476 596 952>
VStem: 476 120<266 586 712 1044>
LayerCount: 2
Back
Fore
SplineSet
476 1044 m 1
 596 1044 l 1
 596 712 l 1
 952 712 l 1
 952 586 l 1
 596 586 l 1
 596 266 l 1
 476 266 l 1
 476 586 l 1
 120 586 l 1
 120 712 l 1
 476 712 l 1
 476 1044 l 1
EndSplineSet
Validated: 1
EndChar

StartChar: logicalnot
Encoding: 172 172 54
Width: 1080
VWidth: 0
Flags: HW
HStem: 1074 120<108 842>
VStem: 842 120<830 1074>
LayerCount: 2
Back
Fore
SplineSet
108 1194 m 1
 962 1194 l 1
 962 830 l 1
 842 830 l 1
 842 1074 l 1
 108 1074 l 1
 108 1194 l 1
EndSplineSet
Validated: 1
EndChar

StartChar: macron
Encoding: 175 175 55
Width: 1080
VWidth: 0
Flags: HW
HStem: 1196 122<108 962>
LayerCount: 2
Back
Fore
SplineSet
108 1318 m 1
 962 1318 l 1
 962 1196 l 1
 108 1196 l 1
 108 1318 l 1
EndSplineSet
Validated: 1
EndChar

StartChar: degree
Encoding: 176 176 56
Width: 1080
VWidth: 0
Flags: HW
HStem: 834 114<386 566> 1206 112<387 565>
VStem: 240 114<981 1175> 598 114<981 1175>
LayerCount: 2
Back
Fore
SplineSet
476 1318 m 0
 608 1318 712 1208 712 1076 c 0
 712 944 608 834 476 834 c 0
 344 834 240 944 240 1076 c 0
 240 1208 344 1318 476 1318 c 0
354 1076 m 0
 354 1004 410 948 476 948 c 0
 542 948 598 1004 598 1076 c 0
 598 1148 542 1206 476 1206 c 0
 410 1206 354 1148 354 1076 c 0
EndSplineSet
Validated: 1
EndChar

StartChar: periodcentered
Encoding: 183 183 57
Width: 1080
VWidth: 0
Flags: HW
HStem: 462 246<354 596>
VStem: 354 242<462 708>
LayerCount: 2
Back
Fore
SplineSet
354 708 m 1
 596 708 l 1
 596 462 l 1
 354 462 l 1
 354 708 l 1
EndSplineSet
Validated: 1
EndChar

StartChar: asciicircum
Encoding: 94 94 58
Width: 1080
VWidth: 0
InSpiro: 1
Flags: HW
HStem: 950 374
VStem: 222 632
LayerCount: 2
Back
Fore
SplineSet
264 992 m 1
 222 1034 l 1
 496 1308 l 2
 508 1320 522 1324 536 1324 c 0
 554 1324 570 1318 580 1308 c 2
 854 1034 l 1
 812 992 l 1
 770 950 l 1
 538 1182 l 1
 306 950 l 1
 264 992 l 1
  Spiro
    264 992 v
    221.574 1034.43 v
    495.574 1308.43 ]
    524.908 1323.88 o
    556.07 1322.22 o
    580.426 1308.43 [
    854.426 1034.43 v
    812 992 v
    769.574 949.574 v
    538 1181.15 v
    306.426 949.574 v
    0 0 z
  EndSpiro
EndSplineSet
Validated: 1
EndChar

StartChar: asciitilde
Encoding: 126 126 59
Width: 1080
VWidth: 0
InSpiro: 1
Flags: HW
HStem: 960 120<692 774> 1196 120<326 408>
LayerCount: 2
Back
Fore
SplineSet
182 1136 m 1
 140 1178 l 1
 260 1298 l 2
 272 1310 288 1316 302 1316 c 2
 432 1316 l 2
 448 1316 466 1308 474 1298 c 2
 692 1080 l 1
 774 1080 l 1
 870 1176 l 1
 912 1134 l 1
 954 1092 l 1
 840 978 l 2
 832 968 814 960 798 960 c 2
 668 960 l 2
 654 960 638 966 626 978 c 2
 408 1196 l 1
 326 1196 l 1
 224 1094 l 1
 182 1136 l 1
  Spiro
    182 1136 v
    139.574 1178.43 v
    259.574 1298.43 ]
    272.716 1308.07 o
    287.69 1314 o
    302 1316 [
    432 1316 ]
    448.112 1313.53 o
    462.89 1307.13 o
    474.426 1298.43 [
    692.852 1080 v
    773.148 1080 v
    869.574 1176.43 v
    912 1134 v
    954.426 1091.57 v
    840.426 977.574 ]
    828.89 968.872 o
    814.112 962.474 o
    798 960 [
    668 960 ]
    653.69 962.004 o
    638.716 967.93 o
    625.574 977.574 [
    407.148 1196 v
    326.852 1196 v
    224.426 1093.57 v
    0 0 z
  EndSpiro
EndSplineSet
Validated: 1
EndChar

StartChar: dieresis
Encoding: 168 168 60
Width: 1080
VWidth: 0
Flags: HW
HStem: 1196 122<228 354 596 720>
VStem: 228 126<1196 1318> 596 124<1196 1318>
LayerCount: 2
Back
Fore
SplineSet
228 1318 m 1
 354 1318 l 1
 354 1196 l 1
 228 1196 l 1
 228 1318 l 1
596 1318 m 1
 720 1318 l 1
 720 1196 l 1
 596 1196 l 1
 596 1318 l 1
EndSplineSet
Validated: 1
EndChar

StartChar: grave
Encoding: 96 96 61
Width: 1080
VWidth: 0
Flags: HW
HStem: 952 366
VStem: 368 368
LayerCount: 2
Back
Fore
SplineSet
384 1302 m 0
 396 1314 412 1318 428 1318 c 0
 442 1318 458 1314 470 1302 c 0
 720 1054 l 0
 732 1042 736 1026 736 1012 c 0
 736 996 732 980 720 968 c 0
 708 956 692 952 676 952 c 0
 662 952 646 956 634 968 c 0
 384 1218 l 0
 372 1230 368 1246 368 1260 c 0
 368 1276 372 1292 384 1302 c 0
EndSplineSet
Validated: 1
EndChar

StartChar: acute
Encoding: 180 180 62
Width: 1080
VWidth: 0
Flags: HW
HStem: 954 364
VStem: 358 362
DStem2: 616 1300 462 972 0.704167 0.710035<-384.142 41.5218>
LayerCount: 2
Back
Fore
SplineSet
376 972 m 0
 364 984 358 1000 358 1014 c 0
 358 1032 366 1048 376 1058 c 2
 616 1300 l 2
 628 1312 644 1318 658 1318 c 0
 676 1318 692 1310 702 1300 c 0
 712 1290 720 1274 720 1256 c 0
 720 1242 714 1226 702 1214 c 2
 462 972 l 2
 452 962 436 954 418 954 c 0
 404 954 388 960 376 972 c 0
EndSplineSet
Validated: 1
EndChar

StartChar: cedilla
Encoding: 184 184 63
Width: 1080
VWidth: 0
InSpiro: 1
Flags: HW
HStem: -140 116<232 392>
VStem: 476 114<62 344>
LayerCount: 2
Back
Fore
SplineSet
590 38 m 2
 590 36 590 32 590 30 c 0
 590 28 588 26 588 24 c 0
 588 22 586 18 586 16 c 0
 586 14 586 12 584 10 c 0
 582 8 582 2 580 0 c 0
 578 -2 576 2 574 0 c 2
 458 -122 l 2
 454 -126 450 -130 446 -132 c 0
 442 -134 436 -138 432 -140 c 0
 431 -141 429 -141 427 -141 c 0
 424 -141 421 -140 418 -140 c 2
 232 -140 l 1
 232 -24 l 1
 392 -24 l 1
 476 62 l 1
 476 344 l 1
 590 344 l 1
 590 38 l 2
  Spiro
    590 38 v
    590 30 o
    589.482 28.002 o
    588.518 25.998 o
    588 24 o
    587.482 21.4844 o
    586.518 18.5156 o
    586 16 o
    585.926 14.002 o
    585.406 11.998 o
    584 10 o
    582.52 6.96674 o
    581.48 3.03326 o
    580 0 o
    578.002 -0.44511 o
    575.998 0.44511 o
    574 0 [
    458 -122 ]
    454.004 -125.922 o
    449.996 -129.411 o
    446 -132 o
    441.486 -134.516 o
    436.514 -137.484 o
    432 -140 o
    427.486 -140.889 o
    422.514 -140.444 o
    418 -140 [
    232 -140 v
    232 -24 v
    392 -24 v
    476 62 v
    476 344 v
    590 344 v
    0 0 z
  EndSpiro
EndSplineSet
Validated: 1
EndChar

StartChar: igrave
Encoding: 236 236 66
Width: 1080
VWidth: 0
UnlinkRmOvrlpSave: 1
InSpiro: 1
Flags: HW
HStem: 98 42G<474 596> 912 40G<474 596> 1070 366
VStem: 242 368 474 122<98 952>
LayerCount: 2
Back
Fore
SplineSet
474 952 m 1xe8
 596 952 l 1
 596 98 l 1
 474 98 l 1
 474 952 l 1xe8
  Spiro
    474 952 v
    596 952 v
    596 98 v
    474 98 v
    0 0 z
  EndSpiro
EndSplineSet
Refer: 61 96 N 1 0 0 1 -126 118 2
Validated: 1
EndChar

StartChar: idieresis
Encoding: 239 239 82
Width: 1080
VWidth: 0
UnlinkRmOvrlpSave: 1
Flags: HW
HStem: 98 42G<474 596> 912 40G<474 596> 1192 122<282 408 650 774>
VStem: 282 126<1192 1314> 474 122<98 952> 650 124<1192 1314>
LayerCount: 2
Back
Fore
SplineSet
474 952 m 1
 596 952 l 1
 596 98 l 1
 474 98 l 1
 474 952 l 1
EndSplineSet
Refer: 60 168 S 1 0 0 1 54 -4 2
Validated: 1
EndChar

StartChar: uni03BC
Encoding: 956 956 84
Width: 1080
VWidth: 0
Flags: HW
HStem: 102 116<312 634 866 964> 912 40G<112 226 718 838>
VStem: 112 114<-268 136 300 952> 718 120<306 952>
LayerCount: 2
Back
Fore
SplineSet
112 952 m 1
 226 952 l 1
 226 300 l 1
 312 218 l 1
 634 218 l 1
 718 306 l 1
 718 952 l 1
 838 952 l 1
 838 282 l 2
 838 276 834 268 830 258 c 1
 866 218 l 1
 964 218 l 1
 964 102 l 1
 842 102 l 2
 822 102 806 110 800 118 c 2
 748 168 l 1
 700 120 l 2
 694 114 678 102 658 102 c 2
 288 102 l 2
 278 102 262 104 248 118 c 2
 230 136 l 1
 230 -268 l 1
 112 -268 l 1
 112 952 l 1
EndSplineSet
Validated: 1
EndChar

StartChar: icircumflex
Encoding: 238 238 87
Width: 1080
VWidth: 0
UnlinkRmOvrlpSave: 1
Flags: HW
HStem: 98 42G<474 596> 912 40G<474 596> 982 374
VStem: 222 632 474 122<98 952>
LayerCount: 2
Back
Fore
SplineSet
474 952 m 1xe8
 596 952 l 1
 596 98 l 1
 474 98 l 1
 474 952 l 1xe8
EndSplineSet
Refer: 58 94 N 1 0 0 1 0 32 2
Validated: 1
EndChar

StartChar: multiply
Encoding: 215 215 91
Width: 1080
VWidth: 0
Flags: HW
VStem: 450 170<561 731>
DStem2: 276 992 190 906 0.705937 -0.708275<0.201034 366.284 488.106 854.384> 190 386 276 302 0.705937 0.708275<1.21552 366.082 487.906 855.4>
LayerCount: 2
Back
Fore
SplineSet
190 906 m 1
 276 992 l 1
 534 732 l 1
 794 992 l 1
 880 906 l 1
 620 646 l 1
 880 386 l 1
 794 302 l 1
 534 560 l 1
 276 302 l 1
 190 386 l 1
 450 646 l 1
 190 906 l 1
EndSplineSet
Validated: 1
EndChar

StartChar: iacute
Encoding: 237 237 92
Width: 1080
VWidth: 0
UnlinkRmOvrlpSave: 1
Flags: HW
HStem: 98 42G<470 596> 912 40G<470 596> 1072 364
VStem: 470 126<98 952> 470 362
DStem2: 728 1418 574 1090 0.704167 0.710035<-384.142 41.5218>
LayerCount: 2
Back
Fore
SplineSet
470 952 m 1xf0
 596 952 l 1
 596 98 l 1
 470 98 l 1
 470 952 l 1xf0
EndSplineSet
Refer: 62 180 N 1 0 0 1 112 118 2
Validated: 1
EndChar

StartChar: uni00B9
Encoding: 185 185 103
Width: 1080
VWidth: 0
Flags: HW
HStem: 1278 40G<531 547>
VStem: 476 122<526 1116>
LayerCount: 2
Back
Fore
SplineSet
398 1038 m 1
 314 1122 l 1
 496 1302 l 2
 508 1314 524 1318 538 1318 c 0
 556 1318 572 1312 580 1302 c 1
 598 1286 598 1268 598 1260 c 2
 598 526 l 1
 476 526 l 1
 476 1116 l 1
 398 1038 l 1
EndSplineSet
Validated: 1
EndChar

StartChar: uni00B2
Encoding: 178 178 104
Width: 1080
VWidth: 0
InSpiro: 1
Flags: HW
HStem: 526 122<446 792> 1202 116<508 588>
VStem: 312 108<1078 1114> 672 112<1034 1118>
DStem2: 328 686 446 648 0.703008 0.711182<55.93 489.326>
LayerCount: 2
Back
Fore
SplineSet
792 648 m 1
 792 526 l 1
 312 526 l 1
 312 596 l 1
 312 648 l 2
 312 652 312 658 312 662 c 0
 312 666 318 672 320 676 c 0
 322 680 324 682 328 686 c 2
 672 1034 l 1
 672 1118 l 1
 588 1202 l 1
 508 1202 l 1
 420 1114 l 1
 420 1078 l 1
 312 1078 l 1
 312 1136 l 2
 312 1138 312 1140 312 1142 c 0
 312 1144 312 1146 312 1148 c 0
 314 1152 316 1158 318 1162 c 0
 318 1164 320 1166 322 1168 c 0
 322 1170 324 1172 326 1174 c 2
 444 1296 l 2
 448 1300 452 1304 456 1306 c 0
 460 1308 464 1310 468 1312 c 0
 474 1314 478 1318 484 1318 c 2
 610 1318 l 2
 612 1318 614 1318 616 1318 c 0
 618 1318 620 1312 622 1312 c 0
 626 1310 632 1308 636 1306 c 0
 640 1304 644 1300 648 1296 c 2
 766 1178 l 2
 768 1176 770 1174 772 1174 c 0
 772 1172 774 1170 776 1168 c 0
 778 1166 778 1164 780 1162 c 0
 780 1158 782 1156 782 1154 c 0
 782 1152 784 1150 784 1148 c 0
 784 1144 784 1142 784 1140 c 2
 784 1012 l 2
 784 1008 784 1004 782 1000 c 0
 780 996 778 990 776 986 c 0
 776 984 774 982 772 980 c 0
 772 978 770 976 768 974 c 2
 446 648 l 1
 792 648 l 1
  Spiro
    792 648 v
    792 526 v
    314 526 v
    314 596 v
    314 648 v
    316 662 o
    320 676 o
    328 686 [
    672 1034 v
    672 1118 v
    588 1202 v
    508 1202 v
    420 1114 v
    420 1078 v
    312 1078 v
    312 1136 ]
    314 1148 o
    318 1162 o
    326 1174 [
    444 1296 ]
    456 1306 o
    468 1312 o
    484 1314 [
    610 1314 ]
    622 1312 o
    636 1306 o
    648 1296 [
    766 1178 ]
    776 1168 o
    782 1154 o
    784 1140 [
    784 1012 ]
    782 1000 o
    776 986 o
    768 974 [
    446 648 v
    0 0 z
  EndSpiro
EndSplineSet
Validated: 1
EndChar

StartChar: uni00B3
Encoding: 179 179 105
Width: 1080
VWidth: 0
Flags: HW
HStem: 530 118<438 574> 1196 122<292 636>
VStem: 658 120<732 806>
LayerCount: 2
Back
Fore
SplineSet
292 1196 m 1
 292 1318 l 1
 722 1318 l 2
 762 1318 780 1284 780 1262 c 0
 780 1260 780 1260 780 1258 c 0
 780 1256 782 1258 780 1256 c 2
 780 1196 l 2
 780 1178 768 1164 762 1156 c 2
 618 1008 l 1
 630 1004 638 998 640 996 c 2
 762 874 l 2
 774 862 778 846 778 835 c 0
 778 833 778 832 778 830 c 2
 778 708 l 2
 778 688 766 672 760 666 c 2
 642 546 l 2
 631 533 616 529 605 529 c 0
 602 529 600 530 598 530 c 2
 414 530 l 2
 396 530 382 538 374 546 c 2
 312 602 l 1
 392 690 l 1
 438 648 l 1
 574 648 l 1
 658 732 l 1
 658 806 l 1
 572 892 l 1
 480 892 l 2
 480 892 478 892 476 892 c 0
 469 892 450 893 436 906 c 0
 426 916 418 932 418 952 c 0
 418 964 422 978 434 992 c 2
 636 1196 l 1
 292 1196 l 1
EndSplineSet
Validated: 1
EndChar

StartChar: ordfeminine
Encoding: 170 170 106
Width: 1080
VWidth: 0
Flags: HW
HStem: 98 120<108 962> 342 116<316 720 840 962> 712 116<318 720> 1074 120<232 638>
VStem: 116 118<550 624> 720 120<462 712 828 990>
LayerCount: 2
Back
Fore
SplineSet
720 462 m 1
 720 712 l 1
 318 712 l 1
 234 624 l 1
 234 550 l 1
 316 464 l 1
 720 462 l 1
840 458 m 1
 962 458 l 1
 962 342 l 1
 292 342 l 2
 272 342 256 360 250 366 c 2
 132 486 l 2
 118 500 116 520 116 528 c 2
 116 648 l 2
 116 668 126 682 132 688 c 2
 252 812 l 2
 266 826 284 828 294 828 c 2
 720 828 l 1
 720 990 l 1
 638 1074 l 1
 232 1074 l 1
 232 1194 l 1
 664 1194 l 2
 684 1194 698 1180 704 1174 c 2
 824 1054 l 2
 838 1040 840 1024 840 1014 c 2
 840 458 l 1
108 218 m 1
 962 218 l 1
 962 98 l 1
 108 98 l 1
 108 218 l 1
EndSplineSet
Validated: 1
EndChar

StartChar: guillemotleft
Encoding: 171 171 108
Width: 1080
VWidth: 0
Flags: HW
DStem2: 72 692 198 650 0.700436 0.713715<58.279 602.482> 198 650 72 608 0.703764 -0.710434<0 540.798> 438 690 564 648 0.700436 0.713715<58.279 602.482> 564 648 438 606 0.703764 -0.710434<0 540.798>
LayerCount: 2
Back
Fore
SplineSet
494 1122 m 1
 580 1038 l 1
 198 650 l 1
 580 266 l 1
 494 182 l 1
 72 608 l 2
 62 618 54 634 54 652 c 0
 54 664 60 680 72 692 c 2
 494 1122 l 1
860 1120 m 1
 946 1036 l 1
 564 648 l 1
 946 264 l 1
 860 180 l 1
 438 606 l 2
 428 616 422 632 422 648 c 0
 422 662 426 676 438 690 c 2
 860 1120 l 1
EndSplineSet
Validated: 1
EndChar

StartChar: guillemotright
Encoding: 187 187 109
Width: 1080
VWidth: 0
Flags: HW
DStem2: 204 1120 120 1036 0.702121 -0.712057<0.834594 543.918> 120 264 204 180 0.705441 0.708769<0 540.234> 572 1122 486 1038 0.700436 -0.713715<0 542.802> 486 266 572 182 0.703764 0.710434<0.847188 540.236>
LayerCount: 2
Back
Fore
SplineSet
572 1122 m 1
 994 692 l 2
 1006 678 1010 664 1010 650 c 0
 1010 634 1004 618 994 608 c 2
 572 182 l 1
 486 266 l 1
 866 650 l 1
 486 1038 l 1
 572 1122 l 1
204 1120 m 1
 628 690 l 2
 640 678 644 664 644 650 c 0
 644 632 636 616 628 606 c 2
 204 180 l 1
 120 264 l 1
 500 648 l 1
 120 1036 l 1
 204 1120 l 1
EndSplineSet
Validated: 1
EndChar

StartChar: exclamdown
Encoding: 161 161 110
Width: 1080
VWidth: 0
Flags: HW
HStem: 98 42G<474 596> 912 40G<474 596> 1196 122<474 596>
VStem: 474 122<98 952 1196 1318>
LayerCount: 2
Back
Fore
SplineSet
474 1318 m 1
 596 1318 l 1
 596 1196 l 1
 474 1196 l 1
 474 1318 l 1
474 952 m 1
 596 952 l 1
 596 98 l 1
 474 98 l 1
 474 952 l 1
EndSplineSet
Validated: 1
EndChar

StartChar: questiondown
Encoding: 191 191 111
Width: 1080
VWidth: 0
Flags: HW
HStem: 100 124<428 774> 1202 122<594 724>
VStem: 230 128<290 392> 594 122<780 960 1202 1324> 838 122<288 472>
DStem2: 254 466 358 392 0.734638 0.67846<26.1964 462.814>
LayerCount: 2
Back
Fore
SplineSet
724 1202 m 1
 594 1202 l 1
 594 1324 l 1
 724 1324 l 1
 724 1202 l 1
960 472 m 1
 960 258 l 2
 960 256 958 254 958 252 c 0
 954 243 951 235 944 228 c 2
 850 120 l 2
 842 112 832 99 816 99 c 1
 804 100 l 1
 402 100 l 2
 398 100 396 99 393 99 c 0
 381 99 367 109 360 116 c 2
 250 218 l 2
 242 226 229 238 229 254 c 0
 229 258 230 262 230 266 c 2
 230 422 l 2
 230 438 245 457 254 466 c 2
 594 780 l 1
 594 960 l 1
 716 960 l 1
 716 742 l 2
 716 740 714 736 714 734 c 0
 708 722 705 715 696 706 c 2
 358 392 l 1
 358 290 l 1
 428 224 l 1
 774 224 l 1
 838 288 l 1
 838 472 l 1
 960 472 l 1
EndSplineSet
Validated: 1
EndChar

StartChar: a
Encoding: 97 97 128
Width: 1080
VWidth: 0
Flags: HW
HStem: 100 116<316 720 840 962> 468 116<318 720> 834 118<230 638>
VStem: 114 118<306 380> 720 120<218 468 584 750>
LayerCount: 2
Back
Fore
SplineSet
720 218 m 1
 720 468 l 1
 318 468 l 1
 232 380 l 1
 232 306 l 1
 316 216 l 1
 720 218 l 1
840 216 m 1
 962 216 l 1
 962 100 l 1
 290 100 l 2
 270 100 254 112 248 118 c 2
 132 242 l 2
 118 256 114 276 114 284 c 2
 114 404 l 2
 114 424 126 440 132 446 c 2
 250 568 l 2
 264 582 282 584 292 584 c 2
 720 584 l 1
 720 750 l 1
 638 834 l 1
 230 834 l 1
 230 952 l 1
 662 952 l 2
 682 952 698 940 704 934 c 2
 822 814 l 2
 836 800 840 784 840 774 c 2
 840 216 l 1
EndSplineSet
Validated: 1
EndChar

StartChar: b
Encoding: 98 98 129
Width: 1080
VWidth: 0
Flags: HW
HStem: 104 114<234 514> 832 118<234 522> 1278 40G<114 234>
VStem: 114 120<218 832 950 1318> 726 118<426 624>
LayerCount: 2
Back
Fore
SplineSet
114 104 m 1
 114 1318 l 1
 234 1318 l 1
 234 950 l 1
 546 950 l 2
 566 950 582 938 588 932 c 2
 826 690 l 2
 840 676 844 658 844 648 c 2
 844 402 l 2
 844 382 832 366 826 360 c 2
 580 118 l 2
 566 104 546 104 538 104 c 2
 114 104 l 1
234 218 m 1
 514 218 l 1
 726 426 l 1
 726 624 l 1
 522 832 l 1
 234 832 l 1
 234 218 l 1
EndSplineSet
Validated: 1
EndChar

StartChar: c
Encoding: 99 99 130
Width: 1080
VWidth: 0
Flags: HW
HStem: 102 116<444 844> 832 118<438 844>
VStem: 114 118<426 624>
LayerCount: 2
Back
Fore
SplineSet
844 950 m 1
 844 832 l 1
 438 832 l 1
 232 624 l 1
 232 426 l 1
 444 218 l 1
 844 218 l 1
 844 102 l 1
 420 102 l 2
 412 102 392 104 378 118 c 2
 132 360 l 2
 126 366 114 382 114 402 c 2
 114 648 l 2
 114 658 118 676 132 690 c 2
 372 932 l 2
 378 938 392 950 412 950 c 2
 844 950 l 1
EndSplineSet
Validated: 1
EndChar

StartChar: d
Encoding: 100 100 131
Width: 1080
VWidth: 0
Flags: HW
HStem: 102 116<444 724> 832 118<438 724> 1278 40G<724 844>
VStem: 114 118<426 624> 724 120<218 832 950 1318>
LayerCount: 2
Back
Fore
SplineSet
844 102 m 1
 420 102 l 2
 412 102 392 104 378 118 c 2
 132 360 l 2
 126 366 114 382 114 402 c 2
 114 648 l 2
 114 658 118 676 132 690 c 2
 372 932 l 2
 378 938 392 950 412 950 c 2
 724 950 l 1
 724 1318 l 1
 844 1318 l 1
 844 102 l 1
724 218 m 1
 724 832 l 1
 438 832 l 1
 232 624 l 1
 232 426 l 1
 444 218 l 1
 724 218 l 1
EndSplineSet
Validated: 1
EndChar

StartChar: e
Encoding: 101 101 132
Width: 1080
VWidth: 0
Flags: HW
HStem: 102 112<318 844> 462 124<234 724> 830 122<322 638>
VStem: 114 118<304 462 586 740> 724 116<586 742>
LayerCount: 2
Back
Fore
SplineSet
232 462 m 1
 232 304 l 1
 318 214 l 1
 844 214 l 1
 844 102 l 1
 294 102 l 2
 276 102 260 112 254 118 c 2
 130 238 l 2
 116 252 114 270 114 280 c 2
 114 764 l 2
 114 784 128 798 134 804 c 2
 256 930 l 2
 270 944 290 952 300 952 c 2
 662 952 l 2
 682 952 698 936 704 930 c 2
 822 806 l 2
 836 792 840 776 840 766 c 2
 840 462 l 1
 232 462 l 1
234 586 m 1
 724 586 l 1
 724 742 l 1
 638 830 l 1
 322 830 l 1
 234 740 l 1
 234 586 l 1
EndSplineSet
Validated: 1
EndChar

StartChar: f
Encoding: 102 102 133
Width: 1080
VWidth: 0
Flags: HW
HStem: 98 42G<362 480> 830 122<114 362 482 724> 1198 120<562 844>
VStem: 362 118<98 830 952 1116>
LayerCount: 2
Back
Fore
SplineSet
562 1198 m 1
 482 1116 l 1
 482 952 l 1
 724 952 l 1
 724 830 l 1
 480 830 l 1
 480 98 l 1
 362 98 l 1
 362 830 l 1
 114 830 l 1
 114 952 l 1
 362 952 l 1
 362 1140 l 2
 362 1156 366 1170 378 1182 c 2
 492 1300 l 2
 504 1312 518 1318 536 1318 c 2
 844 1318 l 1
 844 1198 l 1
 562 1198 l 1
EndSplineSet
Validated: 1
EndChar

StartChar: g
Encoding: 103 103 134
Width: 1080
VWidth: 0
Flags: HW
HStem: -140 120<430 704> 224 120<434 576> 836 120<440 694>
VStem: 114 120<544 630> 780 120<56 380 548 750>
LayerCount: 2
Back
Fore
SplineSet
780 380 m 1
 642 242 l 0
 634 232 616 224 600 224 c 0
 410 224 l 0
 396 224 380 230 368 242 c 0
 132 478 l 0
 122 486 114 504 114 520 c 0
 114 654 l 0
 114 668 120 684 132 696 c 0
 374 940 l 0
 382 950 400 956 416 956 c 0
 718 956 l 0
 732 956 748 952 760 940 c 0
 882 816 l 0
 892 808 900 790 900 774 c 0
 900 32 l 0
 900 18 894 2 882 -10 c 0
 770 -122 l 0
 762 -132 744 -140 728 -140 c 0
 406 -140 l 0
 392 -140 376 -134 364 -122 c 0
 248 -6 l 1
 332 78 l 1
 430 -20 l 1
 704 -20 l 1
 780 56 l 1
 780 380 l 1
780 548 m 1
 780 750 l 1
 694 836 l 1
 440 836 l 1
 234 630 l 1
 234 544 l 1
 434 344 l 1
 576 344 l 1
 780 548 l 1
EndSplineSet
Validated: 1
EndChar

StartChar: h
Encoding: 104 104 135
Width: 1080
VWidth: 0
Flags: HW
HStem: 96 42G<114 234 724 844> 832 118<444 634>
VStem: 114 120<96 630 796 1332> 724 120<96 744>
LayerCount: 2
Back
Fore
SplineSet
114 96 m 1
 114 1332 l 1
 234 1332 l 1
 234 796 l 1
 378 940 l 2
 390 950 404 950 420 950 c 2
 658 950 l 2
 674 950 688 944 700 934 c 2
 826 814 l 2
 838 802 844 788 844 770 c 2
 844 96 l 1
 724 96 l 1
 724 744 l 1
 634 832 l 1
 444 832 l 1
 234 630 l 1
 234 96 l 1
 114 96 l 1
EndSplineSet
Validated: 1
EndChar

StartChar: i
Encoding: 105 105 136
Width: 1080
VWidth: 0
Flags: HW
HStem: 98 42G<474 596> 912 40G<474 596> 1196 122<474 596>
VStem: 474 122<98 952 1196 1318>
LayerCount: 2
Back
Fore
SplineSet
474 1318 m 1
 596 1318 l 1
 596 1196 l 1
 474 1196 l 1
 474 1318 l 1
474 952 m 1
 596 952 l 1
 596 98 l 1
 474 98 l 1
 474 952 l 1
EndSplineSet
Validated: 1
EndChar

StartChar: j
Encoding: 106 106 137
Width: 1080
VWidth: 0
Flags: HW
HStem: -146 118<438 636> 912 40G<720 842> 1196 122<720 844>
VStem: 720 122<58 952 1196 1318>
LayerCount: 2
Back
Fore
SplineSet
842 34 m 2
 842 18 834 4 822 -8 c 2
 702 -130 l 2
 690 -142 678 -146 660 -146 c 2
 412 -146 l 2
 396 -146 382 -140 370 -128 c 2
 250 -6 l 1
 334 78 l 1
 438 -28 l 1
 636 -28 l 1
 720 58 l 1
 720 952 l 1
 842 952 l 1
 842 34 l 2
720 1318 m 1
 844 1318 l 1
 844 1196 l 1
 720 1196 l 1
 720 1318 l 1
EndSplineSet
Validated: 1
EndChar

StartChar: k
Encoding: 107 107 138
Width: 1080
VWidth: 0
Flags: HW
HStem: 98 42G<114 238 714 793> 466 120<238 398> 912 40G<721 800> 1278 40G<114 238>
VStem: 114 124<98 466 586 1318>
LayerCount: 2
Back
Fore
SplineSet
506 524 m 1
 838 182 l 1
 752 98 l 1
 398 466 l 1
 238 466 l 1
 238 98 l 1
 114 98 l 1
 114 1318 l 1
 238 1318 l 1
 238 586 l 1
 400 586 l 1
 760 952 l 1
 844 868 l 1
 506 524 l 1
EndSplineSet
Validated: 1
EndChar

StartChar: l
Encoding: 108 108 139
Width: 1080
VWidth: 0
Flags: HW
HStem: 98 120<620 718> 1278 40G<474 594>
VStem: 474 120<246 1318>
LayerCount: 2
Back
Fore
SplineSet
594 246 m 1
 620 218 l 1
 718 218 l 1
 718 98 l 1
 596 98 l 2
 580 98 566 104 554 116 c 2
 492 178 l 2
 480 190 474 204 474 220 c 2
 474 1318 l 1
 594 1318 l 1
 594 246 l 1
EndSplineSet
Validated: 1
EndChar

StartChar: m
Encoding: 109 109 140
Width: 1080
VWidth: 0
Flags: HW
HStem: 98 42G<114 234 476 598 840 960> 830 120<322 394 680 758>
VStem: 114 120<98 744 916 950> 476 122<98 746> 840 120<98 748>
CounterMasks: 1 38
LayerCount: 2
Back
Fore
SplineSet
598 746 m 1
 598 98 l 1
 476 98 l 1
 476 746 l 1
 394 830 l 1
 322 830 l 1
 234 744 l 1
 234 98 l 1
 114 98 l 1
 114 950 l 1
 236 950 l 1
 236 916 l 1
 254 934 l 2
 266 946 280 952 296 952 c 2
 420 952 l 2
 438 952 452 946 464 934 c 2
 536 856 l 1
 612 932 l 2
 624 944 638 950 654 950 c 2
 782 950 l 2
 798 950 812 944 824 932 c 2
 942 814 l 2
 954 802 960 788 960 772 c 2
 960 98 l 1
 840 98 l 1
 840 748 l 1
 758 830 l 1
 680 830 l 1
 598 746 l 1
EndSplineSet
Validated: 1
EndChar

StartChar: n
Encoding: 110 110 141
Width: 1080
VWidth: 0
Flags: HW
HStem: 100 44G<240 360 730 844> 834 116<114 212 444 644>
VStem: 240 120<100 746> 730 114<102 752>
LayerCount: 2
Back
Fore
SplineSet
330 884 m 1
 378 932 l 2
 384 938 400 950 420 950 c 2
 668 950 l 2
 678 950 694 948 708 934 c 2
 826 818 l 2
 832 812 844 796 844 776 c 2
 844 102 l 1
 730 102 l 1
 730 752 l 1
 644 834 l 1
 444 834 l 1
 360 746 l 1
 360 100 l 1
 240 100 l 1
 240 770 l 2
 240 776 244 784 248 794 c 1
 212 834 l 1
 114 834 l 1
 114 952 l 1
 240 952 l 2
 260 952 272 942 278 934 c 2
 330 884 l 1
EndSplineSet
Validated: 1
EndChar

StartChar: o
Encoding: 111 111 142
Width: 1080
VWidth: 0
Flags: HW
HStem: 106 114<320 644> 836 118<320 646>
VStem: 114 120<304 748> 724 120<304 748>
LayerCount: 2
Back
Fore
SplineSet
234 748 m 1
 234 304 l 1
 320 220 l 1
 644 220 l 1
 724 304 l 1
 724 748 l 1
 646 836 l 1
 320 836 l 1
 234 748 l 1
134 814 m 2
 256 940 l 2
 270 954 288 954 296 954 c 2
 672 954 l 2
 692 954 708 942 716 934 c 2
 828 808 l 2
 840 796 844 780 844 770 c 2
 844 280 l 2
 844 260 832 244 826 238 c 2
 710 120 l 2
 699 107 685 106 675 106 c 0
 672 106 670 106 668 106 c 2
 296 106 l 2
 278 106 264 114 256 120 c 2
 132 236 l 2
 116 250 114 268 114 280 c 2
 114 774 l 2
 114 794 128 808 134 814 c 2
EndSplineSet
Validated: 1
EndChar

StartChar: p
Encoding: 112 112 143
Width: 1080
VWidth: 0
Flags: HW
HStem: 100 118<234 520> 848 108<234 514>
VStem: 114 120<-268 100 218 848> 726 118<426 646>
LayerCount: 2
Back
Fore
SplineSet
114 956 m 1
 554 956 l 1
 566 956 572 956 580 948 c 1
 826 712 l 2
 832 706 844 690 844 670 c 2
 844 402 l 2
 844 392 840 374 826 360 c 2
 586 118 l 2
 580 112 566 100 546 100 c 2
 234 100 l 1
 234 -268 l 1
 114 -268 l 1
 114 956 l 1
234 848 m 1
 234 218 l 1
 520 218 l 1
 726 426 l 1
 726 646 l 1
 514 848 l 1
 234 848 l 1
EndSplineSet
Validated: 1
EndChar

StartChar: q
Encoding: 113 113 144
Width: 1080
VWidth: 0
Flags: HW
HStem: -254 124<840 962> 108 118<438 718> 832 116<444 718>
VStem: 114 118<434 624> 718 244<-254 -130> 718 122<-130 108 226 832>
LayerCount: 2
Back
Fore
SplineSet
840 946 m 1xf4
 840 -130 l 1xf4
 962 -130 l 1
 962 -254 l 1
 718 -254 l 1xf8
 720 108 l 1
 412 108 l 2
 392 108 378 120 372 126 c 2
 132 368 l 2
 118 382 114 400 114 410 c 2
 114 648 l 2
 114 668 126 684 132 690 c 2
 378 932 l 2
 392 946 412 948 420 948 c 2
 840 946 l 1xf4
718 832 m 1
 444 832 l 1
 232 624 l 1
 232 434 l 1
 438 226 l 1
 718 226 l 1
 718 832 l 1
EndSplineSet
Validated: 1
EndChar

StartChar: r
Encoding: 114 114 145
Width: 1080
VWidth: 0
Flags: HW
HStem: 98 42G<214 332> 830 122<114 195 538 634>
VStem: 214 118<100 626> 724 120<708 744>
LayerCount: 2
Back
Fore
SplineSet
332 626 m 1
 332 100 l 1
 214 98 l 1
 212 768 l 2
 212 786 208 798 196 812 c 1
 182 824 170 830 150 830 c 2
 114 830 l 1
 114 952 l 1
 212 952 l 2
 246 952 332 894 332 830 c 1
 332 792 l 1
 470 932 l 2
 482 944 496 952 512 952 c 2
 658 952 l 2
 676 952 690 946 700 934 c 2
 826 812 l 2
 838 800 844 786 844 768 c 2
 844 708 l 1
 724 708 l 1
 724 744 l 1
 634 830 l 1
 538 830 l 1
 332 626 l 1
EndSplineSet
Validated: 1
EndChar

StartChar: s
Encoding: 115 115 146
Width: 1080
VWidth: 0
Flags: HW
HStem: 98 120<322 634> 832 120<322 630>
VStem: 718 120<706 744>
LayerCount: 2
Back
Fore
SplineSet
718 744 m 1
 630 832 l 1
 322 832 l 1
 264 772 l 1
 822 330 l 2
 836 318 844 304 844 286 c 0
 844 268 838 252 826 240 c 2
 700 116 l 2
 688 104 674 98 658 98 c 2
 298 98 l 2
 282 98 268 104 256 116 c 2
 132 236 l 2
 120 248 114 262 114 280 c 2
 114 336 l 1
 234 336 l 1
 234 306 l 1
 322 218 l 1
 634 218 l 1
 694 278 l 1
 138 718 l 2
 124 728 118 744 116 762 c 0
 116 764 116 767 116 769 c 0
 116 784 122 798 132 808 c 2
 252 934 l 2
 264 946 278 952 296 952 c 2
 654 952 l 2
 670 952 684 946 696 934 c 2
 820 812 l 2
 832 800 838 786 838 770 c 2
 838 706 l 1
 718 706 l 1
 718 744 l 1
EndSplineSet
Validated: 1
EndChar

StartChar: t
Encoding: 116 116 147
Width: 1080
VWidth: 0
Flags: HW
HStem: 98 120<620 718> 830 122<228 474 594 840> 1278 40G<474 594>
VStem: 474 120<246 830 952 1318>
LayerCount: 2
Back
Fore
SplineSet
594 246 m 1
 620 218 l 1
 718 218 l 1
 718 98 l 1
 596 98 l 2
 580 98 566 104 554 116 c 2
 492 178 l 2
 480 190 474 204 474 220 c 2
 474 830 l 1
 228 830 l 1
 228 952 l 1
 474 952 l 1
 474 1318 l 1
 594 1318 l 1
 594 952 l 1
 840 952 l 1
 840 830 l 1
 594 830 l 1
 594 246 l 1
EndSplineSet
Validated: 1
EndChar

StartChar: u
Encoding: 117 117 148
Width: 1080
VWidth: 0
Flags: HW
HStem: 102 116<316 632 864 962> 912 40G<116 234 716 836>
VStem: 116 118<300 952> 716 120<306 952>
LayerCount: 2
Back
Fore
SplineSet
746 168 m 1
 698 120 l 2
 692 114 676 102 656 102 c 2
 292 102 l 2
 282 102 266 104 252 118 c 2
 134 234 l 2
 128 240 116 256 116 276 c 2
 116 952 l 1
 234 952 l 1
 234 300 l 1
 316 218 l 1
 632 218 l 1
 716 306 l 1
 716 952 l 1
 836 952 l 1
 836 282 l 2
 836 276 832 268 828 258 c 1
 864 218 l 1
 962 218 l 1
 962 102 l 1
 840 102 l 2
 820 102 804 110 798 118 c 2
 746 168 l 1
EndSplineSet
Validated: 1
EndChar

StartChar: v
Encoding: 118 118 149
Width: 1080
VWidth: 0
Flags: HW
HStem: 96 42G<525 547> 910 40G<114 234 842 962>
VStem: 114 120<782 950> 842 120<788 950>
LayerCount: 2
Back
Fore
SplineSet
234 782 m 1
 536 274 l 1
 842 788 l 1
 842 950 l 1
 962 950 l 1
 962 772 l 2
 962 760 960 752 954 742 c 2
 588 126 l 2
 576 106 558 96 536 96 c 0
 514 96 496 106 484 126 c 2
 122 736 l 2
 116 746 114 754 114 766 c 2
 114 950 l 1
 234 950 l 1
 234 782 l 1
EndSplineSet
Validated: 1
EndChar

StartChar: w
Encoding: 119 119 150
Width: 1080
VWidth: 0
Flags: HW
HStem: 100 42G<767 781> 912 40G<114 234 842 962>
VStem: 114 120<302 952> 478 122<422 586> 842 120<308 952>
LayerCount: 2
Back
Fore
SplineSet
600 422 m 1
 774 244 l 1
 842 308 l 1
 842 952 l 1
 962 952 l 1
 962 282 l 2
 962 264 956 250 944 238 c 2
 816 116 l 2
 804 106 788 100 774 100 c 0
 760 100 744 106 732 118 c 2
 538 316 l 1
 338 112 l 2
 326 100 312 92 296 92 c 0
 280 92 266 100 254 112 c 2
 132 236 l 2
 120 248 114 262 114 278 c 2
 114 952 l 1
 234 952 l 1
 234 302 l 1
 296 240 l 1
 478 422 l 1
 478 586 l 1
 600 586 l 1
 600 422 l 1
EndSplineSet
Validated: 1
EndChar

StartChar: x
Encoding: 120 120 151
Width: 1080
VWidth: 0
Flags: HW
HStem: 96 42G<108 228 844 964> 912 40G<108 228 844 964>
VStem: 108 120<96 134 912 952> 844 120<96 134 912 952>
LayerCount: 2
Back
Fore
SplineSet
536 440 m 1
 228 134 l 1
 228 96 l 1
 108 96 l 1
 108 160 l 2
 108 176 112 190 124 202 c 2
 450 524 l 1
 124 848 l 2
 112 860 108 876 108 892 c 2
 108 952 l 1
 228 952 l 1
 228 912 l 1
 536 610 l 1
 844 912 l 1
 844 952 l 1
 964 952 l 1
 964 892 l 2
 964 876 958 860 946 848 c 2
 620 526 l 1
 946 202 l 2
 958 190 964 176 964 160 c 2
 964 96 l 1
 844 96 l 1
 844 134 l 1
 536 440 l 1
EndSplineSet
Validated: 1
EndChar

StartChar: y
Encoding: 121 121 152
Width: 1080
VWidth: 0
Flags: HW
HStem: 912 40G<114 234 722 842>
VStem: 114 120<548 952> 722 120<424 952>
LayerCount: 2
Back
Fore
SplineSet
454 156 m 1
 132 482 l 2
 120 494 114 508 114 524 c 2
 114 952 l 1
 234 952 l 1
 234 548 l 1
 540 242 l 1
 722 424 l 1
 722 952 l 1
 842 952 l 1
 842 400 l 2
 842 384 836 370 824 358 c 2
 210 -256 l 1
 126 -172 l 1
 454 156 l 1
EndSplineSet
Validated: 1
EndChar

StartChar: z
Encoding: 122 122 153
Width: 1080
VWidth: 0
Flags: HW
HStem: 98 120<360 962> 830 122<114 718>
LayerCount: 2
Back
Fore
SplineSet
114 952 m 1
 962 952 l 1
 360 218 l 1
 962 218 l 1
 962 98 l 1
 114 98 l 1
 718 830 l 1
 114 830 l 1
 114 952 l 1
EndSplineSet
Validated: 1
EndChar

StartChar: ae
Encoding: 230 230 154
Width: 1080
VWidth: 0
Flags: HW
HStem: 98 120<316 390 682 960> 462 126<596 846> 588 120<440 476> 830 120<108 388 680 758>
VStem: 108 120<302 380> 476 120<306 462 708 744> 846 120<588 746>
DStem2: 126 448 228 380 0.708557 0.705653<24.2884 321.278 576.998 662.1>
LayerCount: 2
Back
Fore
SplineSet
476 588 m 1xbe
 440 588 l 1
 228 380 l 1
 228 302 l 1
 316 218 l 1
 390 218 l 1
 476 306 l 1
 476 588 l 1xbe
476 708 m 1
 476 744 l 1
 388 830 l 1
 108 830 l 1
 108 950 l 1
 412 950 l 2
 432 950 448 940 454 934 c 2
 534 856 l 1
 614 934 l 2
 620 940 636 950 656 950 c 2
 784 950 l 2
 792 950 812 948 826 934 c 2
 948 814 l 2
 956 806 966 790 966 770 c 2
 966 462 l 1
 596 462 l 1xde
 596 304 l 1
 682 218 l 1
 960 218 l 1
 960 98 l 1
 656 98 l 2
 646 98 628 102 614 116 c 2
 536 196 l 1
 458 116 l 2
 444 100 426 98 416 98 c 2
 292 98 l 2
 272 98 256 108 250 114 c 2
 126 234 l 2
 112 248 108 268 108 278 c 2
 108 406 l 2
 108 426 120 442 126 448 c 2
 374 690 l 2
 388 704 406 708 416 708 c 2
 476 708 l 1
596 588 m 1
 846 588 l 1
 846 746 l 1
 758 830 l 1
 680 830 l 1
 596 750 l 1
 596 588 l 1
EndSplineSet
Validated: 1
EndChar

StartChar: oslash
Encoding: 248 248 155
Width: 1080
VWidth: 0
Flags: HW
HStem: 104 116<434 636> 832 122<438 636>
VStem: 230 120<420 746> 718 122<304 622>
DStem2: 126 198 210 114 0.705193 0.709015<0 115.644 315.364 718.096 927.72 1043.36>
LayerCount: 2
Back
Fore
SplineSet
696 770 m 1
 636 832 l 1
 438 832 l 1
 350 746 l 1
 350 420 l 1
 696 770 l 1
718 622 m 1
 378 282 l 1
 434 220 l 1
 636 220 l 1
 718 304 l 1
 718 622 l 1
840 742 m 1
 840 280 l 2
 840 264 832 250 820 238 c 2
 702 118 l 2
 690 106 678 104 660 104 c 2
 410 104 l 2
 394 104 380 110 368 122 c 2
 292 196 l 1
 210 114 l 1
 126 198 l 1
 230 302 l 1
 230 770 l 2
 230 786 236 800 248 812 c 2
 370 934 l 2
 382 946 396 954 412 954 c 2
 662 954 l 2
 680 954 694 952 706 940 c 2
 782 854 l 1
 864 940 l 1
 948 852 l 1
 840 742 l 1
EndSplineSet
Validated: 1
EndChar

StartChar: uni0247
Encoding: 583 583 157
Width: 1080
VWidth: 0
Flags: HW
HStem: 102 112<382 842> 462 124<298 372 668 722> 818 122<386 636>
VStem: 178 120<384 462 586 728> 722 116<586 642>
DStem2: 124 210 214 122 0.699251 0.714876<-33.5874 69.3312 244.66 353.564 649.186 726.978 906.534 1083.16>
LayerCount: 2
Back
Fore
SplineSet
170 100 m 0
 135 100 107 134 107 169 c 0
 107 189 114 200 124 210 c 2
 178 266 l 1
 177 268 177 270 177 271 c 0
 177 275 178 277 178 280 c 2
 178 752 l 2
 178 772 192 786 198 792 c 2
 320 918 l 2
 334 932 354 940 364 940 c 0
 486 940 538 940 660 940 c 0
 680 940 696 924 702 918 c 2
 760 856 l 1
 842 940 l 2
 853 951 863 960 886 960 c 0
 920 960 948 933 948 899 c 0
 948 880 940 864 930 854 c 2
 838 760 l 1
 838 462 l 1
 546 462 l 1
 344 254 l 1
 382 214 l 1
 842 214 l 1
 842 102 l 1
 358 102 l 2
 340 102 324 112 318 118 c 2
 262 172 l 1
 214 122 l 2
 203 111 193 100 170 100 c 0
296 384 m 1
 372 462 l 1
 296 462 l 1
 296 384 l 1
494 586 m 1
 678 774 l 1
 636 818 l 1
 386 818 l 1
 298 728 l 1
 298 586 l 1
 494 586 l 1
668 586 m 1
 722 586 l 1
 722 642 l 1
 668 586 l 1
EndSplineSet
Validated: 1
EndChar

StartChar: fm
Encoding: 1114120 -1 158
Width: 1080
VWidth: 0
Flags: HW
HStem: 708 244<474 718> 1074 244<108 962>
VStem: 474 244<708 952>
LayerCount: 2
Back
Fore
SplineSet
108 1318 m 1
 962 1318 l 1
 962 1074 l 1
 108 1074 l 1
 108 1318 l 1
474 952 m 1
 718 952 l 1
 718 708 l 1
 474 708 l 1
 474 952 l 1
474 462 m 1
 718 462 l 1
 672 158 528 20 230 -26 c 1
 474 462 l 1
EndSplineSet
Validated: 1
EndChar

StartChar: dup
Encoding: 1114121 -1 159
Width: 1080
VWidth: 0
Flags: HW
HStem: 98 42G<474 596> 914 40G<474 596> 1074 244<108 962>
VStem: 474 122<98 466 586 954>
DStem2: 122 322 206 238 0.699729 0.714409<0 289.942> 210 814 126 730 0.704604 -0.709601<0.419766 281.852> 750 530 580 530 0.699729 -0.714409<0 289.776> 580 530 750 530 0.704604 0.709601<119.783 400.224>
LayerCount: 2
Back
Fore
SplineSet
474 466 m 1
 596 466 l 1
 596 98 l 1
 474 98 l 1
 474 466 l 1
474 954 m 1
 596 954 l 1
 596 586 l 1
 474 586 l 1
 474 954 l 1
862 814 m 1
 948 730 l 1
 750 530 l 1
 952 322 l 1
 866 238 l 1
 580 530 l 1
 862 814 l 1
210 814 m 1
 492 530 l 1
 206 238 l 1
 122 322 l 1
 324 530 l 1
 126 730 l 1
 210 814 l 1
108 1318 m 1
 962 1318 l 1
 962 1074 l 1
 108 1074 l 1
 108 1318 l 1
EndSplineSet
Validated: 1
EndChar

StartChar: A
Encoding: 65 65 160
Width: 1080
VWidth: 0
Flags: HW
HStem: 98 42G<120 238 832 952> 488 112<240 832> 1154 40G<526 542>
VStem: 120 118<98 488 600 748> 832 120<98 488 600 746>
LayerCount: 2
Back
Fore
SplineSet
238 488 m 1
 238 98 l 1
 120 98 l 1
 120 774 l 2
 120 792 132 808 138 814 c 2
 492 1176 l 2
 504 1190 520 1194 532 1194 c 0
 552 1194 568 1186 578 1176 c 2
 936 812 l 2
 950 798 952 780 952 770 c 2
 952 98 l 1
 832 98 l 1
 832 488 l 1
 238 488 l 1
240 600 m 1
 832 600 l 1
 832 746 l 1
 534 1046 l 1
 240 748 l 1
 240 600 l 1
EndSplineSet
Validated: 1
EndChar

StartChar: B
Encoding: 66 66 161
Width: 1080
VWidth: 0
Flags: HW
HStem: 98 120<120 238 358 622> 586 122<358 622> 1076 118<120 238 358 626>
VStem: 238 120<218 586 708 1076>
LayerCount: 2
Back
Fore
SplineSet
238 218 m 1
 238 1076 l 1
 120 1076 l 1
 120 1194 l 1
 652 1194 l 2
 672 1194 688 1184 696 1178 c 2
 936 928 l 2
 948 916 952 902 952 888 c 0
 952 868 944 852 934 842 c 2
 732 648 l 1
 934 450 l 2
 946 438 952 422 952 410 c 0
 952 392 944 376 934 366 c 2
 690 116 l 2
 676 102 658 98 648 98 c 2
 120 98 l 1
 120 218 l 1
 238 218 l 1
624 586 m 1
 358 586 l 1
 358 218 l 1
 622 218 l 1
 808 406 l 1
 624 586 l 1
622 708 m 1
 808 888 l 1
 626 1076 l 1
 358 1076 l 1
 358 708 l 1
 622 708 l 1
EndSplineSet
Validated: 1
EndChar

StartChar: C
Encoding: 67 67 162
Width: 1080
VWidth: 0
Flags: HW
HStem: 98 120<570 760> 1076 118<568 762>
VStem: 120 120<546 748>
LayerCount: 2
Back
Fore
SplineSet
952 1058 m 1
 868 974 l 1
 762 1076 l 1
 568 1076 l 1
 240 748 l 1
 240 546 l 1
 570 218 l 1
 760 218 l 1
 864 328 l 1
 952 244 l 1
 830 116 l 2
 822 108 806 98 786 98 c 2
 546 98 l 2
 536 98 518 104 504 118 c 2
 138 478 l 2
 132 484 120 500 120 520 c 2
 120 772 l 2
 120 782 122 800 136 814 c 2
 502 1178 l 2
 508 1184 524 1194 544 1194 c 2
 786 1194 l 2
 796 1194 814 1194 828 1180 c 2
 952 1058 l 1
EndSplineSet
Validated: 1
EndChar

StartChar: D
Encoding: 68 68 163
Width: 1080
VWidth: 0
Flags: HW
HStem: 98 122<120 238 358 626> 1076 118<120 238 358 626>
VStem: 238 120<220 1076> 832 120<426 866>
LayerCount: 2
Back
Fore
SplineSet
358 220 m 1
 626 220 l 1
 832 426 l 1
 832 866 l 1
 626 1076 l 1
 358 1076 l 1
 358 220 l 1
238 1076 m 1
 120 1076 l 1
 120 1194 l 1
 652 1194 l 2
 672 1194 688 1182 694 1176 c 2
 934 932 l 2
 948 918 952 900 952 890 c 2
 952 402 l 2
 952 382 940 364 934 358 c 2
 692 118 l 2
 678 104 660 98 650 98 c 2
 120 98 l 1
 120 218 l 1
 238 218 l 1
 238 1076 l 1
EndSplineSet
Validated: 1
EndChar

StartChar: E
Encoding: 69 69 164
Width: 1080
VWidth: 0
Flags: HW
HStem: 98 120<238 952> 590 122<238 714> 1074 122<238 952>
VStem: 120 118<218 590 712 1074>
LayerCount: 2
Back
Fore
SplineSet
120 1196 m 1
 952 1196 l 1
 952 1074 l 1
 238 1074 l 1
 238 712 l 1
 714 712 l 1
 714 590 l 1
 238 590 l 1
 238 218 l 1
 952 218 l 1
 952 98 l 1
 120 98 l 1
 120 1196 l 1
EndSplineSet
Validated: 1
EndChar

StartChar: F
Encoding: 70 70 165
Width: 1080
VWidth: 0
Flags: HW
HStem: 98 42G<120 238> 600 112<238 834> 1074 120<238 952>
VStem: 120 118<98 600 712 1074>
LayerCount: 2
Back
Fore
SplineSet
120 1194 m 1
 952 1194 l 1
 952 1074 l 1
 238 1074 l 1
 238 712 l 1
 834 712 l 1
 834 604 l 1
 238 600 l 1
 238 98 l 1
 120 98 l 1
 120 1194 l 1
EndSplineSet
Validated: 1
EndChar

StartChar: G
Encoding: 71 71 166
Width: 1080
VWidth: 0
Flags: HW
HStem: 102 120<444 716> 488 112<476 716 834 952> 1076 118<444 634>
VStem: 120 120<424 870> 716 118<222 488>
LayerCount: 2
Back
Fore
SplineSet
476 600 m 1
 952 600 l 1
 952 488 l 1
 834 488 l 1
 834 100 l 1
 420 102 l 2
 410 102 392 104 378 118 c 2
 138 356 l 2
 132 362 120 378 120 398 c 2
 120 894 l 2
 120 904 122 926 136 940 c 2
 376 1178 l 2
 382 1186 398 1194 418 1194 c 2
 658 1194 l 2
 668 1194 688 1192 702 1178 c 2
 852 1026 l 1
 766 942 l 1
 634 1076 l 1
 444 1076 l 1
 240 870 l 1
 240 424 l 1
 444 222 l 1
 716 222 l 1
 716 488 l 1
 476 488 l 1
 476 600 l 1
EndSplineSet
Validated: 1
EndChar

StartChar: H
Encoding: 72 72 167
Width: 1080
VWidth: 0
Flags: HW
HStem: 100 42G<120 238 834 952> 600 112<238 834> 1154 40G<120 238 834 952>
VStem: 120 118<100 600 712 1194> 834 118<100 600 712 1194>
LayerCount: 2
Back
Fore
SplineSet
120 1194 m 1
 238 1194 l 1
 238 712 l 1
 834 712 l 1
 834 1194 l 1
 952 1194 l 1
 952 100 l 1
 834 100 l 1
 834 600 l 1
 238 600 l 1
 238 100 l 1
 120 100 l 1
 120 1194 l 1
EndSplineSet
Validated: 1
EndChar

StartChar: I
Encoding: 73 73 168
Width: 1080
VWidth: 0
Flags: HW
HStem: 96 122<358 476 596 714> 1074 120<358 476 596 714>
VStem: 358 356<96 218 1074 1194>
LayerCount: 2
Back
Fore
SplineSet
358 1194 m 1
 714 1194 l 1
 714 1074 l 1
 596 1074 l 1
 596 218 l 1
 714 218 l 1
 714 96 l 1
 358 96 l 1
 358 218 l 1
 476 218 l 1
 476 1074 l 1
 358 1074 l 1
 358 1194 l 1
EndSplineSet
Validated: 1
EndChar

StartChar: J
Encoding: 74 74 169
Width: 1080
VWidth: 0
Flags: HW
HStem: 100 120<326 512> 1074 120<476 596 714 834>
VStem: 120 118<302 464> 596 118<306 1074>
LayerCount: 2
Back
Fore
SplineSet
120 464 m 1
 238 464 l 1
 238 302 l 1
 326 220 l 1
 512 220 l 1
 596 306 l 1
 596 1074 l 1
 476 1074 l 1
 476 1194 l 1
 834 1194 l 1
 834 1074 l 1
 714 1074 l 1
 714 282 l 2
 714 274 712 254 698 240 c 2
 580 118 l 2
 572 110 556 100 536 100 c 2
 300 100 l 2
 292 100 272 102 258 116 c 2
 138 232 l 2
 132 238 120 254 120 274 c 2
 120 464 l 1
EndSplineSet
Validated: 1
EndChar

StartChar: K
Encoding: 75 75 170
Width: 1080
VWidth: 0
Flags: HW
HStem: 98 42G<120 246 832 952> 1154 40G<120 246 832 950>
VStem: 120 126<98 376 548 1194> 832 120<98 136 1156 1194>
LayerCount: 2
Back
Fore
SplineSet
246 376 m 1
 246 98 l 1
 120 98 l 1
 120 1194 l 1
 246 1194 l 1
 246 548 l 1
 832 1156 l 1
 832 1194 l 1
 950 1194 l 1
 950 1132 l 2
 950 1116 944 1102 932 1090 c 2
 502 646 l 1
 934 202 l 2
 946 190 952 176 952 160 c 2
 952 98 l 1
 832 98 l 1
 832 136 l 1
 418 562 l 1
 246 376 l 1
EndSplineSet
Validated: 1
EndChar

StartChar: L
Encoding: 76 76 171
Width: 1080
VWidth: 0
Flags: HW
HStem: 98 120<238 952> 1154 40G<126 238>
VStem: 120 118<218 1194>
LayerCount: 2
Back
Fore
SplineSet
126 1194 m 1
 238 1194 l 1
 238 218 l 1
 952 218 l 1
 952 98 l 1
 120 98 l 1
 126 1194 l 1
EndSplineSet
Validated: 1
EndChar

StartChar: M
Encoding: 77 77 172
Width: 1080
VWidth: 0
Flags: HW
HStem: 100 42G<120 240 832 952> 1154 40G<176 187 885 914>
VStem: 120 120<100 988> 474 122<588 740> 832 120<100 992>
LayerCount: 2
Back
Fore
SplineSet
596 740 m 1
 596 588 l 1
 474 588 l 1
 474 740 l 1
 240 988 l 1
 240 100 l 1
 120 100 l 1
 120 1132 l 2
 120 1158 134 1178 158 1188 c 0
 166 1192 172 1194 180 1194 c 0
 194 1194 210 1186 222 1174 c 2
 532 852 l 1
 850 1178 l 2
 862 1190 878 1194 892 1194 c 0
 897 1194 902 1196 907 1196 c 0
 909 1196 911 1195 914 1194 c 0
 938 1184 952 1162 952 1136 c 2
 952 100 l 1
 832 100 l 1
 832 992 l 1
 596 740 l 1
EndSplineSet
Validated: 1
EndChar

StartChar: N
Encoding: 78 78 173
Width: 1080
VWidth: 0
Flags: HW
HStem: 100 42G<120 238 834 952> 1154 40G<120 277 834 952>
VStem: 120 118<100 1016> 834 118<100 400 584 1194>
LayerCount: 2
Back
Fore
SplineSet
120 100 m 1
 120 1194 l 1
 238 1194 l 1
 834 584 l 1
 834 1194 l 1
 952 1194 l 1
 952 100 l 1
 834 100 l 1
 834 400 l 1
 238 1016 l 1
 238 100 l 1
 120 100 l 1
EndSplineSet
Validated: 1
EndChar

StartChar: O
Encoding: 79 79 174
Width: 1080
VWidth: 0
Flags: HW
HStem: 100 120<322 746> 1076 118<324 746>
VStem: 120 124<300 988> 832 120<306 986>
LayerCount: 2
Back
Fore
SplineSet
244 988 m 1
 244 300 l 1
 322 220 l 1
 746 220 l 1
 832 306 l 1
 832 986 l 1
 746 1076 l 1
 324 1076 l 1
 244 988 l 1
140 1052 m 2
 254 1176 l 2
 268 1192 286 1194 298 1194 c 2
 772 1194 l 2
 792 1194 810 1184 816 1176 c 2
 936 1052 l 2
 950 1038 952 1020 952 1010 c 2
 952 280 l 2
 952 260 942 244 934 238 c 2
 812 118 l 2
 798 104 780 100 770 100 c 2
 298 100 l 2
 278 100 262 110 256 116 c 2
 138 230 l 2
 124 244 120 264 120 274 c 2
 120 1012 l 2
 120 1030 132 1044 140 1052 c 2
EndSplineSet
Validated: 1
EndChar

StartChar: P
Encoding: 80 80 175
Width: 1080
VWidth: 0
Flags: HW
HStem: 96 42G<120 238> 462 124<238 626> 1074 120<238 628>
VStem: 120 118<96 462 586 1074> 834 118<796 874>
LayerCount: 2
Back
Fore
SplineSet
238 586 m 1
 626 586 l 1
 834 796 l 1
 834 874 l 1
 628 1074 l 1
 238 1074 l 1
 238 586 l 1
238 462 m 1
 238 96 l 1
 120 96 l 1
 120 1194 l 1
 652 1194 l 2
 668 1194 682 1190 694 1178 c 2
 934 940 l 2
 946 928 952 916 952 900 c 2
 952 772 l 2
 952 756 948 742 936 730 c 2
 694 484 l 2
 682 472 668 462 652 462 c 2
 238 462 l 1
EndSplineSet
Validated: 1
EndChar

StartChar: Q
Encoding: 81 81 176
Width: 1080
VWidth: 0
Flags: HW
HStem: 104 120<446 530> 1076 118<446 630>
VStem: 120 120<428 872> 472 120<350 464> 832 120<426 868>
LayerCount: 2
Back
Fore
SplineSet
742 166 m 1
 944 -52 l 1
 856 -132 l 1
 640 104 l 1
 422 104 l 2
 406 104 392 110 380 122 c 2
 138 360 l 2
 126 372 120 386 120 402 c 2
 120 896 l 2
 120 912 126 928 138 940 c 2
 378 1178 l 2
 390 1190 404 1194 420 1194 c 2
 656 1194 l 2
 672 1194 686 1190 698 1178 c 2
 934 934 l 2
 946 922 952 908 952 892 c 2
 952 400 l 2
 952 382 946 370 934 358 c 2
 742 166 l 1
656 248 m 1
 832 426 l 1
 832 868 l 1
 630 1076 l 1
 446 1076 l 1
 240 872 l 1
 240 428 l 1
 446 224 l 1
 530 224 l 1
 480 304 l 2
 474 314 472 322 472 334 c 2
 472 464 l 1
 592 464 l 1
 592 350 l 1
 656 248 l 1
EndSplineSet
Validated: 1
EndChar

StartChar: R
Encoding: 82 82 177
Width: 1080
VWidth: 0
Flags: HW
HStem: 100 42G<120 238 834 952> 588 120<238 384 556 748> 1074 120<238 746>
VStem: 120 118<100 588 708 1074> 832 120<100 128 792 988>
LayerCount: 2
Back
Fore
SplineSet
556 588 m 1
 934 206 l 2
 946 194 952 180 952 164 c 2
 952 100 l 1
 834 100 l 1
 834 128 l 1
 384 588 l 1
 238 588 l 1
 238 100 l 1
 120 100 l 1
 120 1194 l 1
 770 1194 l 2
 786 1194 800 1188 812 1176 c 2
 934 1056 l 2
 946 1044 952 1030 952 1014 c 2
 952 768 l 2
 952 752 946 738 934 726 c 2
 816 606 l 2
 804 594 790 588 774 588 c 2
 556 588 l 1
238 708 m 1
 748 708 l 1
 832 792 l 1
 832 988 l 1
 746 1074 l 1
 238 1074 l 1
 238 708 l 1
EndSplineSet
Validated: 1
EndChar

StartChar: S
Encoding: 83 83 178
Width: 1080
VWidth: 0
Flags: HW
HStem: 96 122<326 748> 956 42G<828 952> 1076 118<332 752>
VStem: 126 120<302 340 926 990> 828 120<306 368 956 996>
LayerCount: 2
Back
Fore
SplineSet
828 996 m 1
 752 1076 l 1
 332 1076 l 1
 246 990 l 1
 246 926 l 1
 922 450 l 2
 940 438 948 420 948 400 c 2
 948 282 l 2
 948 266 942 254 932 242 c 2
 818 118 l 2
 806 106 792 96 774 96 c 2
 302 96 l 2
 286 96 272 102 260 114 c 2
 138 236 l 2
 126 248 120 262 120 278 c 2
 120 340 l 1
 240 340 l 1
 240 302 l 1
 326 218 l 1
 748 218 l 1
 828 306 l 1
 828 368 l 1
 152 844 l 2
 134 856 126 874 126 894 c 2
 126 1014 l 2
 126 1030 132 1044 144 1056 c 2
 266 1178 l 2
 278 1190 292 1194 308 1194 c 2
 776 1194 l 2
 792 1194 806 1190 818 1178 c 2
 934 1062 l 2
 946 1050 952 1036 952 1020 c 2
 952 956 l 1
 828 956 l 1
 828 996 l 1
EndSplineSet
Validated: 1
EndChar

StartChar: T
Encoding: 84 84 179
Width: 1080
VWidth: 0
Flags: HW
HStem: 98 42G<476 596> 1074 120<120 476 596 952>
VStem: 476 120<98 1074>
LayerCount: 2
Back
Fore
SplineSet
120 1194 m 1
 952 1194 l 1
 952 1074 l 1
 596 1074 l 1
 596 98 l 1
 476 98 l 1
 476 1074 l 1
 120 1074 l 1
 120 1194 l 1
EndSplineSet
Validated: 1
EndChar

StartChar: U
Encoding: 85 85 180
Width: 1080
VWidth: 0
Flags: HW
HStem: 100 120<322 750> 1154 40G<120 236 832 952>
VStem: 120 116<304 1194> 832 120<306 1194>
LayerCount: 2
Back
Fore
SplineSet
120 1194 m 1
 236 1194 l 1
 236 304 l 1
 322 220 l 1
 750 220 l 1
 832 306 l 1
 832 1194 l 1
 952 1194 l 1
 952 282 l 2
 952 274 950 256 936 242 c 2
 820 120 l 2
 812 112 796 100 776 100 c 2
 296 100 l 2
 286 100 268 104 254 118 c 2
 136 236 l 2
 130 242 120 258 120 278 c 2
 120 1194 l 1
EndSplineSet
Validated: 1
EndChar

StartChar: V
Encoding: 86 86 181
Width: 1080
VWidth: 0
Flags: HW
HStem: 96 42G<517 543> 1154 40G<120 240 832 952>
VStem: 120 120<1026 1194> 832 120<1024 1194>
LayerCount: 2
Back
Fore
SplineSet
240 1026 m 1
 530 310 l 1
 832 1024 l 1
 832 1194 l 1
 952 1194 l 1
 952 1012 l 2
 952 1004 950 996 948 988 c 2
 586 132 l 2
 576 110 556 96 530 96 c 0
 504 96 484 110 474 132 c 2
 120 990 l 2
 119 993 118 995 118 997 c 0
 118 1002 120 1007 120 1012 c 2
 120 1194 l 1
 240 1194 l 1
 240 1026 l 1
EndSplineSet
Validated: 1
EndChar

StartChar: W
Encoding: 87 87 182
Width: 1080
VWidth: 0
Flags: HW
HStem: 96 42G<292 307 763 778> 1154 40G<120 238 832 952>
VStem: 120 118<300 1194> 474 120<426 704> 832 120<302 1194>
LayerCount: 2
Back
Fore
SplineSet
532 314 m 1
 342 114 l 2
 330 102 314 96 300 96 c 0
 284 96 270 102 258 114 c 2
 138 234 l 2
 126 246 120 260 120 276 c 2
 120 1194 l 1
 238 1194 l 1
 238 300 l 1
 300 242 l 1
 474 426 l 1
 474 704 l 1
 594 704 l 1
 594 422 l 1
 770 242 l 1
 832 302 l 1
 832 1194 l 1
 952 1194 l 1
 952 276 l 2
 952 258 946 244 934 232 c 2
 812 114 l 2
 800 104 786 96 770 96 c 0
 756 96 740 104 728 116 c 2
 532 314 l 1
EndSplineSet
Validated: 1
EndChar

StartChar: X
Encoding: 88 88 183
Width: 1080
VWidth: 0
Flags: HW
HStem: 100 42G<120 240 832 952> 1154 40G<120 240 832 952>
VStem: 120 120<100 254 1040 1194> 832 120<100 254 1040 1194>
LayerCount: 2
Back
Fore
SplineSet
532 562 m 1
 240 254 l 1
 240 100 l 1
 120 100 l 1
 120 278 l 2
 120 294 126 308 138 320 c 2
 448 646 l 1
 138 974 l 2
 126 986 120 1000 120 1016 c 2
 120 1194 l 1
 240 1194 l 1
 240 1040 l 1
 534 732 l 1
 832 1040 l 1
 832 1194 l 1
 952 1194 l 1
 952 1016 l 2
 952 1000 946 986 934 974 c 2
 618 648 l 1
 934 320 l 2
 946 308 952 294 952 278 c 2
 952 100 l 1
 832 100 l 1
 832 254 l 1
 532 562 l 1
EndSplineSet
Validated: 1
EndChar

StartChar: Y
Encoding: 89 89 184
Width: 1080
VWidth: 0
Flags: HW
HStem: 100 42G<474 596> 1154 40G<120 240 832 952>
VStem: 120 120<1156 1194> 474 122<100 742> 832 120<1156 1194>
LayerCount: 2
Back
Fore
SplineSet
596 742 m 1
 596 100 l 1
 474 100 l 1
 474 742 l 1
 138 1090 l 2
 126 1102 120 1116 120 1132 c 2
 120 1194 l 1
 240 1194 l 1
 240 1156 l 1
 538 852 l 1
 832 1156 l 1
 832 1194 l 1
 952 1194 l 1
 952 1136 l 2
 952 1120 948 1104 936 1092 c 2
 596 742 l 1
EndSplineSet
Validated: 1
EndChar

StartChar: Z
Encoding: 90 90 185
Width: 1080
VWidth: 0
Flags: HW
HStem: 98 122<240 952> 1074 120<120 830>
VStem: 120 120<220 258> 830 120<1036 1074>
LayerCount: 2
Back
Fore
SplineSet
950 1012 m 2
 950 996 944 982 932 970 c 2
 240 258 l 1
 240 220 l 1
 952 220 l 1
 952 98 l 1
 120 98 l 1
 120 282 l 2
 120 298 126 312 138 324 c 2
 830 1036 l 1
 830 1074 l 1
 120 1074 l 1
 120 1194 l 1
 950 1194 l 1
 950 1012 l 2
EndSplineSet
Validated: 1
EndChar

StartChar: AE
Encoding: 198 198 186
Width: 1080
VWidth: 0
Flags: HW
HStem: 98 120<718 962> 462 124<230 596> 586 122<718 962> 1074 120<718 962>
VStem: 106 124<98 462 586 748> 596 366<98 218 586 708> 596 122<218 462 708 1074>
DStem2: 466 1140 230 748 0.746734 0.665123<-436.958 52.0112>
LayerCount: 2
Back
Fore
SplineSet
596 1074 m 1xda
 230 748 l 1
 230 586 l 1
 596 586 l 1xdc
 596 1074 l 1xda
106 98 m 1
 106 242 106 382 106 512 c 0
 106 598 106 680 106 756 c 1
 106 812 134 840 174 876 c 2
 466 1140 l 2
 498 1168 518 1184 546 1194 c 1
 754 1194 802 1194 962 1194 c 1
 962 1074 l 1xdc
 718 1074 l 1
 718 708 l 1xba
 962 708 l 1
 962 586 l 1xbc
 718 586 l 1
 718 218 l 1xba
 962 218 l 1
 962 98 l 1
 596 98 l 1xbc
 596 462 l 1xda
 230 462 l 1
 230 98 l 1
 106 98 l 1
EndSplineSet
Validated: 1
EndChar

StartChar: Oslash
Encoding: 216 216 187
Width: 1080
VWidth: 0
Flags: HW
HStem: 100 120<312 756> 1076 118<314 756>
VStem: 110 124<434 988> 842 120<306 864>
DStem2: 234 434 250 280 0.711901 0.70228<0 734.816>
LayerCount: 2
Back
Fore
SplineSet
842 864 m 1
 250 280 l 1
 312 220 l 1
 756 220 l 1
 842 306 l 1
 842 864 l 1
816 1012 m 1
 756 1076 l 1
 314 1076 l 1
 234 988 l 1
 234 434 l 1
 816 1012 l 1
130 1052 m 2
 244 1176 l 2
 258 1192 276 1194 288 1194 c 2
 782 1194 l 2
 802 1194 820 1184 826 1176 c 2
 946 1052 l 2
 960 1038 962 1020 962 1010 c 2
 962 280 l 2
 962 260 952 244 944 238 c 2
 822 118 l 2
 808 104 790 100 780 100 c 2
 288 100 l 2
 268 100 252 110 246 116 c 2
 128 230 l 2
 114 244 110 264 110 274 c 2
 110 1012 l 2
 110 1030 122 1044 130 1052 c 2
EndSplineSet
Validated: 1
EndChar

StartChar: semicolon
Encoding: 59 59 190
Width: 1080
VWidth: 0
Flags: HW
HStem: -192 570 600 222<476 714>
VStem: 476 238<214 378 600 822>
LayerCount: 2
Back
Fore
SplineSet
476 822 m 1
 714 822 l 1
 714 600 l 1
 476 600 l 1
 476 822 l 1
EndSplineSet
Refer: 51 44 N 1 0 0 1 0 0 2
Validated: 1
EndChar

StartChar: asterisk
Encoding: 42 42 191
Width: 1080
VWidth: 0
Flags: HW
HStem: 1156 40G<474 596>
VStem: 474 122<340 708 828 1196>
LayerCount: 2
Back
Fore
SplineSet
474 708 m 1
 596 708 l 1
 596 340 l 1
 474 340 l 1
 474 708 l 1
474 1196 m 1
 596 1196 l 1
 596 828 l 1
 474 828 l 1
 474 1196 l 1
862 1056 m 1
 948 972 l 1
 750 772 l 1
 952 564 l 1
 866 480 l 1
 580 772 l 1
 862 1056 l 1
210 1056 m 1
 492 772 l 1
 206 480 l 1
 122 564 l 1
 324 772 l 1
 126 972 l 1
 210 1056 l 1
EndSplineSet
Validated: 1
EndChar

StartChar: copyright
Encoding: 169 169 208
Width: 1080
VWidth: 0
Flags: HW
HStem: 100 120<380 696> 342 120<558 718> 830 120<558 718> 1076 118<382 696>
VStem: 116 120<364 928> 354 120<548 744> 840 120<364 928>
DStem2: 134 996 236 928 0.703189 0.711003<23.3772 231.272> 236 364 134 298 0.703146 -0.711046<0 203.644> 764 1178 696 1076 0.699294 -0.714834<25.361 231.854> 840 364 944 298 0.707107 0.707107<-203.646 0>
LayerCount: 2
Back
Fore
SplineSet
718 950 m 1
 718 830 l 1
 558 830 l 1
 474 744 l 1
 474 548 l 1
 558 462 l 1
 718 462 l 1
 718 342 l 1
 534 342 l 2
 524 342 504 346 490 360 c 2
 370 482 l 2
 364 488 354 504 354 524 c 2
 354 768 l 2
 354 778 356 796 370 810 c 2
 490 932 l 2
 496 940 512 950 532 950 c 2
 718 950 l 1
134 996 m 2
 314 1178 l 2
 328 1192 344 1194 354 1194 c 2
 720 1194 l 2
 740 1194 758 1186 764 1178 c 2
 944 994 l 2
 958 980 960 962 960 952 c 2
 960 342 l 2
 960 322 950 304 944 298 c 2
 764 118 l 2
 750 104 730 100 720 100 c 2
 354 100 l 2
 334 100 318 112 312 118 c 2
 134 298 l 2
 120 312 116 332 116 342 c 2
 116 954 l 2
 116 974 128 990 134 996 c 2
236 928 m 1
 236 364 l 1
 380 220 l 1
 696 220 l 1
 840 364 l 1
 840 928 l 1
 696 1076 l 1
 382 1076 l 1
 236 928 l 1
EndSplineSet
Validated: 1
EndChar

StartChar: registered
Encoding: 174 174 209
Width: 1080
VWidth: 0
Flags: HW
HStem: 100 120<380 696> 586 120<472 524> 830 120<472 572> 1076 118<382 696>
VStem: 116 120<364 928> 352 120<340 586 706 830> 596 120<342 452 734 804> 840 120<364 928>
DStem2: 134 996 236 928 0.703189 0.711003<23.3772 231.272> 236 364 134 298 0.703146 -0.711046<0 203.644> 944 994 840 928 0.699294 -0.714834<-232.042 -25.5476> 840 364 944 298 0.707107 0.707107<-203.646 0>
LayerCount: 2
Back
Fore
SplineSet
134 996 m 2
 314 1178 l 2
 328 1192 342 1194 352 1194 c 2
 720 1194 l 2
 740 1194 756 1186 764 1178 c 2
 944 994 l 2
 958 980 960 962 960 952 c 2
 960 340 l 2
 960 320 950 304 944 298 c 2
 764 118 l 2
 748 104 730 100 720 100 c 2
 352 100 l 2
 332 100 318 110 312 118 c 2
 134 298 l 2
 120 312 116 330 116 340 c 2
 116 954 l 2
 116 974 128 988 134 996 c 2
236 928 m 1
 236 364 l 1
 380 220 l 1
 696 220 l 1
 840 364 l 1
 840 928 l 1
 696 1076 l 1
 382 1076 l 1
 236 928 l 1
352 950 m 1
 596 950 l 2
 616 950 632 940 638 934 c 2
 702 874 l 2
 716 860 720 842 720 830 c 2
 720 708 l 2
 720 688 710 672 702 664 c 2
 648 612 l 1
 710 494 l 2
 712 488 716 478 716 466 c 2
 716 342 l 1
 596 342 l 1
 596 452 l 1
 524 586 l 1
 472 586 l 1
 472 340 l 1
 352 340 l 1
 352 950 l 1
472 830 m 1
 472 706 l 1
 572 706 l 1
 596 734 l 1
 596 804 l 1
 572 830 l 1
 472 830 l 1
EndSplineSet
Validated: 1
EndChar

StartChar: boxA
Encoding: 1114138 -1 210
Width: 1080
VWidth: 0
Flags: HW
HStem: -26 124<122 950> 342 120<122 950> 830 120<122 488>
VStem: 0 122<98 342 586 830 950 1112> 488 120<586 830 950 1110> 950 122<98 342>
DStem2: 22 1180 124 1112 0.712926 0.701239<25.0342 281.01> 350 1418 306 1292 0.707107 -0.707107<57.9828 315.37>
LayerCount: 2
Back
Fore
SplineSet
0 462 m 1
 1072 462 l 1
 1072 -26 l 1
 0 -26 l 1
 0 462 l 1
122 342 m 1
 122 98 l 1
 950 98 l 1
 950 342 l 1
 122 342 l 1
120 586 m 1
 0 586 l 1
 4 1138 l 2
 4 1158 16 1174 22 1180 c 2
 266 1420 l 2
 278 1432 292 1436 304 1436 c 0
 324 1436 340 1428 350 1418 c 2
 592 1176 l 2
 606 1162 608 1144 608 1134 c 2
 608 586 l 1
 488 586 l 1
 488 830 l 1
 122 830 l 1
 120 586 l 1
122 950 m 1
 488 950 l 1
 488 1110 l 1
 306 1292 l 1
 124 1112 l 1
 122 950 l 1
EndSplineSet
Validated: 1
EndChar

StartChar: insert
Encoding: 1114139 -1 211
Width: 1080
VWidth: 0
Flags: HW
HStem: 36 368<0 368 704 1072> 912 40G<495 573>
DStem2: 0 404 0 36 0.697899 0.716196<0 500.162> 534 952 534 582 0.696671 -0.71739<265.434 772.244>
LayerCount: 2
Back
Fore
SplineSet
0 36 m 1
 0 404 l 1
 534 952 l 1
 1072 398 l 1
 1070 36 l 1
 534 582 l 1
 0 36 l 1
EndSplineSet
Validated: 1
EndChar

StartChar: boxB
Encoding: 1114140 -1 212
Width: 1080
VWidth: 0
Flags: HW
HStem: -26 124<122 948> 342 120<122 948> 588 120<462 580 704 864> 952 120<704 860> 1318 118<462 580 704 866>
VStem: 0 122<98 342> 580 124<708 952 1072 1318> 948 122<98 342 792 868 1160 1232>
LayerCount: 2
Back
Fore
SplineSet
0 462 m 1
 1070 462 l 1
 1070 -26 l 1
 0 -26 l 1
 0 462 l 1
122 342 m 1
 122 98 l 1
 948 98 l 1
 948 342 l 1
 122 342 l 1
462 1318 m 1
 462 1438 l 1
 890 1436 l 2
 910 1436 926 1426 932 1420 c 2
 1054 1298 l 2
 1068 1284 1072 1266 1072 1256 c 2
 1072 1136 l 2
 1072 1116 1062 1098 1054 1092 c 2
 974 1016 l 1
 1052 932 l 2
 1066 918 1068 900 1068 892 c 2
 1068 768 l 2
 1068 748 1058 732 1052 726 c 2
 932 606 l 2
 918 592 900 588 890 588 c 2
 462 588 l 1
 462 708 l 1
 580 708 l 1
 580 1318 l 1
 462 1318 l 1
704 708 m 1
 864 708 l 1
 948 792 l 1
 948 868 l 1
 868 952 l 1
 704 952 l 1
 704 708 l 1
704 1318 m 1
 704 1072 l 1
 860 1072 l 1
 952 1160 l 1
 952 1232 l 1
 866 1318 l 1
 704 1318 l 1
EndSplineSet
Validated: 1
EndChar

StartChar: box6
Encoding: 1114141 -1 213
Width: 1080
VWidth: 0
Flags: HW
HStem: -146 120<122 950> 96 120<440 636> 344 120<354 390> 466 120<560 632> 1074 122<122 950>
VStem: 0 122<-26 1074> 234 120<302 344 464 744> 722 120<306 380> 950 122<-26 1074>
LayerCount: 2
Back
Fore
SplineSet
354 464 m 1
 390 464 l 1
 492 568 l 2
 498 574 514 586 534 586 c 2
 658 586 l 2
 668 586 684 582 698 568 c 2
 822 448 l 2
 830 442 842 424 842 404 c 2
 842 280 l 2
 842 272 838 254 824 240 c 2
 706 116 l 2
 698 108 682 96 662 96 c 2
 414 96 l 2
 404 96 386 100 372 114 c 2
 250 236 l 2
 244 242 234 258 234 278 c 2
 234 768 l 2
 234 778 236 796 250 810 c 2
 370 934 l 1
 458 852 l 1
 354 744 l 1
 354 464 l 1
354 344 m 1
 354 302 l 1
 440 216 l 1
 636 216 l 1
 722 306 l 1
 722 380 l 1
 632 466 l 1
 560 466 l 1
 456 362 l 2
 442 348 424 344 414 344 c 2
 354 344 l 1
122 1074 m 1
 122 -26 l 1
 950 -26 l 1
 950 1074 l 1
 122 1074 l 1
0 1196 m 1
 1072 1196 l 1
 1072 -146 l 1
 0 -146 l 1
 0 1196 l 1
EndSplineSet
Validated: 1
EndChar

StartChar: plusminus
Encoding: 177 177 214
Width: 1080
VWidth: 0
Flags: HW
HStem: 218 124<108 962> 830 122<108 474 596 962> 1278 40G<474 596>
VStem: 474 122<462 830 952 1318>
LayerCount: 2
Back
Fore
SplineSet
474 1318 m 1
 596 1318 l 1
 596 952 l 1
 962 952 l 1
 962 830 l 1
 596 830 l 1
 596 462 l 1
 474 462 l 1
 474 830 l 1
 108 830 l 1
 108 952 l 1
 474 952 l 1
 474 1318 l 1
108 342 m 1
 962 342 l 1
 962 218 l 1
 108 218 l 1
 108 342 l 1
EndSplineSet
Validated: 1
EndChar

StartChar: Eth
Encoding: 208 208 215
Width: 1080
VWidth: 0
Flags: HW
HStem: 98 122<108 230 352 634> 596 108<110 230 352 598> 1076 118<108 230 352 634>
VStem: 230 122<220 596 704 1076> 840 120<426 866>
DStem2: 702 1176 634 1076 0.701239 -0.712926<23.6084 317.778> 634 220 700 118 0.710035 0.704167<0 291.326>
LayerCount: 2
Back
Fore
SplineSet
230 1076 m 1
 108 1076 l 1
 108 1194 l 1
 660 1194 l 2
 680 1194 696 1184 702 1176 c 2
 942 932 l 2
 956 918 960 900 960 890 c 2
 960 402 l 2
 960 382 950 366 942 358 c 2
 700 118 l 2
 686 104 668 98 658 98 c 2
 108 98 l 1
 108 218 l 1
 230 218 l 1
 230 596 l 1
 110 596 l 1
 110 704 l 1
 230 704 l 1
 230 1076 l 1
352 220 m 1
 634 220 l 1
 840 426 l 1
 840 866 l 1
 634 1076 l 1
 352 1076 l 1
 352 704 l 1
 598 704 l 1
 598 596 l 1
 352 596 l 1
 352 220 l 1
EndSplineSet
Validated: 1
EndChar

StartChar: rightarrow
Encoding: 1114142 -1 216
Width: 1080
VWidth: 0
Flags: HW
HStem: 586 122<0 610> 912 40G<610 657>
LayerCount: 2
Back
Fore
SplineSet
610 952 m 1
 972 646 l 1
 610 342 l 1
 610 586 l 1
 0 586 l 1
 0 708 l 1
 610 708 l 1
 610 952 l 1
EndSplineSet
Validated: 1
EndChar

StartChar: Thorn
Encoding: 222 222 217
Width: 1080
VWidth: 0
Flags: HW
HStem: 100 42G<110 226> 282 120<226 632> 894 120<226 634> 1154 40G<110 226>
VStem: 110 116<100 282 402 894 1014 1194> 840 120<612 686>
DStem2: 632 402 700 300 0.707107 0.707107<0 295.57> 700 996 634 894 0.710011 -0.704191<24.9668 317.7>
LayerCount: 2
Back
Fore
SplineSet
110 1194 m 1
 226 1194 l 1
 226 1014 l 1
 658 1014 l 2
 678 1014 694 1002 700 996 c 2
 944 754 l 2
 958 740 960 720 960 710 c 2
 960 586 l 2
 960 566 950 550 944 544 c 2
 700 300 l 2
 686 286 668 282 658 282 c 2
 226 282 l 1
 226 100 l 1
 110 100 l 1
 110 1194 l 1
226 894 m 1
 226 402 l 1
 632 402 l 1
 840 612 l 1
 840 686 l 1
 634 894 l 1
 226 894 l 1
EndSplineSet
Validated: 1
EndChar

StartChar: upshift
Encoding: 1114143 -1 218
Width: 1080
VWidth: 0
Flags: HW
HStem: -22 120<468 598> 630 120<280 348 718 784>
VStem: 348 120<98 630> 598 120<98 630>
DStem2: 36 630 280 750 0.610186 0.792258<243.956 657.584> 532 1274 532 1078 0.608638 -0.793448<155.516 569.144>
LayerCount: 2
Back
Fore
SplineSet
348 -22 m 1
 348 630 l 1
 36 630 l 1
 532 1274 l 1
 1026 630 l 1
 718 630 l 1
 718 -22 l 1
 348 -22 l 1
468 98 m 1
 598 98 l 1
 598 750 l 1
 784 750 l 1
 532 1078 l 1
 280 750 l 1
 468 750 l 1
 468 98 l 1
EndSplineSet
Validated: 1
EndChar

StartChar: human
Encoding: 1114144 -1 219
Width: 1080
VWidth: 0
Flags: HW
HStem: 708 122<108 474 596 962> 1204 120<479 593>
VStem: 354 120<1076 1199> 474 122<490 708 830 983> 598 120<1076 1199>
DStem2: 132 208 208 114 0.771539 0.636182<0 423.4> 596 490 534 386 0.768585 -0.639747<18.8814 450.178>
LayerCount: 2
Back
Fore
SplineSet
208 114 m 1xd8
 132 208 l 1
 474 490 l 1
 474 708 l 1
 108 708 l 1
 108 830 l 1
 474 830 l 1
 474 962 l 1xd8
 400 988 354 1060 354 1136 c 0xe8
 354 1242 440 1324 536 1324 c 0
 644 1324 718 1232 718 1136 c 0
 718 1052 664 986 594 962 c 1
 596 830 l 1
 962 830 l 1
 962 708 l 1
 596 708 l 1
 596 490 l 1
 942 202 l 1
 866 110 l 1
 534 386 l 1
 208 114 l 1xd8
474 1136 m 0xe8
 474 1100 502 1072 536 1072 c 0
 566 1072 598 1096 598 1136 c 0
 598 1172 570 1204 536 1204 c 0
 506 1204 474 1176 474 1136 c 0xe8
EndSplineSet
Validated: 1
EndChar

StartChar: underB
Encoding: 1114145 -1 220
Width: 1080
VWidth: 0
Flags: HW
HStem: 342 120<0 1072> 588 120<234 354 476 638> 954 118<476 634> 1318 120<234 354 476 638>
VStem: 354 122<708 954 1072 1318> 722 120<794 868 1160 1232>
LayerCount: 2
Back
Fore
SplineSet
234 1318 m 1
 234 1438 l 1
 662 1438 l 2
 682 1438 700 1426 706 1420 c 2
 828 1300 l 2
 842 1286 844 1266 844 1256 c 2
 844 1136 l 2
 844 1116 834 1098 826 1092 c 2
 748 1016 l 1
 826 932 l 2
 840 918 842 900 842 892 c 2
 842 768 l 2
 842 748 830 732 824 726 c 2
 706 606 l 2
 692 592 672 588 662 588 c 2
 234 588 l 1
 234 708 l 1
 354 708 l 1
 354 1318 l 1
 234 1318 l 1
476 708 m 1
 638 708 l 1
 722 794 l 1
 722 868 l 1
 642 954 l 1
 476 954 l 1
 476 708 l 1
476 1318 m 1
 476 1072 l 1
 634 1072 l 1
 724 1160 l 1
 724 1232 l 1
 638 1318 l 1
 476 1318 l 1
0 462 m 1
 1072 462 l 1
 1072 342 l 1
 0 342 l 1
 0 462 l 1
EndSplineSet
Validated: 1
EndChar

StartChar: downshift
Encoding: 1114146 -1 221
Width: 1080
VWidth: 0
Flags: HW
HStem: 20 196<438 634> 544 120<284 352 724 788> 1196 120<472 604>
VStem: 352 120<664 1196> 604 120<664 1196>
DStem2: 284 544 40 664 0.610186 -0.792258<0 413.628> 536 216 536 20 0.610186 0.792258<0 413.628>
LayerCount: 2
Back
Fore
SplineSet
352 1316 m 1
 724 1316 l 1
 724 664 l 1
 1032 664 l 1
 536 20 l 1
 40 664 l 1
 352 664 l 1
 352 1316 l 1
472 1196 m 1
 472 544 l 1
 284 544 l 1
 536 216 l 1
 788 544 l 1
 604 544 l 1
 604 1196 l 1
 472 1196 l 1
EndSplineSet
Validated: 1
EndChar

StartChar: boxquestion
Encoding: 1114147 -1 222
Width: 1080
VWidth: 0
Flags: HW
HStem: -146 120<122 950> 98 120<484 606> 1076 120<448 646> 1318 122<122 950>
VStem: 0 122<-26 1318> 240 120<830 988> 486 120<98 218 344 502> 732 120<798 986> 950 122<-26 1318>
DStem2: 504 568 606 502 0.704012 0.710188<24.9368 323.858>
LayerCount: 2
Back
Fore
SplineSet
360 830 m 1
 240 830 l 1
 240 1014 l 2
 240 1034 250 1050 258 1056 c 2
 382 1178 l 2
 396 1192 414 1196 424 1196 c 2
 672 1196 l 2
 692 1196 706 1184 714 1176 c 2
 834 1052 l 2
 848 1038 852 1022 852 1012 c 2
 852 772 l 2
 852 752 840 736 834 730 c 2
 606 502 l 1
 606 344 l 1
 486 344 l 1
 486 526 l 2
 486 536 490 554 504 568 c 2
 732 798 l 1
 732 986 l 1
 646 1076 l 1
 448 1076 l 1
 360 988 l 1
 360 830 l 1
484 218 m 1
 606 218 l 1
 606 98 l 1
 484 98 l 1
 484 218 l 1
122 1318 m 1
 122 -26 l 1
 950 -26 l 1
 950 1318 l 1
 122 1318 l 1
0 1440 m 1
 1072 1440 l 1
 1072 -146 l 1
 0 -146 l 1
 0 1440 l 1
EndSplineSet
Validated: 1
EndChar

StartChar: boxsolid
Encoding: 1114148 -1 223
Width: 1080
VWidth: 0
Flags: HW
VStem: 0 1072<-146 1440>
LayerCount: 2
Back
Fore
SplineSet
0 1440 m 1
 1072 1440 l 1
 1072 -146 l 1
 0 -146 l 1
 0 1440 l 1
EndSplineSet
Validated: 1
EndChar

StartChar: badcommhi
Encoding: 1114165 -1 240
Width: 1080
VWidth: 0
Flags: HW
HStem: -60 366<704 1070> 586 124<0 298 782 1070> 1014 364<0 364>
DStem2: 0 1378 0 1014 0.706447 -0.707765<257.626 683.308 864.321 947.519 1112.99 1514.62>
LayerCount: 2
Back
Fore
SplineSet
0 1378 m 1
 672 710 l 1
 1070 710 l 1
 1070 588 l 1
 782 586 l 1
 1070 306 l 1
 1072 -60 l 1
 430 586 l 1
 0 586 l 1
 0 710 l 1
 298 710 l 1
 0 1014 l 1
 0 1378 l 1
EndSplineSet
Validated: 1
EndChar

StartChar: commhi
Encoding: 1114166 -1 241
Width: 1080
VWidth: 0
Flags: HW
HStem: 586 118<0 1072>
LayerCount: 2
Back
Fore
SplineSet
0 704 m 1
 1072 704 l 1
 1072 586 l 1
 0 586 l 1
 0 704 l 1
EndSplineSet
Validated: 1
EndChar

StartChar: commjag
Encoding: 1114167 -1 242
Width: 1080
VWidth: 0
Flags: HW
HStem: 98 120<332 1072> 590 120<0 528>
DStem2: 44 98 332 218 0.701287 0.712879<287.516 690.16>
LayerCount: 2
Back
Fore
SplineSet
0 590 m 1
 0 710 l 1
 816 710 l 1
 332 218 l 1
 1072 218 l 1
 1072 98 l 1
 44 98 l 1
 528 590 l 1
 0 590 l 1
EndSplineSet
Validated: 1
EndChar

StartChar: commlo
Encoding: 1114168 -1 243
Width: 1080
VWidth: 0
Flags: HW
HStem: 96 124<0 1072>
LayerCount: 2
Back
Fore
SplineSet
0 220 m 1
 1072 220 l 1
 1072 96 l 1
 0 96 l 1
 0 220 l 1
EndSplineSet
Validated: 1
EndChar

StartChar: clockleft
Encoding: 1114169 -1 244
Width: 1080
VWidth: 0
Flags: HW
HStem: -272 132<853 976> -150 132<488 612> 92 132<245 367> 460 132<121 244> 828 132<244 368> 1068 132<490 614> 1188 132<850 974>
VStem: 116 132<464 587> 240 132<96 220 832 956> 484 132<-145 -23 1073 1195> 848 132<-268 -145 8 500 1193 1315>
LayerCount: 2
Back
Fore
SplineSet
846 1254 m 0x3a60
 846 1290 876 1320 912 1320 c 0
 948 1320 978 1290 978 1254 c 0
 978 1218 948 1188 912 1188 c 0
 876 1188 846 1218 846 1254 c 0x3a60
486 1134 m 0
 486 1170 516 1200 552 1200 c 0
 588 1200 618 1170 618 1134 c 0
 618 1098 588 1068 552 1068 c 0x3c60
 516 1068 486 1098 486 1134 c 0
240 894 m 0x38e0
 240 930 270 960 306 960 c 0
 342 960 372 930 372 894 c 0
 372 858 342 828 306 828 c 0
 270 828 240 858 240 894 c 0x38e0
116 524 m 0x3960
 116 562 146 592 184 592 c 0
 220 592 248 562 248 524 c 0
 248 488 220 460 184 460 c 0
 146 460 116 488 116 524 c 0x3960
240 160 m 0x38e0
 240 196 270 224 306 224 c 0
 342 224 372 196 372 160 c 0
 372 122 342 92 306 92 c 0
 270 92 240 122 240 160 c 0x38e0
484 -84 m 0
 484 -48 512 -18 548 -18 c 0
 586 -18 616 -48 616 -84 c 0
 616 -120 586 -150 548 -150 c 0x7860
 512 -150 484 -120 484 -84 c 0
848 -208 m 0
 848 -170 878 -140 916 -140 c 0
 952 -140 980 -170 980 -208 c 0
 980 -244 952 -272 916 -272 c 0xb860
 878 -272 848 -244 848 -208 c 0
1072 770 m 1
 1072 600 l 1
 976 500 l 1
 976 8 l 1
 856 8 l 1
 856 524 l 2
 856 534 858 552 872 568 c 2
 1072 770 l 1
EndSplineSet
Validated: 1
EndChar

StartChar: clockright
Encoding: 1114170 -1 245
Width: 1080
VWidth: 0
Flags: HW
HStem: -28 132<248 371> 216 132<488 612> 582 132<608 732> 622 172<0 172> 952 132<491 613> 1188 132<244 368>
VStem: 244 132<-23 100 1194 1314> 484 132<221 343 956 1079> 604 132<587 709>
DStem2: 0 794 0 622 0.699294 0.714834<0 391.854>
LayerCount: 2
Back
Fore
SplineSet
240 1254 m 0xce
 240 1290 270 1320 306 1320 c 0
 342 1320 372 1290 372 1254 c 0
 372 1218 342 1188 306 1188 c 0
 270 1188 240 1218 240 1254 c 0xce
486 1016 m 0
 486 1052 516 1084 552 1084 c 0
 588 1084 618 1052 618 1016 c 0
 618 980 588 952 552 952 c 0
 516 952 486 980 486 1016 c 0
604 648 m 0xee80
 604 684 632 714 668 714 c 0
 704 714 736 684 736 648 c 0
 736 612 704 582 668 582 c 0
 632 582 604 612 604 648 c 0xee80
484 282 m 0xcf
 484 318 512 348 548 348 c 0
 584 348 616 318 616 282 c 0
 616 246 584 216 548 216 c 0
 512 216 484 246 484 282 c 0xcf
244 40 m 0
 244 76 272 104 308 104 c 0
 344 104 376 76 376 40 c 0
 376 4 344 -28 308 -28 c 0
 272 -28 244 4 244 40 c 0
276 1074 m 1
 360 990 l 1
 0 622 l 1
 0 680 0 736 0 794 c 1xde
 276 1074 l 1
EndSplineSet
Validated: 1
EndChar

StartChar: lock
Encoding: 1114171 -1 246
Width: 1080
VWidth: 0
Flags: HW
DStem2: -4 406 -2 -142 0.705796 0.708415<0 430.62 818.83 1139.14> 0 1560 0 1014 0.705127 -0.709081<387.158 811.756 1200.33 1517.45>
LayerCount: 2
Back
Fore
SplineSet
1074 1488 m 1
 1074 940 l 1
 848 712 l 1
 1072 486 l 1
 1070 -62 l 1
 574 438 l 1
 -2 -142 l 1
 -4 406 l 1
 300 712 l 1
 0 1014 l 1
 0 1560 l 1
 574 986 l 1
 1074 1488 l 1
EndSplineSet
Validated: 1
EndChar

StartChar: leftarrow
Encoding: 1114172 -1 248
Width: 1080
VWidth: 0
Flags: HW
HStem: 586 122<460 1070> 912 40G<413 460>
LayerCount: 2
Back
Fore
SplineSet
460 952 m 1
 460 708 l 1
 1070 708 l 1
 1070 586 l 1
 460 586 l 1
 460 342 l 1
 98 646 l 1
 460 952 l 1
EndSplineSet
Validated: 1
EndChar

StartChar: thorn
Encoding: 254 254 249
Width: 1080
VWidth: 0
Flags: HW
HStem: 96 120<244 526> 828 120<244 528> 1278 40G<120 244>
VStem: 120 124<-268 96 216 828 948 1318> 734 120<426 622>
DStem2: 526 216 592 114 0.704215 0.709987<0 295.574> 596 930 528 828 0.704167 -0.710035<24.5402 315.866>
LayerCount: 2
Back
Fore
SplineSet
120 1318 m 1
 244 1318 l 1
 244 948 l 1
 552 948 l 2
 572 948 590 936 596 930 c 2
 836 688 l 2
 850 674 854 656 854 646 c 2
 854 402 l 2
 854 382 842 366 836 360 c 2
 592 114 l 2
 578 100 560 96 550 96 c 2
 244 96 l 1
 244 -268 l 1
 120 -268 l 1
 120 1318 l 1
244 828 m 1
 244 216 l 1
 526 216 l 1
 734 426 l 1
 734 622 l 1
 528 828 l 1
 244 828 l 1
EndSplineSet
Validated: 1
EndChar

StartChar: keyleft
Encoding: 1114173 -1 250
Width: 1080
VWidth: 0
Flags: HW
HStem: 452 120<554 799> 708 122<987 1072> 980 120<552 799>
VStem: 352 120<652 898> 880 192<709 826>
LayerCount: 2
Back
Fore
SplineSet
472 776 m 0
 472 666 560 572 676 572 c 0
 786 572 880 660 880 776 c 0
 880 886 792 980 676 980 c 0
 566 980 472 892 472 776 c 0
352 776 m 0
 352 960 502 1100 676 1100 c 0
 840 1100 970 980 996 830 c 1
 1072 830 l 1
 1072 708 l 1
 992 708 l 1
 960 558 828 452 676 452 c 0
 492 452 352 602 352 776 c 0
EndSplineSet
Validated: 1
EndChar

StartChar: keyright
Encoding: 1114174 -1 251
Width: 1080
VWidth: 0
Flags: HW
HStem: 464 366<340 706> 708 122<0 340 706 828>
VStem: 340 366<464 708> 828 244<342 710>
LayerCount: 2
Back
Fore
SplineSet
0 830 m 1x70
 1072 830 l 1x70
 1072 342 l 1
 828 342 l 1
 828 710 l 1
 706 710 l 1
 706 464 l 1
 340 464 l 1xb0
 340 708 l 1
 0 708 l 1
 0 830 l 1x70
EndSplineSet
Validated: 1
EndChar

StartChar: box4
Encoding: 1114175 -1 252
Width: 1080
VWidth: 0
Flags: HW
HStem: -148 122<118 954> 98 42G<602 722> 342 120<354 602 722 842> 910 40G<649 673> 1076 116<118 954>
VStem: 0 118<-26 1076> 234 120<462 498> 602 120<98 342 462 746> 954 118<-26 1076>
DStem2: 618 934 602 746 0.705177 0.709031<-495.304 -144.581>
LayerCount: 2
Back
Fore
SplineSet
722 462 m 5
 842 462 l 5
 842 342 l 5
 722 342 l 5
 722 98 l 5
 602 98 l 5
 602 342 l 5
 294 342 l 6
 272 342 234 360 234 402 c 6
 234 522 l 6
 234 532 238 550 252 566 c 6
 618 934 l 6
 620 934 636 950 662 950 c 4
 684 950 722 934 722 890 c 6
 722 462 l 5
602 462 m 5
 602 746 l 5
 354 498 l 5
 354 462 l 5
 602 462 l 5
118 1076 m 1
 118 -26 l 1
 954 -26 l 1
 954 1076 l 1
 118 1076 l 1
0 1192 m 1
 1072 1192 l 1
 1072 -148 l 1
 0 -148 l 1
 0 1192 l 1
EndSplineSet
Validated: 1
EndChar

StartChar: underA
Encoding: 1114176 -1 253
Width: 1080
VWidth: 0
Flags: HW
HStem: 344 116<0 1072> 836 120<366 732>
VStem: 244 122<594 836 956 1120> 732 120<592 836 956 1116>
DStem2: 266 1188 368 1120 0.715853 0.698251<25.536 280.11> 594 1426 550 1298 0.707107 -0.707107<59.397 316.784>
LayerCount: 2
Back
Fore
SplineSet
0 460 m 1
 1072 460 l 1
 1072 344 l 1
 0 344 l 1
 0 460 l 1
364 592 m 1
 244 594 l 1
 248 1146 l 2
 248 1166 260 1180 266 1188 c 2
 510 1426 l 2
 522 1438 536 1442 550 1442 c 0
 568 1442 584 1436 594 1426 c 2
 836 1184 l 2
 850 1168 852 1150 852 1140 c 2
 852 592 l 1
 732 592 l 1
 732 836 l 1
 366 836 l 1
 364 592 l 1
366 956 m 1
 732 956 l 1
 732 1116 l 1
 550 1298 l 1
 368 1120 l 1
 366 956 l 1
EndSplineSet
Validated: 1
EndChar

StartChar: magcard
Encoding: 1114177 -1 254
Width: 1080
VWidth: 0
Flags: HW
HStem: 216 132<120 960> 464 124<120 952> 948 128<120 952>
VStem: 0 120<348 464 588 948> 952 120<348 464 588 948>
LayerCount: 2
Back
Fore
SplineSet
120 464 m 1
 120 348 l 1
 960 348 l 1
 960 464 l 1
 120 464 l 1
120 948 m 1
 120 588 l 1
 952 588 l 1
 952 948 l 1
 120 948 l 1
0 1076 m 1
 1072 1076 l 1
 1072 216 l 1
 0 216 l 1
 0 1076 l 1
EndSplineSet
Validated: 1
EndChar

StartChar: boxhuman
Encoding: 1114178 -1 255
Width: 1080
VWidth: 0
Flags: HW
HStem: -140 108<196 872> 588 122<124 476 598 956> 1084 120<481 595> 1320 120<124 956>
VStem: 0 124<64 588 710 1320> 356 120<956 1079> 476 122<370 588 710 863> 600 120<956 1079> 956 116<54 588 710 1320>
DStem2: 124 64 196 -32 0.754698 0.656073<0 443.462> 598 370 536 266 0.749716 -0.66176<22.3406 471.45>
LayerCount: 2
Back
Fore
SplineSet
476 1016 m 0xfd80
 476 980 504 952 538 952 c 0
 568 952 600 976 600 1016 c 0
 600 1052 572 1084 538 1084 c 0
 508 1084 476 1056 476 1016 c 0xfd80
0 1440 m 1
 1072 1440 l 1
 1072 -140 l 1
 0 -140 l 1
 0 1440 l 1
956 54 m 1
 956 588 l 1
 598 588 l 1
 598 370 l 1xfb80
 956 54 l 1
956 710 m 1
 956 1320 l 1
 124 1320 l 1
 124 710 l 1
 476 710 l 1
 476 842 l 1xfb80
 402 868 356 940 356 1016 c 0xfd80
 356 1122 442 1204 538 1204 c 0
 646 1204 720 1112 720 1016 c 0
 720 932 666 866 596 842 c 1
 598 710 l 1
 956 710 l 1
196 -32 m 1
 872 -32 l 1
 536 266 l 1
 196 -32 l 1
124 588 m 1
 124 64 l 1
 476 370 l 1
 476 588 l 1
 124 588 l 1
EndSplineSet
Validated: 1
EndChar

StartChar: apl_bracketright
Encoding: 1114180 -1 257
Width: 1080
VWidth: 0
Flags: HW
HStem: -26 124<368 610> 1196 122<368 610>
VStem: 368 364<-26 98 1196 1318> 610 122<98 1196>
LayerCount: 2
Back
Fore
SplineSet
368 1318 m 1xe0
 732 1318 l 1
 732 -26 l 1
 368 -26 l 1
 368 98 l 1xe0
 610 98 l 1
 610 1196 l 1xd0
 368 1196 l 1
 368 1318 l 1xe0
EndSplineSet
Validated: 1
EndChar

StartChar: apl_bracketleft
Encoding: 1114181 -1 258
Width: 1080
VWidth: 0
Flags: HW
HStem: -26 124<488 732> 1196 122<488 732>
VStem: 368 364<-26 98 1196 1318> 368 120<98 1196>
LayerCount: 2
Back
Fore
SplineSet
368 1318 m 1xe0
 732 1318 l 1
 732 1196 l 1xe0
 488 1196 l 1
 488 98 l 1xd0
 732 98 l 1
 732 -26 l 1
 368 -26 l 1
 368 1318 l 1xe0
EndSplineSet
Validated: 1
EndChar

StartChar: apl_stile
Encoding: 1114182 -1 259
Width: 1080
VWidth: 0
Flags: HW
VStem: 488 122<-400 1600>
LayerCount: 2
Back
Fore
SplineSet
488 1600 m 1
 610 1600 l 1
 610 -400 l 1
 488 -400 l 1
 488 1600 l 1
EndSplineSet
Validated: 1
EndChar

StartChar: apl_2vertical
Encoding: 1114183 -1 260
Width: 1080
VWidth: 0
Flags: HW
VStem: 184 120<-398 1602> 792 124<-398 1602>
LayerCount: 2
Back
Fore
SplineSet
792 1602 m 1
 916 1602 l 1
 916 -398 l 1
 792 -398 l 1
 792 1602 l 1
184 1602 m 1
 304 1602 l 1
 304 -398 l 1
 184 -398 l 1
 184 1602 l 1
EndSplineSet
Validated: 1
EndChar

StartChar: apl_2horizontal
Encoding: 1114184 -1 261
Width: 1080
VWidth: 0
Flags: HW
HStem: -208 122<0 1072> 1258 120<0 1072>
LayerCount: 2
Back
Fore
SplineSet
0 -86 m 1
 1072 -86 l 1
 1072 -208 l 1
 0 -208 l 1
 0 -86 l 1
0 1378 m 1
 1072 1378 l 1
 1072 1258 l 1
 0 1258 l 1
 0 1378 l 1
EndSplineSet
Validated: 1
EndChar

StartChar: apl_leftvbar
Encoding: 1114185 -1 262
Width: 1080
VWidth: 0
Flags: HW
VStem: 184 120<-398 1602>
LayerCount: 2
Back
Fore
SplineSet
184 1602 m 1
 304 1602 l 1
 304 -398 l 1
 184 -398 l 1
 184 1602 l 1
EndSplineSet
Validated: 1
EndChar

StartChar: apl_rightvbar
Encoding: 1114186 -1 263
Width: 1080
VWidth: 0
Flags: HW
VStem: 792 124<-398 1602>
LayerCount: 2
Back
Fore
SplineSet
792 1602 m 1
 916 1602 l 1
 916 -398 l 1
 792 -398 l 1
 792 1602 l 1
EndSplineSet
Validated: 1
EndChar

StartChar: apl_midvbar
Encoding: 1114187 -1 264
Width: 1080
VWidth: 0
Flags: HW
VStem: 488 122<-398 1602>
LayerCount: 2
Back
Fore
SplineSet
488 1602 m 1
 610 1602 l 1
 610 -398 l 1
 488 -398 l 1
 488 1602 l 1
EndSplineSet
Validated: 1
EndChar

StartChar: apl_leftsolid
Encoding: 1114188 -1 265
Width: 1080
VWidth: 0
Flags: HW
VStem: 0 550<-398 1602>
LayerCount: 2
Back
Fore
SplineSet
0 1602 m 1
 550 1602 l 1
 550 -398 l 1
 0 -398 l 1
 0 1602 l 1
EndSplineSet
Validated: 1
EndChar

StartChar: apl_rightsolid
Encoding: 1114189 -1 266
Width: 1080
VWidth: 0
Flags: HW
VStem: 552 520<-400 1602>
LayerCount: 2
Back
Fore
SplineSet
552 1602 m 1
 1072 1602 l 1
 1072 -400 l 1
 552 -400 l 1
 552 1602 l 1
EndSplineSet
Validated: 1
EndChar

StartChar: apl_topsolid
Encoding: 1114190 -1 267
Width: 1080
VWidth: 0
Flags: HW
HStem: 586 1014<0 1072>
VStem: 0 1072<586 1600>
LayerCount: 2
Back
Fore
SplineSet
0 1600 m 1
 1072 1600 l 1
 1072 586 l 1
 0 586 l 1
 0 1600 l 1
EndSplineSet
Validated: 1
EndChar

StartChar: apl_bottomsolid
Encoding: 1114191 -1 268
Width: 1080
VWidth: 0
Flags: HW
HStem: -400 986<0 1072>
VStem: 0 1072<-400 586>
LayerCount: 2
Back
Fore
SplineSet
0 586 m 1
 1072 586 l 1
 1072 -400 l 1
 0 -400 l 1
 0 586 l 1
EndSplineSet
Validated: 1
EndChar

StartChar: apl_solid
Encoding: 1114192 -1 269
Width: 1080
VWidth: 0
Flags: HW
VStem: 0 1072<-390 1562>
LayerCount: 2
Back
Fore
SplineSet
0 1562 m 1
 1072 1562 l 1
 1072 -390 l 1
 0 -390 l 1
 0 1562 l 1
EndSplineSet
Validated: 1
EndChar

StartChar: apl_midhbar
Encoding: 1114193 -1 270
Width: 1080
VWidth: 0
Flags: HW
HStem: 586 122<0 1070>
LayerCount: 2
Back
Fore
SplineSet
0 708 m 1
 1070 708 l 1
 1070 586 l 1
 0 586 l 1
 0 708 l 1
EndSplineSet
Validated: 1
EndChar

StartChar: apl_lowerleft
Encoding: 1114194 -1 271
Width: 1080
VWidth: 0
Flags: HW
HStem: 588 120<690 1070>
VStem: 484 120<792 1560>
LayerCount: 2
Back
Fore
SplineSet
484 1560 m 1
 604 1560 l 1
 604 792 l 1
 690 708 l 1
 1070 708 l 1
 1070 588 l 1
 664 588 l 0
 650 588 634 594 622 606 c 0
 502 726 l 0
 492 736 484 752 484 768 c 0
 484 1560 l 1
EndSplineSet
Validated: 1
EndChar

StartChar: apl_upperleft
Encoding: 1114195 -1 272
Width: 1080
VWidth: 0
Flags: HW
HStem: 588 120<690 1070>
VStem: 484 120<-264 504>
LayerCount: 2
Back
Fore
SplineSet
484 -264 m 1
 484 528 l 0
 484 544 492 560 502 570 c 0
 622 690 l 0
 634 702 650 708 664 708 c 0
 1070 708 l 1
 1070 588 l 1
 690 588 l 1
 604 504 l 1
 604 -264 l 1
 484 -264 l 1
EndSplineSet
Validated: 1
EndChar

StartChar: apl_leftjoin
Encoding: 1114196 -1 273
Width: 1080
VWidth: 0
Flags: HW
HStem: 586 122<610 1070>
VStem: 488 122<-398 586 708 1602>
LayerCount: 2
Back
Fore
SplineSet
488 1602 m 1
 610 1602 l 1
 610 708 l 1
 1070 708 l 1
 1070 586 l 1
 610 586 l 1
 610 -398 l 1
 488 -398 l 1
 488 1602 l 1
EndSplineSet
Validated: 1
EndChar

StartChar: apl_bottomjoin
Encoding: 1114197 -1 274
Width: 1080
VWidth: 0
Flags: HW
HStem: 586 122<0 488 610 1068>
VStem: 488 122<708 1602>
LayerCount: 2
Back
Fore
SplineSet
488 1602 m 1
 610 1602 l 1
 610 708 l 1
 1068 708 l 1
 1068 586 l 1
 0 586 l 1
 0 708 l 1
 488 708 l 1
 488 1602 l 1
EndSplineSet
Validated: 1
EndChar

StartChar: apl_intersect
Encoding: 1114198 -1 275
Width: 1080
VWidth: 0
Flags: HW
HStem: 586 122<0 488 610 1070>
VStem: 488 122<-396 586 708 1602>
LayerCount: 2
Back
Fore
SplineSet
488 1602 m 1
 610 1602 l 1
 610 708 l 1
 1070 708 l 1
 1070 586 l 1
 610 586 l 1
 610 -396 l 1
 488 -396 l 1
 488 586 l 1
 0 586 l 1
 0 708 l 1
 488 708 l 1
 488 1602 l 1
EndSplineSet
Validated: 1
EndChar

StartChar: apl_lowerright
Encoding: 1114199 -1 276
Width: 1080
VWidth: 0
Flags: HW
HStem: 588 120<18 398>
VStem: 484 120<792 1560>
LayerCount: 2
Back
Fore
SplineSet
604 1560 m 1
 604 768 l 0
 604 752 596 736 586 726 c 0
 466 606 l 0
 454 594 438 588 424 588 c 0
 18 588 l 1
 18 708 l 1
 398 708 l 1
 484 792 l 1
 484 1560 l 1
 604 1560 l 1
EndSplineSet
Validated: 1
EndChar

StartChar: apl_rightjoin
Encoding: 1114201 -1 278
Width: 1080
VWidth: 0
Flags: HW
HStem: 586 122<0 488>
VStem: 488 122<-398 586 708 1602>
LayerCount: 2
Back
Fore
SplineSet
488 1602 m 1
 610 1602 l 1
 610 -398 l 1
 488 -398 l 1
 488 586 l 1
 0 586 l 1
 0 708 l 1
 488 708 l 1
 488 1602 l 1
EndSplineSet
Validated: 1
EndChar

StartChar: apl_topjoin
Encoding: 1114202 -1 279
Width: 1080
VWidth: 0
Flags: HW
HStem: 586 122<0 488 610 1070>
VStem: 488 122<-396 586>
LayerCount: 2
Back
Fore
SplineSet
0 708 m 1
 1070 708 l 1
 1070 586 l 1
 610 586 l 1
 610 -396 l 1
 488 -396 l 1
 488 586 l 1
 0 586 l 1
 0 708 l 1
EndSplineSet
Validated: 1
EndChar

StartChar: dec_solid
Encoding: 1114203 -1 280
Width: 1080
VWidth: 0
Flags: HW
VStem: 304 488<-398 1602>
LayerCount: 2
Back
Fore
SplineSet
304 1602 m 1
 792 1602 l 1
 792 -398 l 1
 304 -398 l 1
 304 1602 l 1
EndSplineSet
Validated: 1
EndChar

StartChar: dec_filled_circle
Encoding: 1114204 -1 281
Width: 1080
VWidth: 0
Flags: HW
HStem: 406 480<425 680>
VStem: 324 456<507 786>
LayerCount: 2
Back
Fore
SplineSet
324 646 m 0
 324 780 428 886 552 886 c 0
 678 886 780 780 780 646 c 0
 780 514 678 406 552 406 c 0
 428 406 324 514 324 646 c 0
EndSplineSet
Validated: 1
EndChar

StartChar: dec_ht
Encoding: 1114206 -1 283
Width: 1080
VWidth: 0
Flags: HW
HStem: 524 122<488 610 732 856> 1014 120<304 428>
VStem: 184 120<770 1014 1134 1378> 428 120<770 1014 1134 1378> 610 122<38 524>
LayerCount: 2
Back
Fore
SplineSet
184 1378 m 1
 304 1378 l 1
 304 1134 l 1
 428 1134 l 1
 428 1378 l 1
 548 1378 l 1
 548 770 l 1
 428 770 l 1
 428 1014 l 1
 304 1014 l 1
 304 770 l 1
 184 770 l 1
 184 1378 l 1
488 646 m 1
 856 646 l 1
 856 524 l 1
 732 524 l 1
 732 38 l 1
 610 38 l 1
 610 524 l 1
 488 526 l 1
 488 646 l 1
EndSplineSet
Validated: 1
EndChar

StartChar: dec_ff
Encoding: 1114207 -1 284
Width: 1080
VWidth: 0
Flags: HW
HStem: 286 122<608 792> 532 120<608 852> 1012 122<304 488> 1258 120<304 548>
VStem: 184 120<770 1012 1134 1258> 488 120<44 286 408 532>
LayerCount: 2
Back
Fore
SplineSet
488 652 m 1
 852 652 l 1
 852 532 l 1
 608 532 l 1
 608 408 l 1
 792 408 l 1
 792 286 l 1
 608 286 l 1
 608 44 l 1
 488 44 l 1
 488 652 l 1
184 1378 m 1
 548 1378 l 1
 548 1258 l 1
 304 1258 l 1
 304 1134 l 1
 488 1134 l 1
 488 1012 l 1
 304 1012 l 1
 304 770 l 1
 184 770 l 1
 184 1378 l 1
EndSplineSet
Validated: 1
EndChar

StartChar: dec_cr
Encoding: 1114208 -1 285
Width: 1080
VWidth: 0
Flags: HW
HStem: 524 120<610 710> 772 180<426 499> 772 120<324 408> 1256 120<320 404>
VStem: 184 120<916 1240> 426 120<912 952 1196 1234> 490 120<36 284 402 524> 732 120<36 86 486 502>
DStem2: 746 328 636 284 0.443661 -0.896195<0 210.668>
LayerCount: 2
Back
Fore
SplineSet
548 1196 m 1xbd
 428 1196 l 1
 428 1234 l 1
 404 1256 l 1
 320 1256 l 1
 304 1240 l 1
 304 916 l 1
 324 892 l 1
 408 892 l 1xbd
 426 912 l 1
 426 952 l 1
 546 952 l 1
 546 890 l 2
 546 880 542 864 530 850 c 2
 478 792 l 2
 470 784 456 772 434 772 c 2xdd
 298 772 l 2
 286 772 268 776 254 792 c 2
 200 852 l 2
 192 860 184 874 184 892 c 2
 184 1264 l 2
 184 1274 188 1292 202 1306 c 2
 254 1358 l 2
 260 1364 276 1376 296 1376 c 2
 428 1376 l 2
 436 1376 454 1374 468 1360 c 2
 528 1304 l 2
 536 1296 548 1280 548 1258 c 2
 548 1196 l 1xbd
490 36 m 1x9b
 490 644 l 1
 736 644 l 2
 756 644 770 634 778 626 c 2
 836 566 l 2
 850 552 852 532 852 524 c 2
 852 462 l 2
 852 442 842 426 836 420 c 2
 746 328 l 1
 846 126 l 2
 852 116 852 106 852 100 c 2
 852 36 l 1
 732 36 l 1
 732 86 l 1
 636 284 l 1
 610 284 l 1
 610 36 l 1
 490 36 l 1x9b
610 402 m 1
 650 402 l 1
 732 486 l 1
 732 502 l 1
 710 526 l 1
 610 524 l 1
 610 402 l 1
EndSplineSet
Validated: 1
EndChar

StartChar: dec_lf
Encoding: 1114209 -1 286
Width: 1080
VWidth: 0
Flags: HW
HStem: 286 122<608 792> 532 120<608 852> 770 120<304 548>
VStem: 184 120<890 1378> 488 120<44 286 408 532>
LayerCount: 2
Back
Fore
SplineSet
488 652 m 1
 852 652 l 1
 852 532 l 1
 608 532 l 1
 608 408 l 1
 792 408 l 1
 792 286 l 1
 608 286 l 1
 608 44 l 1
 488 44 l 1
 488 652 l 1
184 1378 m 1
 304 1378 l 1
 304 890 l 1
 548 890 l 1
 548 770 l 1
 184 770 l 1
 184 1378 l 1
EndSplineSet
Validated: 1
EndChar

StartChar: dec_degree
Encoding: 1114210 -1 287
Width: 1080
VWidth: 0
Flags: HW
HStem: 840 100<388 583> 1208 100<388 583>
VStem: 252 100<977 1172> 620 100<978 1171>
LayerCount: 2
Back
Fore
SplineSet
352 1074 m 0
 352 1000 412 940 484 940 c 0
 558 940 620 1000 620 1074 c 0
 620 1148 558 1208 484 1208 c 0
 412 1208 352 1148 352 1074 c 0
252 1074 m 0
 252 1204 356 1308 484 1308 c 0
 614 1308 720 1204 720 1074 c 0
 720 946 614 840 484 840 c 0
 356 840 252 946 252 1074 c 0
EndSplineSet
Validated: 1
EndChar

StartChar: dec_plusminus
Encoding: 1114211 -1 288
Width: 1080
VWidth: 0
Flags: HW
HStem: 218 124<122 976> 830 122<122 488 610 976> 1278 40G<488 610>
VStem: 488 122<462 830 952 1318>
LayerCount: 2
Back
Fore
SplineSet
488 1318 m 1
 610 1318 l 1
 610 952 l 1
 976 952 l 1
 976 830 l 1
 610 830 l 1
 610 462 l 1
 488 462 l 1
 488 830 l 1
 122 830 l 1
 122 952 l 1
 488 952 l 1
 488 1318 l 1
122 342 m 1
 976 342 l 1
 976 218 l 1
 122 218 l 1
 122 342 l 1
EndSplineSet
Validated: 1
EndChar

StartChar: dec_nl
Encoding: 1114212 -1 289
Width: 1080
VWidth: 0
Flags: HW
HStem: 38 120<610 856>
VStem: 184 120<770 1074> 488 122<158 646 1074 1378>
LayerCount: 2
Back
Fore
SplineSet
184 1378 m 1
 304 1378 l 1
 488 1074 l 1
 488 1378 l 1
 610 1378 l 1
 610 770 l 1
 492 772 l 1
 304 1074 l 1
 304 770 l 1
 184 770 l 1
 184 1378 l 1
488 646 m 1
 610 646 l 1
 610 158 l 1
 856 158 l 1
 856 38 l 1
 488 38 l 1
 488 646 l 1
EndSplineSet
Validated: 1
EndChar

StartChar: dec_vt
Encoding: 1114213 -1 290
Width: 1080
VWidth: 0
Flags: HW
HStem: 524 122<488 610 732 856>
VStem: 182 120<1034 1380> 488 120<1034 1380> 610 122<38 524>
LayerCount: 2
Back
Fore
SplineSet
182 1380 m 1
 302 1380 l 1
 302 1034 l 1
 396 924 l 1
 488 1034 l 1
 488 1380 l 1
 608 1380 l 1
 608 1012 l 2
 608 1002 606 988 594 974 c 2
 440 792 l 1
 440 792 446 796 434 786 c 0
 424 778 410 770 394 770 c 0
 378 770 362 776 350 792 c 2
 196 974 l 2
 190 980 182 994 182 1012 c 2
 182 1380 l 1
488 646 m 1
 856 646 l 1
 856 524 l 1
 732 524 l 1
 732 38 l 1
 610 38 l 1
 610 524 l 1
 488 526 l 1
 488 646 l 1
EndSplineSet
Validated: 1
EndChar

StartChar: dec_lowerright
Encoding: 1114214 -1 291
Width: 1080
VWidth: 0
Flags: HW
HStem: 588 120<26 406>
VStem: 492 120<792 1560>
LayerCount: 2
Back
Fore
SplineSet
612 1560 m 1
 612 768 l 0
 612 752 604 736 594 726 c 0
 474 606 l 0
 462 594 446 588 432 588 c 0
 26 588 l 1
 26 708 l 1
 406 708 l 1
 492 792 l 1
 492 1560 l 1
 612 1560 l 1
EndSplineSet
Validated: 1
EndChar

StartChar: dec_intersect
Encoding: 1114218 -1 295
Width: 1080
VWidth: 0
Flags: HW
HStem: 586 122<0 488 610 1072>
VStem: 488 122<-400 586 708 1600>
LayerCount: 2
Back
Fore
SplineSet
488 1600 m 1
 610 1600 l 1
 610 708 l 1
 1072 708 l 1
 1072 586 l 1
 610 586 l 1
 610 -400 l 1
 488 -400 l 1
 488 586 l 1
 0 586 l 1
 0 708 l 1
 488 708 l 1
 488 1600 l 1
EndSplineSet
Validated: 1
EndChar

StartChar: dec_hbar1
Encoding: 1114219 -1 296
Width: 1080
VWidth: 0
Flags: HW
HStem: 1318 122<0 1072>
LayerCount: 2
Back
Fore
SplineSet
0 1440 m 1
 1072 1440 l 1
 1072 1318 l 1
 0 1318 l 1
 0 1440 l 1
EndSplineSet
Validated: 1
EndChar

StartChar: dec_hbar2
Encoding: 1114220 -1 297
Width: 1080
VWidth: 0
Flags: HW
HStem: 952 122<0 1072>
LayerCount: 2
Back
Fore
SplineSet
0 1074 m 1
 1072 1074 l 1
 1072 952 l 1
 0 952 l 1
 0 1074 l 1
EndSplineSet
Validated: 1
EndChar

StartChar: dec_hbar3
Encoding: 1114221 -1 298
Width: 1080
VWidth: 0
Flags: HW
HStem: 586 122<0 1072>
LayerCount: 2
Back
Fore
SplineSet
0 708 m 1
 1072 708 l 1
 1072 586 l 1
 0 586 l 1
 0 708 l 1
EndSplineSet
Validated: 1
EndChar

StartChar: dec_hbar4
Encoding: 1114222 -1 299
Width: 1080
VWidth: 0
Flags: HW
HStem: 218 124<0 1072>
LayerCount: 2
Back
Fore
SplineSet
0 342 m 1
 1072 342 l 1
 1072 218 l 1
 0 218 l 1
 0 342 l 1
EndSplineSet
Validated: 1
EndChar

StartChar: dec_hbar5
Encoding: 1114223 -1 300
Width: 1080
VWidth: 0
Flags: HW
HStem: -146 120<0 1072>
LayerCount: 2
Back
Fore
SplineSet
0 -26 m 1
 1072 -26 l 1
 1072 -146 l 1
 0 -146 l 1
 0 -26 l 1
EndSplineSet
Validated: 1
EndChar

StartChar: dec_leftjoin
Encoding: 1114224 -1 301
Width: 1080
VWidth: 0
Flags: HW
HStem: 586 122<610 1072>
VStem: 488 122<-400 586 708 1600>
LayerCount: 2
Back
Fore
SplineSet
488 1600 m 1
 610 1600 l 1
 610 708 l 1
 1072 708 l 1
 1072 586 l 1
 610 586 l 1
 610 -400 l 1
 488 -400 l 1
 488 1600 l 1
EndSplineSet
Validated: 1
EndChar

StartChar: dec_rightjoin
Encoding: 1114225 -1 302
Width: 1080
VWidth: 0
Flags: HW
HStem: 586 122<0 488>
VStem: 488 122<-400 586 708 1600>
LayerCount: 2
Back
Fore
SplineSet
488 1600 m 1
 610 1600 l 1
 610 -400 l 1
 488 -400 l 1
 488 586 l 1
 0 586 l 1
 0 708 l 1
 488 708 l 1
 488 1600 l 1
EndSplineSet
Validated: 1
EndChar

StartChar: dec_bottomjoin
Encoding: 1114226 -1 303
Width: 1080
VWidth: 0
Flags: HW
HStem: 586 122<0 488 610 1072>
VStem: 488 122<708 1598>
LayerCount: 2
Back
Fore
SplineSet
488 1598 m 1
 610 1598 l 1
 610 708 l 1
 1072 708 l 1
 1072 586 l 1
 0 586 l 1
 0 708 l 1
 488 708 l 1
 488 1598 l 1
EndSplineSet
Validated: 1
EndChar

StartChar: dec_topjoin
Encoding: 1114227 -1 304
Width: 1080
VWidth: 0
Flags: HW
HStem: 586 122<0 488 610 1072>
VStem: 488 122<-398 586>
LayerCount: 2
Back
Fore
SplineSet
0 708 m 1
 1072 708 l 1
 1072 586 l 1
 610 586 l 1
 610 -398 l 1
 488 -398 l 1
 488 586 l 1
 0 586 l 1
 0 708 l 1
EndSplineSet
Validated: 1
EndChar

StartChar: dec_vbar
Encoding: 1114228 -1 305
Width: 1080
VWidth: 0
Flags: HW
VStem: 488 122<-400 1600>
LayerCount: 2
Back
Fore
SplineSet
488 1600 m 1
 610 1600 l 1
 610 -400 l 1
 488 -400 l 1
 488 1600 l 1
EndSplineSet
Validated: 1
EndChar

StartChar: dec_notgreater
Encoding: 1114229 -1 306
Width: 1080
VWidth: 0
Flags: HW
HStem: -146 120<184 916>
DStem2: 264 702 380 646 0.696955 0.717115<40.6884 736.22> 380 646 264 590 0.704203 -0.709999<0 681.168>
LayerCount: 2
Back
Fore
SplineSet
836 198 m 2
 846 186 852 170 852 154 c 0
 852 138 844 124 834 112 c 0
 824 100 808 94 792 92 c 0
 788 92 785 91 781 91 c 0
 770 91 761 94 750 100 c 1
 264 590 l 1
 264 702 l 1
 748 1200 l 1
 757 1204 767 1207 778 1207 c 0
 781 1207 784 1206 788 1206 c 0
 802 1204 814 1198 824 1188 c 0
 836 1178 842 1162 844 1146 c 0
 844 1142 845 1139 845 1135 c 0
 845 1123 842 1113 836 1102 c 1
 380 646 l 1
 836 198 l 2
184 -26 m 1
 916 -26 l 1
 916 -146 l 1
 184 -146 l 1
 184 -26 l 1
EndSplineSet
Validated: 1
EndChar

StartChar: dec_notless
Encoding: 1114230 -1 307
Width: 1080
VWidth: 0
Flags: HW
HStem: -146 120<184 916>
DStem2: 364 1196 276 1098 0.704203 -0.709999<-32.9542 646.806> 278 194 366 96 0.695517 0.718509<-49.7284 643.406>
LayerCount: 2
Back
Fore
SplineSet
276 1098 m 2
 266 1110 262 1126 262 1142 c 0
 262 1158 270 1172 280 1184 c 0
 290 1196 304 1204 320 1206 c 0
 323 1206 325 1207 328 1207 c 0
 341 1207 352 1203 364 1196 c 1
 850 706 l 1
 850 596 l 1
 366 96 l 1
 358 92 350 91 341 91 c 0
 336 91 331 91 326 92 c 0
 312 94 300 98 290 108 c 0
 278 118 270 134 268 150 c 0
 268 153 267 155 267 158 c 0
 267 171 271 182 278 194 c 1
 732 650 l 1
 276 1098 l 2
184 -26 m 1
 916 -26 l 1
 916 -146 l 1
 184 -146 l 1
 184 -26 l 1
EndSplineSet
Validated: 1
EndChar

StartChar: dec_pi
Encoding: 1114231 -1 308
Width: 1080
VWidth: 0
Flags: HW
HStem: 98 42G<209 309 732 856> 954 120<124 246 366 732 854 976>
VStem: 246 120<298 954> 732 124<98 952>
LayerCount: 2
Back
Fore
SplineSet
122 1074 m 1
 976 1074 l 1
 976 952 l 1
 854 952 l 1
 856 98 l 1
 732 98 l 1
 732 952 l 1
 366 954 l 1
 366 284 l 2
 366 278 364 268 360 258 c 2
 292 98 l 1
 184 150 l 1
 246 298 l 1
 246 954 l 1
 124 954 l 1
 122 1074 l 1
EndSplineSet
Validated: 1
EndChar

StartChar: dec_notequal
Encoding: 1114232 -1 309
Width: 1080
VWidth: 0
Flags: HW
HStem: 462 124<122 282 576 976> 708 122<120 528 820 974>
DStem2: 130 308 214 224 0.70617 0.708043<0 216.376 511.788 564.272 856.856 1067.57>
LayerCount: 2
Back
Fore
SplineSet
214 224 m 1
 130 308 l 1
 282 462 l 1
 122 462 l 1
 122 586 l 1
 406 586 l 1
 528 708 l 1
 120 708 l 1
 120 830 l 1
 650 830 l 1
 884 1064 l 1
 968 980 l 1
 820 830 l 1
 974 830 l 1
 974 708 l 1
 698 708 l 1
 576 586 l 1
 976 586 l 1
 976 462 l 1
 452 462 l 1
 214 224 l 1
EndSplineSet
Validated: 1
EndChar

StartChar: dec_periodcentered
Encoding: 1114234 -1 311
Width: 1080
VWidth: 0
Flags: HW
HStem: 462 246<368 610>
VStem: 368 242<462 708>
LayerCount: 2
Back
Fore
SplineSet
368 708 m 1
 610 708 l 1
 610 462 l 1
 368 462 l 1
 368 708 l 1
EndSplineSet
Validated: 1
EndChar

StartChar: quotesingle
Encoding: 39 39 312
Width: 1080
VWidth: 0
Flags: HW
HStem: 952 366<488 610>
VStem: 488 122<952 1318>
LayerCount: 2
Fore
SplineSet
488 1318 m 1
 610 1318 l 1
 610 952 l 1
 488 952 l 1
 488 1318 l 1
EndSplineSet
Validated: 1
EndChar

StartChar: uni00AD
Encoding: 173 173 313
Width: 1080
VWidth: 0
Flags: HW
HStem: 586 122<244 856>
VStem: 244 612<586 708>
LayerCount: 2
Fore
SplineSet
244 708 m 1
 856 708 l 1
 856 586 l 1
 244 586 l 1
 244 708 l 1
EndSplineSet
Validated: 1
EndChar

StartChar: uni00B5
Encoding: 181 181 314
Width: 1080
VWidth: 0
Flags: HW
HStem: 102 116<312 634 866 964> 912 40G<112 226 718 838>
VStem: 112 114<-268 136 300 952> 718 120<306 952>
LayerCount: 2
Fore
SplineSet
112 952 m 1
 226 952 l 1
 226 300 l 1
 312 218 l 1
 634 218 l 1
 718 306 l 1
 718 952 l 1
 838 952 l 1
 838 282 l 2
 838 276 834 268 830 258 c 1
 866 218 l 1
 964 218 l 1
 964 102 l 1
 842 102 l 2
 822 102 806 110 800 118 c 2
 748 168 l 1
 700 120 l 2
 694 114 678 102 658 102 c 2
 288 102 l 2
 278 102 262 104 248 118 c 2
 230 136 l 1
 230 -268 l 1
 112 -268 l 1
 112 952 l 1
EndSplineSet
Validated: 1
EndChar

StartChar: divide
Encoding: 247 247 315
Width: 1080
VWidth: 0
Flags: HW
HStem: 158 244<414 658> 586 122<108 962> 890 244<414 658>
VStem: 414 244<158 402 890 1134>
LayerCount: 2
Fore
SplineSet
414 1134 m 1
 658 1134 l 1
 658 890 l 1
 414 890 l 1
 414 1134 l 1
108 708 m 1
 962 708 l 1
 962 586 l 1
 108 586 l 1
 108 708 l 1
414 402 m 1
 658 402 l 1
 658 158 l 1
 414 158 l 1
 414 402 l 1
EndSplineSet
Validated: 1
EndChar

StartChar: ordmasculine
Encoding: 186 186 320
Width: 1080
VWidth: 0
Flags: HW
HStem: 98 120<108 844> 348 114<314 636> 1078 116<314 638>
VStem: 108 120<546 990> 716 120<546 990>
LayerCount: 2
Fore
SplineSet
228 990 m 1
 228 546 l 1
 314 462 l 1
 636 462 l 1
 716 546 l 1
 716 990 l 1
 638 1078 l 1
 314 1078 l 1
 228 990 l 1
128 1056 m 2
 250 1178 l 2
 264 1192 282 1194 290 1194 c 2
 664 1194 l 2
 684 1194 700 1184 708 1176 c 2
 820 1050 l 2
 832 1038 836 1022 836 1012 c 2
 836 522 l 2
 836 502 824 486 818 480 c 2
 702 362 l 2
 691 349 677 348 667 348 c 0
 664 348 662 348 660 348 c 2
 290 348 l 2
 272 348 258 356 250 362 c 2
 126 478 l 2
 110 492 108 510 108 522 c 2
 108 1016 l 2
 108 1036 122 1050 128 1056 c 2
108 218 m 1
 844 218 l 1
 844 98 l 1
 108 98 l 1
 108 218 l 1
EndSplineSet
Validated: 1
EndChar

StartChar: Abreve
Encoding: 258 258 323
Width: 1080
VWidth: 0
Flags: HW
HStem: 98 42G<114 232 840 960> 464 122<234 840> 1194 42G<529 545>
VStem: 114 118<98 464 586 624> 840 120<98 464 586 624>
DStem2: 132 692 234 624 0.705145 0.709063<23.7086 450.808> 576 1054 534 928 0.709041 -0.705167<59.0712 490.408>
LayerCount: 2
Fore
SplineSet
372 1420 m 0
 384 1432 400 1438 412 1438 c 0
 430 1438 446 1430 456 1420 c 2
 538 1338 l 1
 622 1420 l 2
 634 1432 650 1438 662 1438 c 0
 696 1438 724 1408 724 1376 c 0
 724 1362 720 1348 706 1334 c 2
 580 1210 l 2
 570 1200 554 1194 536 1194 c 0
 522 1194 508 1198 496 1210 c 2
 372 1334 l 2
 362 1344 354 1360 354 1378 c 0
 354 1392 360 1408 372 1420 c 0
232 464 m 1
 232 98 l 1
 114 98 l 1
 114 650 l 2
 114 670 126 686 132 692 c 2
 492 1054 l 2
 504 1066 520 1072 532 1072 c 0
 550 1072 566 1064 576 1054 c 2
 942 690 l 2
 956 676 960 658 960 648 c 2
 960 98 l 1
 840 98 l 1
 840 464 l 1
 232 464 l 1
234 586 m 1
 840 586 l 1
 840 624 l 1
 534 928 l 1
 234 624 l 1
 234 586 l 1
EndSplineSet
Validated: 1
EndChar

StartChar: abreve
Encoding: 259 259 324
Width: 1080
VWidth: 0
Flags: HW
HStem: 98 116<316 720 840 962> 468 116<318 720> 830 118<230 638> 1278 40G<402 417 652 667>
VStem: 114 118<306 380> 720 120<218 468 584 746>
DStem2: 534 1218 492 1092 0.707107 -0.707107<-159.206 0>
LayerCount: 2
Fore
SplineSet
368 1300 m 0
 380 1312 396 1318 408 1318 c 0
 426 1318 442 1310 452 1300 c 2
 534 1218 l 1
 618 1300 l 2
 630 1312 646 1318 658 1318 c 0
 676 1318 692 1310 702 1300 c 0
 712 1290 720 1274 720 1256 c 0
 720 1244 714 1228 702 1216 c 2
 576 1092 l 2
 566 1082 550 1074 532 1074 c 0
 518 1074 504 1080 492 1092 c 2
 368 1216 l 2
 358 1226 350 1242 350 1260 c 0
 350 1272 356 1288 368 1300 c 0
720 218 m 1
 720 468 l 1
 318 468 l 1
 232 380 l 1
 232 306 l 1
 316 220 l 1
 720 218 l 1
840 214 m 1
 962 214 l 1
 962 98 l 1
 290 98 l 2
 270 98 254 116 248 122 c 2
 132 242 l 2
 118 256 114 276 114 284 c 2
 114 404 l 2
 114 424 126 440 132 446 c 2
 250 568 l 2
 264 582 282 584 292 584 c 2
 720 584 l 1
 720 746 l 1
 638 830 l 1
 230 830 l 1
 230 948 l 1
 662 948 l 2
 682 948 698 936 704 930 c 2
 822 810 l 2
 836 796 840 780 840 770 c 2
 840 214 l 1
EndSplineSet
Validated: 1
EndChar

StartChar: dcroat
Encoding: 273 273 329
Width: 1080
VWidth: 0
Flags: HW
HStem: 102 116<440 720> 832 118<434 720> 1060 122<430 720 840 934> 1278 40G<720 840>
VStem: 110 118<426 624> 720 120<218 832 950 1060 1182 1318>
DStem2: 128 690 228 624 0.704167 0.710035<23.5544 316.3> 228 426 128 360 0.712879 -0.701287<0 296.998>
LayerCount: 2
Fore
SplineSet
720 218 m 1
 720 832 l 1
 434 832 l 1
 228 624 l 1
 228 426 l 1
 440 218 l 1
 720 218 l 1
840 102 m 1
 416 102 l 2
 408 102 388 104 374 118 c 2
 128 360 l 2
 122 366 110 382 110 402 c 2
 110 648 l 2
 110 658 114 676 128 690 c 2
 368 932 l 2
 374 938 388 950 408 950 c 2
 720 950 l 1
 720 1060 l 1
 430 1060 l 1
 430 1182 l 1
 720 1182 l 1
 720 1318 l 1
 840 1318 l 1
 840 1182 l 1
 934 1182 l 1
 934 1060 l 1
 840 1060 l 1
 840 102 l 1
EndSplineSet
Validated: 1
EndChar

StartChar: Dcroat
Encoding: 272 272 330
Width: 1080
VWidth: 0
Flags: HW
HStem: 98 122<108 230 352 634> 594 122<110 230 352 474> 1076 118<108 230 352 634>
VStem: 230 122<220 594 716 1076> 840 120<426 866>
DStem2: 702 1176 634 1076 0.701239 -0.712926<23.6084 317.778> 634 220 700 118 0.710035 0.704167<0 291.326>
LayerCount: 2
Fore
SplineSet
230 1076 m 1
 108 1076 l 1
 108 1194 l 1
 660 1194 l 2
 680 1194 696 1184 702 1176 c 2
 942 932 l 2
 956 918 960 900 960 890 c 2
 960 402 l 2
 960 382 950 366 942 358 c 2
 700 118 l 2
 686 104 668 98 658 98 c 2
 108 98 l 1
 108 218 l 1
 230 218 l 1
 230 594 l 1
 110 594 l 1
 110 716 l 1
 230 716 l 1
 230 1076 l 1
352 220 m 1
 634 220 l 1
 840 426 l 1
 840 866 l 1
 634 1076 l 1
 352 1076 l 1
 352 716 l 1
 474 716 l 1
 474 594 l 1
 352 594 l 1
 352 220 l 1
EndSplineSet
Validated: 1
EndChar

StartChar: Ebreve
Encoding: 276 276 333
Width: 1080
VWidth: 0
Flags: HW
HStem: 98 120<230 962> 462 124<230 718> 952 122<230 962> 1202 116<415 635>
VStem: 108 122<218 462 586 952> 238 116<1378 1498> 702 120<1385 1498>
LayerCount: 2
Fore
SplineSet
226 1498 m 1
 346 1498 l 1
 348 1482 350 1468 354 1452 c 0
 358 1436 364 1422 372 1408 c 0
 380 1394 390 1386 400 1376 c 0
 412 1364 424 1352 438 1344 c 0
 452 1336 466 1332 482 1328 c 0
 496 1324 512 1318 526 1318 c 0
 542 1318 558 1324 572 1328 c 0
 586 1332 600 1338 614 1346 c 0
 628 1354 640 1366 650 1376 c 0
 660 1386 670 1396 678 1410 c 0
 686 1424 692 1442 696 1458 c 0
 700 1472 702 1484 702 1498 c 1
 822 1498 l 1
 822 1472 820 1446 812 1422 c 0
 804 1398 794 1374 782 1352 c 0
 770 1330 754 1308 736 1290 c 0
 718 1272 698 1256 676 1244 c 0
 654 1232 630 1222 604 1214 c 0
 580 1208 556 1202 530 1202 c 0
 504 1202 478 1204 452 1210 c 0
 426 1216 402 1228 380 1240 c 0
 358 1252 336 1268 316 1286 c 0
 298 1304 280 1324 268 1346 c 0
 254 1368 244 1392 238 1418 c 0
 232 1442 226 1472 226 1498 c 1
108 1074 m 1
 962 1074 l 1
 962 952 l 1
 230 952 l 1
 230 586 l 1
 718 586 l 1
 718 462 l 1
 230 462 l 1
 230 218 l 1
 962 218 l 1
 962 98 l 1
 108 98 l 1
 108 1074 l 1
EndSplineSet
Validated: 1
EndChar

StartChar: Gbreve
Encoding: 286 286 343
Width: 1080
VWidth: 0
Flags: HW
HStem: 102 120<436 718> 464 122<474 718 838 964> 996 120<436 636> 1194 42G<529 545>
VStem: 112 120<424 790> 718 120<222 464>
DStem2: 128 856 232 790 0.704167 0.710035<26.371 316.288> 232 424 130 356 0.710059 -0.704142<0 287.088>
LayerCount: 2
Fore
SplineSet
372 1420 m 0
 384 1432 400 1438 412 1438 c 0
 430 1438 446 1430 456 1420 c 2
 538 1338 l 1
 622 1420 l 2
 634 1432 648 1438 662 1438 c 0
 680 1438 696 1430 706 1418 c 0
 716 1408 724 1392 724 1374 c 0
 724 1362 718 1346 706 1334 c 2
 580 1210 l 2
 570 1200 554 1194 536 1194 c 0
 522 1194 508 1198 496 1210 c 2
 372 1334 l 2
 362 1344 354 1360 354 1378 c 0
 354 1392 360 1408 372 1420 c 0
474 586 m 1
 964 586 l 1
 964 464 l 1
 838 464 l 1
 838 160 l 2
 838 138 818 102 776 102 c 2
 412 102 l 2
 402 102 384 104 370 118 c 2
 130 356 l 2
 124 362 112 378 112 398 c 2
 112 814 l 2
 112 824 114 842 128 856 c 2
 368 1098 l 2
 374 1106 390 1116 410 1116 c 2
 660 1116 l 2
 670 1116 690 1112 704 1098 c 2
 824 976 l 1
 738 892 l 1
 636 996 l 1
 436 996 l 1
 232 790 l 1
 232 424 l 1
 436 222 l 1
 718 222 l 1
 718 464 l 1
 474 464 l 1
 474 586 l 1
EndSplineSet
Validated: 1
EndChar

StartChar: gbreve
Encoding: 287 287 344
Width: 1080
VWidth: 0
Flags: HW
HStem: -144 120<438 760> 218 124<438 630> 342 120<800 844> 834 120<438 754> 1194 42G<529 545>
VStem: 110 120<544 626> 844 120<60 342 462 750>
DStem2: 128 694 230 626 0.715853 0.698251<25.536 319.67> 230 544 128 476 0.712926 -0.701239<0 289.938>
LayerCount: 2
Fore
SplineSet
372 1420 m 0x9e
 384 1432 400 1438 412 1438 c 0
 430 1438 446 1430 456 1420 c 2
 538 1338 l 1
 622 1420 l 2
 634 1432 648 1438 662 1438 c 0
 680 1438 696 1430 706 1418 c 0
 716 1408 724 1392 724 1374 c 0
 724 1362 718 1346 706 1334 c 2
 580 1210 l 2
 570 1200 554 1194 536 1194 c 0
 522 1194 508 1198 496 1210 c 2
 372 1334 l 2
 362 1344 354 1360 354 1378 c 0
 354 1392 360 1408 372 1420 c 0x9e
844 462 m 1xbe
 844 750 l 1
 754 834 l 1
 438 834 l 1
 230 626 l 1
 230 544 l 1
 438 342 l 1
 630 342 l 1xde
 732 444 l 2
 744 456 758 462 774 462 c 2
 844 462 l 1xbe
844 342 m 1xbe
 800 342 l 1xbe
 698 240 l 2
 688 228 674 218 656 218 c 2
 414 218 l 2xde
 398 218 384 224 372 236 c 2
 128 476 l 2
 116 488 110 502 110 518 c 2
 110 652 l 2
 110 670 116 684 128 694 c 2
 372 932 l 2
 384 944 398 954 414 954 c 2
 778 954 l 2
 794 954 808 950 820 940 c 2
 946 820 l 2
 958 808 964 794 964 776 c 2
 964 36 l 2
 964 20 956 6 946 -6 c 2
 830 -126 l 2
 818 -138 804 -144 786 -144 c 2
 414 -144 l 2
 398 -144 384 -138 372 -126 c 2
 250 -6 l 1
 334 78 l 1
 438 -24 l 1
 760 -24 l 1
 844 60 l 1
 844 342 l 1xbe
EndSplineSet
Validated: 1
EndChar

StartChar: gcommaaccent
Encoding: 291 291 348
Width: 1080
VWidth: 0
Flags: HW
HStem: -362 114<226 388> -144 120<438 470 586 760> 218 124<438 630> 342 120<800 844> 834 120<438 754>
VStem: 110 120<544 626> 470 116<-162 -144 -24 120> 844 120<60 342 462 750>
DStem2: 128 694 230 626 0.715853 0.698251<25.536 319.67> 230 544 128 476 0.712926 -0.701239<0 289.938>
LayerCount: 2
Fore
SplineSet
844 342 m 1xdf
 800 342 l 1xdf
 698 240 l 2
 688 228 674 218 656 218 c 2
 414 218 l 2xef
 398 218 384 224 372 236 c 2
 128 476 l 2
 116 488 110 502 110 518 c 2
 110 652 l 2
 110 670 116 684 128 694 c 2
 372 932 l 2
 384 944 398 954 414 954 c 2
 778 954 l 2
 794 954 808 950 820 940 c 2
 946 820 l 2
 958 808 964 794 964 776 c 2
 964 36 l 2
 964 20 956 6 946 -6 c 2
 830 -126 l 2
 818 -138 804 -144 786 -144 c 2
 586 -144 l 1
 586 -184 l 2
 586 -200 580 -212 570 -224 c 2
 452 -344 l 2
 440 -356 428 -362 412 -362 c 2
 226 -362 l 1
 226 -248 l 1
 388 -248 l 1
 470 -162 l 1
 470 -144 l 1
 414 -144 l 2
 398 -144 384 -138 372 -126 c 2
 250 -6 l 1
 334 78 l 1
 438 -24 l 1
 470 -24 l 1
 470 120 l 1
 586 120 l 1
 586 -24 l 1
 760 -24 l 1
 844 60 l 1
 844 342 l 1xdf
844 462 m 1
 844 750 l 1
 754 834 l 1
 438 834 l 1
 230 626 l 1
 230 544 l 1
 438 342 l 1
 630 342 l 1xef
 732 444 l 2
 744 456 758 462 774 462 c 2
 844 462 l 1
EndSplineSet
Validated: 1
EndChar

StartChar: uniFF5D
Encoding: 65373 65373 486
Width: 1080
VWidth: 0
Flags: HW
HStem: -24 120<238 394> 588 120<688 760> 1202 120<238 394>
VStem: 484 120<184 502 796 1114>
LayerCount: 2
Fore
SplineSet
418 1322 m 2
 422 1322 426 1320 428 1320 c 0
 430 1320 434 1318 436 1318 c 0
 438 1318 442 1316 444 1316 c 0
 446 1316 450 1314 452 1312 c 0
 454 1310 454 1310 456 1308 c 0
 458 1306 458 1306 460 1304 c 2
 586 1182 l 2
 588 1180 590 1176 592 1174 c 0
 594 1172 596 1170 598 1166 c 0
 600 1162 600 1156 602 1152 c 0
 602 1150 604 1148 604 1146 c 0
 604 1144 604 1140 604 1138 c 2
 604 796 l 1
 688 708 l 1
 760 708 l 1
 760 588 l 1
 688 588 l 1
 604 502 l 1
 604 158 l 2
 604 156 604 154 604 152 c 0
 604 150 602 148 602 146 c 0
 602 144 600 140 600 138 c 0
 600 136 600 132 598 130 c 0
 596 128 594 124 592 122 c 0
 590 120 588 118 586 116 c 2
 460 -6 l 2
 458 -8 458 -8 456 -10 c 0
 454 -12 454 -12 452 -14 c 0
 450 -16 446 -18 444 -18 c 0
 442 -18 438 -20 436 -20 c 0
 434 -20 430 -22 428 -22 c 0
 426 -22 422 -24 418 -24 c 2
 238 -24 l 1
 238 96 l 1
 394 96 l 1
 484 184 l 1
 484 526 l 2
 484 530 484 532 484 536 c 0
 484 540 484 542 486 544 c 0
 488 546 488 548 490 550 c 0
 492 552 492 556 494 558 c 0
 494 560 496 562 496 564 c 0
 496 566 498 566 500 568 c 2
 578 648 l 1
 500 730 l 2
 498 732 496 732 496 734 c 0
 496 736 494 738 494 740 c 0
 492 742 492 746 490 748 c 0
 488 750 488 752 486 754 c 0
 484 756 484 758 484 762 c 0
 484 766 484 768 484 772 c 2
 484 1114 l 1
 394 1202 l 1
 238 1202 l 1
 238 1322 l 1
 418 1322 l 2
EndSplineSet
Validated: 1
EndChar

StartChar: uniFF61
Encoding: 65377 65377 490
Width: 1080
VWidth: 0
Flags: HW
HStem: 52 92<400 552> 296 92<400 552>
VStem: 308 92<144 296> 552 88<144 296>
LayerCount: 2
Fore
SplineSet
400 296 m 1
 400 144 l 1
 552 144 l 1
 552 296 l 1
 400 296 l 1
354 388 m 2
 596 388 l 0
 620 388 640 366 640 342 c 0
 640 98 l 0
 640 74 620 52 596 52 c 0
 354 52 l 0
 330 52 308 74 308 98 c 0
 308 342 l 0
 308 366 330 388 354 388 c 2
EndSplineSet
Validated: 1
EndChar

StartChar: uniFFE2
Encoding: 65506 65506 497
Width: 1080
VWidth: 0
Flags: HW
HStem: 822 120<110 840>
VStem: 840 124<612 822>
LayerCount: 2
Fore
SplineSet
964 612 m 25
 840 612 l 25
 840 822 l 25
 110 822 l 25
 110 942 l 25
 964 942 l 25
 964 612 l 25
EndSplineSet
Validated: 1
EndChar

StartChar: uniFFE3
Encoding: 65507 65507 498
Width: 1080
VWidth: 0
Flags: HW
HStem: 1196 122<38 1046>
LayerCount: 2
Fore
SplineSet
38 1318 m 1
 1046 1318 l 1
 1046 1196 l 1
 38 1196 l 1
 38 1318 l 1
EndSplineSet
Validated: 1
EndChar

StartChar: uniFFE6
Encoding: 65510 65510 501
Width: 1080
VWidth: 0
UnlinkRmOvrlpSave: 1
Flags: HW
HStem: 96 42G<362 377 693 708> 488 112<120 952> 822 112<120 952> 1154 40G<190 310 762 882>
VStem: 190 120<300 1194> 474 120<426 704> 762 120<302 1196>
LayerCount: 2
Fore
SplineSet
532 314 m 1
 412 114 l 2
 402 100 384 96 370 96 c 0
 354 96 340 102 328 114 c 2
 208 234 l 2
 196 246 190 260 190 276 c 2
 190 1194 l 1
 310 1194 l 1
 310 300 l 1
 370 242 l 1
 474 426 l 1
 474 704 l 1
 594 704 l 1
 594 422 l 1
 700 242 l 1
 762 302 l 1
 762 1196 l 1
 882 1196 l 1
 882 276 l 2
 882 258 876 244 864 232 c 2
 742 114 l 2
 730 104 716 98 700 98 c 0
 686 98 668 102 658 116 c 2
 532 314 l 1
EndSplineSet
Refer: 17 61 N 1 0 0 1 0 0 2
Validated: 5
EndChar

StartChar: uniFFE9
Encoding: 65513 65513 504
Width: 1080
VWidth: 0
Flags: HW
HStem: 586 122<460 870> 912 40G<413 460>
LayerCount: 2
Fore
SplineSet
460 952 m 1
 460 708 l 1
 870 708 l 1
 870 586 l 1
 460 586 l 1
 460 342 l 1
 98 646 l 1
 460 952 l 1
EndSplineSet
Validated: 1
EndChar

StartChar: uniFFEA
Encoding: 65514 65514 505
Width: 1080
VWidth: 0
Flags: HW
VStem: 424 120<260 672>
LayerCount: 2
Fore
SplineSet
788 672 m 1
 544 672 l 1
 544 260 l 1
 424 260 l 1
 424 672 l 1
 180 672 l 1
 484 1032 l 1
 788 672 l 1
EndSplineSet
Validated: 1
EndChar

StartChar: uniFFEB
Encoding: 65515 65515 506
Width: 1080
VWidth: 0
Flags: HW
HStem: 586 122<298 708> 912 40G<708 755>
LayerCount: 2
Fore
SplineSet
708 952 m 1
 1070 646 l 1
 708 342 l 1
 708 586 l 1
 298 586 l 1
 298 708 l 1
 708 708 l 1
 708 952 l 1
EndSplineSet
Validated: 1
EndChar

StartChar: uniFFEC
Encoding: 65516 65516 507
Width: 1080
VWidth: 0
Flags: HW
VStem: 424 120<624 1032>
LayerCount: 2
Fore
SplineSet
180 624 m 1
 424 624 l 1
 424 1032 l 1
 544 1032 l 1
 544 624 l 1
 788 624 l 1
 484 260 l 1
 180 624 l 1
EndSplineSet
Validated: 1
EndChar

StartChar: uniFFED
Encoding: 65517 65517 508
Width: 1080
VWidth: 0
Flags: HW
HStem: 588 432<324 744>
VStem: 324 420<588 1020>
LayerCount: 2
Fore
SplineSet
324 1020 m 1
 744 1020 l 1
 744 588 l 1
 324 588 l 1
 324 1020 l 1
EndSplineSet
Validated: 1
EndChar

StartChar: uniFFEE
Encoding: 65518 65518 509
Width: 1080
VWidth: 0
Flags: HW
HStem: 478 100<422 673> 1030 100<422 673>
VStem: 228 100<669 939> 768 100<671 937>
LayerCount: 2
Fore
SplineSet
328 804 m 0
 328 678 426 578 548 578 c 0
 668 578 768 678 768 804 c 0
 768 930 668 1030 548 1030 c 0
 426 1030 328 930 328 804 c 0
228 804 m 0
 228 984 370 1130 548 1130 c 0
 724 1130 868 984 868 804 c 0
 868 624 724 478 548 478 c 0
 370 478 228 624 228 804 c 0
EndSplineSet
Validated: 1
EndChar

StartChar: uniFFFC
Encoding: 65532 65532 510
Width: 1080
VWidth: 0
Flags: HW
HStem: -4 100<698 770> 482 100<380 392 492 524> 634 100<492 520> 776 100<380 392 492 520> 994 100<296 392> 1282 100<296 392>
VStem: 196 100<1094 1282> 392 100<582 634 734 776 1094 1282> 572 100<120 194> 796 100<120 382>
LayerCount: 2
Fore
SplineSet
796 382 m 1
 896 382 l 1
 896 98 l 0
 896 84 890 68 880 60 c 0
 822 8 l 0
 812 0 800 -4 788 -4 c 0
 680 -4 l 0
 668 -4 656 2 646 10 c 0
 588 62 l 0
 578 72 572 86 572 98 c 0
 572 194 l 1
 672 194 l 1
 672 120 l 1
 698 96 l 1
 770 96 l 1
 796 120 l 1
 796 382 l 1
248 1382 m 2
 444 1382 l 0
 472 1382 492 1360 492 1332 c 0
 492 1044 l 0
 492 1016 472 994 444 994 c 0
 248 994 l 0
 220 994 196 1016 196 1044 c 0
 196 1332 l 0
 196 1360 220 1382 248 1382 c 2
296 1282 m 1
 296 1094 l 1
 392 1094 l 1
 392 1282 l 1
 296 1282 l 1
380 776 m 1
 380 876 l 1
 540 876 l 2
 552 876 564 872 572 864 c 2
 656 792 l 2
 668 782 672 770 672 756 c 0
 672 740 664 724 652 716 c 2
 616 682 l 1
 656 644 l 2
 668 634 672 620 672 606 c 0
 672 594 666 580 656 572 c 2
 580 496 l 2
 570 486 554 482 544 482 c 2
 380 482 l 1
 380 582 l 1
 392 582 l 1
 392 776 l 1
 380 776 l 1
492 582 m 1
 524 582 l 1
 548 606 l 1
 520 634 l 1
 492 634 l 1
 492 582 l 1
492 776 m 1
 492 734 l 1
 520 734 l 1
 544 754 l 1
 520 776 l 1
 492 776 l 1
EndSplineSet
Validated: 1
EndChar

StartChar: uniFFFD
Encoding: 65533 65533 511
Width: 1080
VWidth: 0
Flags: HW
HStem: 158 158<474 560> 416 80<456 556> 956 178<474 598>
DStem2: 494 1116 354 882 0.707107 0.707107<-317.712 -126.572> 578 1116 672 942 0.707107 -0.707107<141.952 325.048>
LayerCount: 2
Fore
SplineSet
420 736 m 2
 430 736 440 746 440 756 c 0
 440 826 l 1
 472 858 l 1
 614 858 l 1
 648 826 l 1
 648 806 l 1
 472 644 l 1
 460 634 456 620 456 608 c 0
 456 516 l 0
 456 506 466 496 476 496 c 0
 536 496 l 0
 546 496 556 506 556 516 c 0
 556 586 l 1
 732 750 l 1
 740 758 748 770 748 786 c 0
 748 846 l 0
 748 858 744 870 734 880 c 0
 672 942 l 0
 662 952 648 956 636 956 c 0
 452 956 l 0
 444 956 430 956 418 944 c 1
 354 882 l 1
 346 874 340 862 340 848 c 0
 340 756 l 0
 340 746 350 736 360 736 c 0
 420 736 l 2
472 416 m 2
 462 416 452 406 452 396 c 0
 452 336 l 0
 452 326 462 316 472 316 c 0
 540 316 l 0
 550 316 560 326 560 336 c 0
 560 396 l 0
 560 406 550 416 540 416 c 0
 472 416 l 2
66 688 m 2
 494 1116 l 2
 506 1128 520 1134 536 1134 c 0
 552 1134 566 1128 578 1116 c 2
 1006 688 l 2
 1018 676 1024 660 1024 646 c 0
 1024 632 1018 616 1006 604 c 2
 578 176 l 2
 566 164 552 158 536 158 c 0
 520 158 506 164 494 176 c 2
 66 604 l 2
 54 616 48 632 48 646 c 0
 48 660 54 676 66 688 c 2
EndSplineSet
Validated: 1
EndChar

StartChar: uni2B60
Encoding: 11104 11104 513
Width: 1080
VWidth: 4096
Flags: HW
VStem: 260 120<122 480 774 1502> 604 120<808 1104>
DStem2: 284 558 380 480 0.788024 0.615644<27.6302 406.078>
LayerCount: 2
Fore
SplineSet
260 1502 m 1
 380 1502 l 1
 380 774 l 1
 260 774 l 1
 260 1502 l 1
380 122 m 1
 260 122 l 1
 260 510 l 2
 260 530 272 548 284 558 c 2
 604 808 l 1
 604 1104 l 1
 512 1104 l 1
 664 1464 l 1
 816 1104 l 1
 724 1104 l 1
 724 778 l 2
 724 764 716 742 700 730 c 2
 380 480 l 1
 380 122 l 1
EndSplineSet
Validated: 1
EndChar

StartChar: uni2B61
Encoding: 11105 11105 514
Width: 1080
VWidth: 0
Flags: HW
HStem: 774 120<306 552>
VStem: 184 122<894 1382> 488 120<38 342> 792 122<342 646>
LayerCount: 2
Fore
SplineSet
488 646 m 1
 608 646 l 1
 792 342 l 1
 792 646 l 1
 914 646 l 1
 914 38 l 1
 792 38 l 1
 608 342 l 1
 608 38 l 1
 488 38 l 1
 488 646 l 1
184 1382 m 1
 306 1382 l 1
 306 894 l 1
 552 894 l 1
 552 774 l 1
 184 774 l 1
 184 1382 l 1
EndSplineSet
Validated: 1
EndChar

StartChar: uni2B62
Encoding: 11106 11106 515
Width: 1080
VWidth: 4096
Flags: HW
HStem: 500 90<408 520> 684 90<608 700> 860 80<520 700> 1026 90<408 756>
VStem: 316 92<590 1026> 520 88<590 684> 700 56<774 860>
LayerCount: 2
Fore
SplineSet
408 1116 m 2
 756 1116 l 1
 756 1026 l 1
 408 1026 l 1
 408 590 l 1
 520 590 l 1
 520 774 l 1
 700 774 l 1
 700 860 l 1
 520 860 l 1
 520 940 l 1
 756 940 l 1
 756 704 l 1
 750 698 740 694 728 690 c 0
 716 686 708 684 700 684 c 2
 608 684 l 1
 608 590 l 2
 608 566 602 544 584 526 c 0
 566 508 544 500 520 500 c 2
 408 500 l 2
 384 500 362 508 344 526 c 0
 326 544 316 566 316 590 c 2
 316 1026 l 2
 316 1050 326 1072 344 1090 c 0
 362 1108 384 1116 408 1116 c 2
EndSplineSet
Validated: 1
EndChar

StartChar: uni2B63
Encoding: 11107 11107 516
Width: 1080
VWidth: 4096
Flags: HW
HStem: 500 90<408 520> 852 88<612 664> 1026 90<316 664>
VStem: 316 92<590 940> 520 92<590 852> 664 92<940 1026>
LayerCount: 2
Fore
SplineSet
316 1116 m 1
 664 1116 l 2
 688 1116 710 1108 728 1090 c 0
 746 1072 756 1050 756 1026 c 2
 756 940 l 2
 756 916 746 896 728 878 c 0
 710 860 688 852 664 852 c 2
 612 852 l 1
 612 590 l 2
 612 566 602 544 584 526 c 0
 566 508 544 500 520 500 c 2
 408 500 l 2
 384 500 362 508 344 526 c 0
 326 544 316 566 316 590 c 2
 316 704 l 1
 316 940 l 1
 408 940 l 1
 408 590 l 1
 520 590 l 1
 520 940 l 1
 664 940 l 1
 664 1026 l 1
 316 1026 l 1
 316 1116 l 1
EndSplineSet
Validated: 1
EndChar

StartChar: uni2B64
Encoding: 11108 11108 517
Width: 1080
VWidth: 4096
Flags: HW
HStem: 428 158<485 587> 786 80<487 585> 1106 80<474 596>
VStem: 256 220<590 783> 376 80<866 1097> 596 220<591 783> 616 80<866 1080>
LayerCount: 2
Fore
SplineSet
536 1186 m 0xf0
 639 1186 678 1112 692 1026 c 0
 694 1014 696 1006 696 998 c 0
 696 954 696 910 696 866 c 1xe2
 816 866 l 1
 816 728 l 2
 816 699 802 647 794 620 c 0
 762 512 678 428 536 428 c 0
 357 428 281 554 256 706 c 0
 255 710 255 714 255 717 c 0
 255 724 256 731 256 736 c 0
 256 779 256 823 256 866 c 1xf4
 376 866 l 1
 376 998 l 2
 376 1001 375 1006 375 1013 c 0
 375 1034 383 1050 388 1066 c 0
 410 1131 449 1186 536 1186 c 0xf0
536 1106 m 0
 490 1106 479 1080 466 1048 c 0
 462 1038 460 1022 460 998 c 0
 460 974 456 956 456 940 c 0
 456 924 456 900 456 866 c 1
 616 866 l 1
 616 998 l 2xea
 616 1020 610 1038 606 1048 c 0
 602 1058 602 1070 596 1080 c 0
 585 1098 564 1106 536 1106 c 0
596 686 m 0xf4
 596 732 580 786 536 786 c 0
 492 786 476 732 476 686 c 0
 476 647 484 622 504 602 c 0
 514 592 524 586 536 586 c 0
 562 586 584 616 590 638 c 0
 594 652 596 668 596 686 c 0xf4
EndSplineSet
Validated: 1
EndChar

StartChar: uni2B80
Encoding: 11136 11136 518
Width: 1080
VWidth: 4096
Flags: HW
LayerCount: 2
Fore
SplineSet
22 1592 m 1
 972 598 l 1
 32 -396 l 1
 0 -396 l 1
 0 1592 l 1
 22 1592 l 1
EndSplineSet
Validated: 1
EndChar

StartChar: uni2B81
Encoding: 11137 11137 519
Width: 1080
VWidth: 4096
Flags: HW
VStem: 806 110<543 653>
DStem2: 806 598 80 -382 0.65681 0.754056<-1242.16 0> 80 1576 806 598 0.6576 -0.753367<-30.9478 1214.21>
LayerCount: 2
Fore
SplineSet
16 1578 m 0
 24 1586 32 1592 48 1592 c 0
 60 1592 72 1588 80 1576 c 2
 904 632 l 2
 912 624 916 614 916 598 c 0
 916 582 912 572 904 564 c 1
 80 -382 l 2
 72 -394 60 -396 48 -396 c 0
 32 -396 24 -392 16 -384 c 0
 8 -372 0 -360 0 -348 c 0
 0 -332 4 -322 12 -314 c 1
 806 598 l 1
 12 1510 l 1
 4 1518 0 1532 0 1548 c 0
 0 1560 8 1566 16 1578 c 0
EndSplineSet
Validated: 1
EndChar

StartChar: uni2B82
Encoding: 11138 11138 520
Width: 1080
VWidth: 4096
Flags: HW
VStem: 156 916<-396 1592>
LayerCount: 2
Fore
SplineSet
1072 1592 m 1
 1072 -396 l 1
 156 598 l 1
 1072 1592 l 1
EndSplineSet
Validated: 1
EndChar

StartChar: uni2B83
Encoding: 11139 11139 521
Width: 1080
VWidth: 4096
Flags: HW
VStem: 148 110<543 653>
DStem2: 160 632 258 598 0.658505 0.752577<38.9458 1284.08> 258 598 160 564 0.657715 -0.753267<0 1242.15>
LayerCount: 2
Fore
SplineSet
1048 1578 m 0
 1056 1570 1064 1560 1064 1548 c 0
 1064 1532 1060 1518 1052 1510 c 1
 258 598 l 1
 1052 -314 l 1
 1060 -322 1064 -332 1064 -348 c 0
 1064 -364 1056 -372 1048 -384 c 0
 1040 -392 1030 -396 1014 -396 c 0
 1002 -396 994 -394 986 -382 c 2
 160 564 l 2
 152 572 148 582 148 598 c 0
 148 614 152 620 160 632 c 1
 986 1576 l 2
 994 1588 1002 1592 1014 1592 c 0
 1030 1592 1040 1586 1048 1578 c 0
EndSplineSet
Validated: 1
EndChar

StartChar: uni21E0
Encoding: 8672 8672 522
Width: 1080
VWidth: 0
Flags: HW
HStem: 586 122<460 502 560 684 776 900 988 1070> 912 40G<413 460>
VStem: 560 124<586 708> 776 124<586 708> 988 82<586 708>
LayerCount: 2
Fore
SplineSet
460 952 m 1
 460 708 l 1
 502 708 l 1
 502 586 l 1
 460 586 l 1
 460 342 l 1
 98 646 l 1
 460 952 l 1
560 708 m 1
 684 708 l 1
 684 586 l 1
 560 586 l 1
 560 708 l 1
988 708 m 1
 1070 708 l 1
 1070 586 l 1
 988 586 l 1
 988 708 l 1
776 708 m 1
 900 708 l 1
 900 586 l 1
 776 586 l 1
 776 708 l 1
EndSplineSet
Validated: 1
EndChar

StartChar: uni21E1
Encoding: 8673 8673 523
Width: 1080
VWidth: 0
Flags: HW
HStem: 160 82<426 548> 330 124<426 548> 546 124<426 548>
VStem: 426 122<160 242 330 454 546 670 728 770>
LayerCount: 2
Fore
SplineSet
182 770 m 1
 488 1132 l 1
 792 770 l 1
 548 770 l 1
 548 728 l 1
 426 728 l 1
 426 770 l 1
 182 770 l 1
426 670 m 1
 548 670 l 1
 548 546 l 1
 426 546 l 1
 426 670 l 1
426 242 m 1
 548 242 l 1
 548 160 l 1
 426 160 l 1
 426 242 l 1
426 454 m 1
 548 454 l 1
 548 330 l 1
 426 330 l 1
 426 454 l 1
EndSplineSet
Validated: 1
EndChar

StartChar: uni21E2
Encoding: 8674 8674 524
Width: 1080
VWidth: 0
Flags: HW
HStem: 586 122<0 82 170 294 386 510 568 610> 912 40G<610 657>
VStem: 0 82<586 708> 170 124<586 708> 386 124<586 708>
LayerCount: 2
Fore
SplineSet
610 952 m 1
 972 646 l 1
 610 342 l 1
 610 586 l 1
 568 586 l 1
 568 708 l 1
 610 708 l 1
 610 952 l 1
510 708 m 1
 510 586 l 1
 386 586 l 1
 386 708 l 1
 510 708 l 1
82 708 m 1
 82 586 l 1
 0 586 l 1
 0 708 l 1
 82 708 l 1
294 708 m 1
 294 586 l 1
 170 586 l 1
 170 708 l 1
 294 708 l 1
EndSplineSet
Validated: 1
EndChar

StartChar: uni21E3
Encoding: 8675 8675 525
Width: 1080
VWidth: 0
Flags: HW
HStem: 622 124<426 548> 838 124<426 548> 1050 82<426 548>
VStem: 426 122<522 564 622 746 838 962 1050 1132>
LayerCount: 2
Fore
SplineSet
792 522 m 1
 486 160 l 1
 182 522 l 1
 426 522 l 1
 426 564 l 1
 548 564 l 1
 548 522 l 1
 792 522 l 1
548 622 m 1
 426 622 l 1
 426 746 l 1
 548 746 l 1
 548 622 l 1
548 1050 m 1
 426 1050 l 1
 426 1132 l 1
 548 1132 l 1
 548 1050 l 1
548 838 m 1
 426 838 l 1
 426 962 l 1
 548 962 l 1
 548 838 l 1
EndSplineSet
Validated: 1
EndChar

StartChar: uni25B4
Encoding: 9652 9652 526
Width: 1080
VWidth: 0
Flags: HW
HStem: 544 644
LayerCount: 2
Fore
SplineSet
948 544 m 1
 120 544 l 1
 546 1188 l 1
 948 544 l 1
EndSplineSet
Validated: 1
EndChar

StartChar: uni25BE
Encoding: 9662 9662 527
Width: 1080
VWidth: 0
Flags: HW
HStem: 544 644
LayerCount: 2
Fore
SplineSet
948 1188 m 1
 546 544 l 1
 120 1188 l 1
 948 1188 l 1
EndSplineSet
Validated: 1
EndChar

StartChar: SF110000
Encoding: 9474 9474 528
Width: 1080
VWidth: 0
Flags: HW
VStem: 488 122<-400 1600>
LayerCount: 2
Fore
SplineSet
610 1600 m 1
 610 934 610 266 610 -400 c 1
 488 -400 l 1
 488 266 488 934 488 1600 c 1
 610 1600 l 1
EndSplineSet
Validated: 1
EndChar

StartChar: SF100000
Encoding: 9472 9472 529
Width: 1080
VWidth: 0
Flags: HW
HStem: 588 122<0 1078>
LayerCount: 2
Fore
SplineSet
1078 710 m 1
 1078 588 l 1
 0 588 l 1
 0 710 l 1
 1078 710 l 1
EndSplineSet
Validated: 1
EndChar

StartChar: SF050000
Encoding: 9532 9532 530
Width: 1080
VWidth: 0
Flags: HW
HStem: 586 122<0 488 610 1078>
VStem: 488 122<-400 586 708 1600>
LayerCount: 2
Fore
SplineSet
488 1600 m 1
 610 1600 l 1
 610 708 l 1
 1078 708 l 1
 1078 586 l 1
 610 586 l 1
 610 -400 l 1
 488 -400 l 1
 488 586 l 1
 0 586 l 1
 0 708 l 1
 488 708 l 1
 488 1600 l 1
EndSplineSet
Validated: 1
EndChar

StartChar: uniE0B0
Encoding: 57520 57520 531
Width: 1080
VWidth: 4096
Flags: HW
VStem: 0 934<-396 1592>
LayerCount: 2
Fore
SplineSet
18 1592 m 1
 934 598 l 1
 18 -396 l 1
 0 -396 l 1
 0 1592 l 1
 18 1592 l 1
EndSplineSet
Validated: 1
EndChar

StartChar: uniE0B1
Encoding: 57521 57521 532
Width: 1080
VWidth: 4096
Flags: HW
VStem: 806 110<543 653>
DStem2: 806 598 80 -382 0.65681 0.754056<-1242.16 0> 80 1576 806 598 0.6576 -0.753367<-30.9478 1214.21>
LayerCount: 2
Fore
SplineSet
16 1578 m 0
 24 1586 32 1592 48 1592 c 0
 60 1592 72 1588 80 1576 c 2
 904 632 l 2
 912 624 916 614 916 598 c 0
 916 582 912 572 904 564 c 1
 80 -382 l 2
 72 -394 60 -396 48 -396 c 0
 32 -396 24 -392 16 -384 c 0
 8 -372 0 -360 0 -348 c 0
 0 -332 4 -322 12 -314 c 1
 806 598 l 1
 12 1510 l 1
 4 1518 0 1532 0 1548 c 0
 0 1560 8 1566 16 1578 c 0
EndSplineSet
Validated: 1
EndChar

StartChar: uniE0A2
Encoding: 57506 57506 533
Width: 1080
VWidth: 4096
Flags: HW
HStem: 238 238<470 601> 776 120<470 602> 1256 120<452 622>
VStem: 116 330<499 755> 296 120<896 1228> 626 330<499 755> 656 120<896 1228>
LayerCount: 2
Fore
SplineSet
536 1376 m 0xf0
 568 1376 598 1372 626 1360 c 0xf4
 652 1348 672 1336 688 1318 c 0
 708 1300 720 1278 732 1256 c 0
 744 1236 752 1214 758 1194 c 0
 764 1172 768 1154 770 1136 c 0
 772 1118 776 1106 776 1094 c 1
 776 1078 l 1
 776 896 l 1xe2
 956 896 l 1
 956 716 l 2
 956 710 956 700 956 688 c 0
 956 676 952 656 948 622 c 0
 940 590 932 556 924 526 c 0
 914 496 900 464 878 428 c 0
 856 392 832 358 804 332 c 0
 772 304 736 284 692 266 c 0
 648 248 592 238 536 238 c 0
 492 238 448 242 410 254 c 0
 372 266 340 280 314 298 c 0
 288 316 264 338 242 362 c 0
 220 386 200 410 188 436 c 0
 176 464 160 490 152 518 c 0
 144 544 136 568 132 592 c 0
 124 616 124 638 122 656 c 0
 120 674 116 688 116 700 c 2
 116 716 l 1
 116 896 l 1xf4
 296 896 l 1
 296 1078 l 2
 296 1082 296 1088 296 1094 c 0xe8
 296 1100 302 1114 302 1136 c 0
 302 1156 308 1176 314 1194 c 0
 320 1212 328 1232 340 1256 c 0
 352 1280 368 1300 384 1318 c 0
 398 1336 420 1348 446 1360 c 0
 472 1372 504 1376 536 1376 c 0xf0
536 1256 m 0
 516 1256 500 1252 484 1246 c 0
 470 1240 460 1232 452 1214 c 0
 444 1196 436 1184 432 1168 c 0
 424 1154 422 1130 422 1094 c 0
 422 1058 416 1030 416 1006 c 0
 416 982 416 946 416 896 c 1
 656 896 l 1
 656 944 656 982 656 1006 c 0
 656 1030 656 1060 656 1094 c 0xea
 656 1126 648 1154 640 1168 c 0
 636 1184 628 1202 620 1216 c 0
 612 1232 600 1240 588 1246 c 0
 576 1252 556 1256 536 1256 c 0
536 776 m 0
 518 776 504 770 488 754 c 0
 472 740 460 718 456 698 c 0
 448 676 446 652 446 626 c 0
 446 598 448 574 456 554 c 0
 460 532 472 514 488 500 c 0
 504 484 518 476 536 476 c 0
 554 476 568 484 584 500 c 0
 600 514 612 532 616 554 c 0
 624 574 626 598 626 626 c 0xf4
 626 652 624 676 616 698 c 0
 612 718 600 740 584 754 c 0
 568 770 554 776 536 776 c 0
EndSplineSet
Validated: 1
EndChar

StartChar: uniE0A1
Encoding: 57505 57505 535
Width: 1080
VWidth: 0
Flags: HW
HStem: 774 120<306 552>
VStem: 184 122<894 1382> 488 120<38 342> 792 122<342 646>
LayerCount: 2
Fore
SplineSet
488 646 m 1
 608 646 l 1
 792 342 l 1
 792 646 l 1
 914 646 l 1
 914 38 l 1
 792 38 l 1
 608 342 l 1
 608 38 l 1
 488 38 l 1
 488 646 l 1
184 1382 m 1
 306 1382 l 1
 306 894 l 1
 552 894 l 1
 552 774 l 1
 184 774 l 1
 184 1382 l 1
EndSplineSet
Validated: 1
EndChar

StartChar: block
Encoding: 9608 9608 536
Width: 1080
VWidth: 0
Flags: HW
VStem: 0 1072<-400 1600>
LayerCount: 2
Fore
SplineSet
0 1600 m 1
 1072 1600 l 1
 1072 -400 l 1
 0 -400 l 1
 0 1600 l 1
EndSplineSet
Validated: 1
EndChar

StartChar: NameMe.702
Encoding: 1114235 -1 537
Width: 1080
VWidth: 0
Flags: HW
HStem: 116 120<242 830> 1336 122<242 830>
VStem: 120 122<236 1336> 830 122<236 1336>
LayerCount: 2
Fore
SplineSet
242 1336 m 1
 242 236 l 1
 830 236 l 1
 830 1336 l 1
 242 1336 l 1
120 1458 m 1
 952 1458 l 1
 952 116 l 1
 120 116 l 1
 120 1458 l 1
EndSplineSet
Validated: 1
EndChar

StartChar: SF080000
Encoding: 9500 9500 539
Width: 1080
VWidth: 0
Flags: HW
HStem: 586 122<610 1078>
VStem: 488 122<-400 586 708 1600>
LayerCount: 2
Fore
SplineSet
488 1600 m 1
 610 1600 l 1
 610 708 l 1
 1078 708 l 1
 1078 586 l 1
 610 586 l 1
 610 -400 l 1
 488 -400 l 1
 488 1600 l 1
EndSplineSet
Validated: 1
EndChar

StartChar: SF090000
Encoding: 9508 9508 540
Width: 1080
VWidth: 0
Flags: HW
HStem: 586 122<0 488>
VStem: 488 122<-400 586 708 1600>
LayerCount: 2
Fore
SplineSet
488 1600 m 1
 610 1600 l 1
 610 -400 l 1
 488 -400 l 1
 488 586 l 1
 0 586 l 1
 0 708 l 1
 488 708 l 1
 488 1600 l 1
EndSplineSet
Validated: 1
EndChar

StartChar: SF010000
Encoding: 9484 9484 541
Width: 1080
VWidth: 0
Flags: HW
HStem: 588 120<612 1078>
VStem: 488 124<-398 588>
LayerCount: 2
Fore
SplineSet
488 -398 m 25
 488 708 l 25
 1078 708 l 25
 1078 588 l 25
 612 588 l 25
 612 -398 l 25
 488 -398 l 25
EndSplineSet
Validated: 1
EndChar

StartChar: SF030000
Encoding: 9488 9488 542
Width: 1080
VWidth: 0
Flags: HW
HStem: 588 120<0 488>
VStem: 488 124<-398 588>
LayerCount: 2
Fore
SplineSet
612 -398 m 25
 488 -398 l 25
 488 588 l 25
 0 588 l 25
 0 708 l 25
 612 708 l 25
 612 -398 l 25
EndSplineSet
Validated: 1
EndChar

StartChar: SF020000
Encoding: 9492 9492 543
Width: 1080
VWidth: 0
Flags: HW
HStem: 584 124<612 1078>
VStem: 488 124<708 1600>
LayerCount: 2
Fore
SplineSet
488 1600 m 25
 612 1600 l 25
 612 708 l 25
 1078 708 l 25
 1078 584 l 25
 488 584 l 25
 488 1600 l 25
EndSplineSet
Validated: 1
EndChar

StartChar: SF040000
Encoding: 9496 9496 544
Width: 1080
VWidth: 0
Flags: HW
HStem: 584 124<0 488>
VStem: 488 124<708 1600>
LayerCount: 2
Fore
SplineSet
612 1600 m 25
 612 584 l 25
 0 584 l 25
 0 708 l 25
 488 708 l 25
 488 1600 l 25
 612 1600 l 25
EndSplineSet
Validated: 1
EndChar

StartChar: uniF0FF
Encoding: 61695 61695 545
Width: 1080
Flags: HW
HStem: 524 122<712 794> 614 72<441 629> 882 120<97 181> 1198 72<442 628> 1238 120<709 795>
VStem: 76 122<901 982> 280 12<904 980> 692 120<547 623 1257 1339> 692 102<525 587> 800 76<806 902 984 1079>
LayerCount: 2
Fore
SplineSet
138 1002 m 0x26
 154 1002 168 996 182 982 c 0
 192 972 198 958 198 940 c 0
 198 926 192 908 182 898 c 1
 170 888 154 882 138 882 c 0
 124 882 108 890 96 900 c 1
 82 914 76 926 76 940 c 0
 76 956 84 972 96 982 c 0
 110 996 124 1002 138 1002 c 0x26
692 582 m 0xa7
 692 598 696 612 708 624 c 0
 710 626 712 626 712 628 c 0
 720 640 732 646 754 646 c 0
 770 646 780 644 792 632 c 0
 804 622 812 608 812 588 c 0xa7
 812 574 806 558 794 546 c 0
 794 544 l 0xa680
 784 530 772 524 750 524 c 0
 734 524 724 528 712 540 c 0
 710 542 l 0
 698 550 692 562 692 582 c 0xa7
292 940 m 0
 292 898 300 860 322 822 c 0
 340 792 362 768 388 746 c 1
 348 680 l 1
 320 702 296 726 280 752 c 0
 280 754 l 0
 258 782 242 816 232 848 c 1
 262 874 272 904 272 940 c 0
 272 980 258 1014 232 1036 c 1
 244 1072 258 1102 280 1130 c 0
 282 1132 l 0
 298 1160 322 1184 348 1206 c 1
 388 1140 l 1
 362 1118 340 1088 322 1058 c 0
 300 1022 292 984 292 940 c 0
546 1198 m 0x3640
 514 1198 480 1192 456 1182 c 1
 420 1246 l 1
 462 1264 500 1270 546 1270 c 0
 576 1270 602 1268 624 1264 c 1
 630 1232 648 1214 668 1196 c 0
 670 1194 l 0
 694 1176 722 1164 754 1164 c 0
 764 1164 776 1168 784 1170 c 1
 838 1114 870 1054 876 984 c 1
 800 984 l 1
 792 1044 760 1092 720 1130 c 1
 672 1180 614 1198 546 1198 c 0x3640
546 686 m 0x6640
 614 686 674 710 720 754 c 1
 762 796 794 846 800 902 c 1
 876 902 l 1
 870 830 836 766 784 712 c 1
 774 716 768 720 754 720 c 0
 724 720 694 710 670 688 c 1
 648 670 630 648 624 620 c 1
 598 614 576 614 546 614 c 0
 500 614 460 622 420 640 c 1
 456 704 l 1
 484 694 514 686 546 686 c 0x6640
754 1238 m 0x2e80
 738 1238 724 1244 708 1256 c 1
 696 1268 690 1284 690 1300 c 0
 690 1322 696 1332 706 1340 c 0
 708 1342 l 0
 720 1354 734 1358 750 1358 c 0
 770 1358 784 1350 796 1340 c 1
 806 1326 812 1310 812 1296 c 0x2f
 812 1276 804 1262 794 1254 c 0
 792 1252 l 0
 780 1240 772 1238 754 1238 c 0x2e80
EndSplineSet
Validated: 1
EndChar

StartChar: filledbox
Encoding: 9632 9632 551
Width: 1080
VWidth: 0
Flags: HW
HStem: 236 776<148 924>
VStem: 148 776<236 1012>
LayerCount: 2
Fore
SplineSet
148 1012 m 1
 924 1012 l 1
 924 236 l 1
 148 236 l 1
 148 1012 l 1
EndSplineSet
Validated: 1
EndChar

StartChar: dnblock
Encoding: 9604 9604 555
Width: 1080
VWidth: 0
Flags: HW
HStem: -400 1024<0 1072>
VStem: 0 1072<-400 624>
LayerCount: 2
Fore
SplineSet
0 624 m 1
 1072 624 l 1
 1072 -400 l 1
 0 -400 l 1
 0 624 l 1
EndSplineSet
Validated: 1
EndChar

StartChar: NameMe.721
Encoding: 1114236 -1 556
Width: 1080
VWidth: 0
Flags: HW
HStem: 440 120<194 378> 690 120<194 378>
VStem: 74 120<560 690> 378 120<374 440 810 878>
DStem2: 378 1122 498 878 0.792258 -0.610186<243.956 657.584> 498 374 378 132 0.793448 0.608638<0 413.628>
LayerCount: 2
Fore
SplineSet
74 810 m 1
 378 810 l 1
 378 1122 l 1
 1022 626 l 1
 378 132 l 1
 378 440 l 1
 74 440 l 1
 74 810 l 1
194 690 m 1
 194 560 l 1
 498 560 l 1
 498 374 l 1
 826 626 l 1
 498 878 l 1
 498 690 l 1
 194 690 l 1
EndSplineSet
Validated: 1
EndChar

StartChar: Hbar
Encoding: 294 294 562
Width: 1080
VWidth: 0
Flags: HW
HStem: 98 42G<108 230 842 962> 586 122<230 842> 822 118<56 108 230 842 962 1010> 1154 40G<108 230 842 962>
VStem: 108 122<98 586 708 822 940 1194> 842 120<98 586 708 822 940 1194>
LayerCount: 2
Fore
SplineSet
108 1194 m 1
 230 1194 l 1
 230 940 l 1
 842 940 l 1
 842 1194 l 1
 962 1194 l 1
 962 940 l 1
 1010 940 l 1
 1010 822 l 1
 962 822 l 1
 962 98 l 1
 842 98 l 1
 842 586 l 1
 230 586 l 1
 230 98 l 1
 108 98 l 1
 108 822 l 1
 56 822 l 1
 56 940 l 1
 108 940 l 1
 108 1194 l 1
842 822 m 1
 230 822 l 1
 230 708 l 1
 842 708 l 1
 842 822 l 1
EndSplineSet
Validated: 1
EndChar

StartChar: hbar
Encoding: 295 295 563
Width: 1080
VWidth: 0
Flags: HW
HStem: 96 42G<104 224 718 838> 832 118<434 628> 1076 118<56 104 224 502>
VStem: 104 120<96 630 796 1076 1194 1332> 718 120<96 744>
DStem2: 224 796 224 630 0.720701 0.693246<0 176.304>
LayerCount: 2
Fore
SplineSet
104 1076 m 1
 56 1076 l 1
 56 1194 l 1
 104 1194 l 1
 104 1332 l 1
 224 1332 l 1
 224 1194 l 1
 502 1194 l 1
 502 1076 l 1
 224 1076 l 1
 224 796 l 1
 368 940 l 2
 380 950 394 950 410 950 c 2
 652 950 l 2
 668 950 682 944 694 934 c 2
 820 814 l 2
 832 802 838 788 838 770 c 2
 838 96 l 1
 718 96 l 1
 718 744 l 1
 628 832 l 1
 434 832 l 1
 224 630 l 1
 224 96 l 1
 104 96 l 1
 104 1076 l 1
EndSplineSet
Validated: 1
EndChar

StartChar: dotlessi
Encoding: 305 305 569
Width: 1080
VWidth: 0
Flags: HW
HStem: 98 42G<474 596> 912 40G<474 596>
VStem: 474 122<98 952>
LayerCount: 2
Fore
SplineSet
474 952 m 1
 596 952 l 1
 596 98 l 1
 474 98 l 1
 474 952 l 1
EndSplineSet
Validated: 1
EndChar

StartChar: Idotaccent
Encoding: 304 304 570
Width: 1080
VWidth: 0
Flags: HW
HStem: 96 122<352 474 596 718> 1074 120<352 474 596 718> 1318 122<474 596>
VStem: 352 366<96 218 1074 1194> 474 122<218 1074 1318 1440>
LayerCount: 2
Fore
SplineSet
352 1194 m 1xf0
 718 1194 l 1
 718 1074 l 1xf0
 596 1074 l 1
 596 218 l 1xe8
 718 218 l 1
 718 96 l 1
 352 96 l 1
 352 218 l 1xf0
 474 218 l 1
 474 1074 l 1xe8
 352 1074 l 1
 352 1194 l 1xf0
474 1440 m 1xe8
 596 1440 l 1
 596 1318 l 1
 474 1318 l 1
 474 1440 l 1xe8
EndSplineSet
Validated: 1
EndChar

StartChar: ogonek
Encoding: 731 731 574
Width: 1080
VWidth: 0
Flags: HW
HStem: -100 116<390 434>
VStem: 232 114<62 162>
LayerCount: 2
Fore
SplineSet
238 12 m 1
 236 14 232 22 232 30 c 1
 232 162 l 1
 346 162 l 1
 346 62 l 1
 390 16 l 1
 434 16 l 1
 434 -100 l 1
 364 -100 l 2
 344 -100 336 -94 324 -82 c 2
 248 0 l 2
 238 12 l 1
EndSplineSet
Validated: 1
EndChar

StartChar: breve
Encoding: 728 728 575
Width: 1080
VWidth: 0
InSpiro: 1
Flags: HW
HStem: 1022 120<409 641> 1278 40G<226 347 702 822>
VStem: 238 116<1196 1318> 702 120<1203 1318>
LayerCount: 2
Fore
SplineSet
226 1318 m 1
 346 1318 l 1
 348 1302 350 1288 354 1272 c 0
 358 1256 364 1242 372 1228 c 0
 380 1214 390 1204 400 1194 c 0
 412 1182 424 1172 438 1164 c 0
 452 1156 466 1152 482 1148 c 0
 496 1144 512 1142 526 1142 c 0
 542 1142 558 1144 572 1148 c 0
 586 1152 600 1158 614 1166 c 0
 628 1174 640 1184 650 1194 c 0
 660 1204 670 1216 678 1230 c 0
 686 1244 692 1262 696 1278 c 0
 700 1292 702 1304 702 1318 c 1
 822 1318 l 1
 822 1292 820 1266 812 1242 c 0
 804 1218 794 1194 782 1172 c 0
 770 1150 754 1128 736 1110 c 0
 718 1092 698 1076 676 1064 c 0
 654 1052 630 1042 604 1034 c 0
 580 1028 556 1022 530 1022 c 0
 504 1022 478 1024 452 1030 c 0
 426 1036 402 1048 380 1060 c 0
 358 1072 336 1088 316 1106 c 0
 298 1124 280 1144 268 1166 c 0
 254 1188 244 1212 238 1238 c 0
 232 1262 226 1292 226 1318 c 1
  Spiro
    226 1314 v
    346 1318 v
    354 1272 o
    372 1228 o
    400 1192 o
    438 1164 o
    482 1148 o
    526 1142 o
    572 1148 o
    614 1166 o
    650 1194 o
    678 1230 o
    696 1274 o
    702 1318 v
    822 1318 v
    812 1242 o
    782 1172 o
    736 1110 o
    676 1064 o
    604 1034 o
    530 1022 o
    452 1030 o
    380 1060 o
    316 1106 o
    268 1166 o
    238 1238 o
    0 0 z
  EndSpiro
EndSplineSet
Validated: 1
EndChar

StartChar: jcircumflex
Encoding: 309 309 577
Width: 1080
VWidth: 0
UnlinkRmOvrlpSave: 1
Flags: HW
HStem: -146 118<436 634> 912 40G<718 840> 1042 374
VStem: 220 632 718 122<58 952>
LayerCount: 2
Fore
SplineSet
840 34 m 2xe8
 840 18 832 4 820 -8 c 2
 700 -130 l 2
 688 -142 676 -146 658 -146 c 2
 410 -146 l 2
 394 -146 380 -140 368 -128 c 2
 246 -6 l 1
 332 78 l 1
 436 -28 l 1
 634 -28 l 1
 718 58 l 1
 718 952 l 1
 840 952 l 1
 840 34 l 2xe8
EndSplineSet
Refer: 58 94 N 1 0 0 1 -2 92 2
Validated: 1
EndChar

StartChar: IJ
Encoding: 306 306 578
Width: 1080
VWidth: 0
Flags: HW
HStem: 96 122<116 194 316 396 600 692> 1074 120<116 194 316 396 706 776 896 958>
VStem: 116 280<96 218 1074 1194> 396 116<302 464> 706 252<1074 1194> 776 120<306 1074>
LayerCount: 2
Fore
SplineSet
396 464 m 1xd4
 512 464 l 1
 512 302 l 1
 600 220 l 1
 692 220 l 1
 776 306 l 1
 776 1074 l 1xd4
 706 1074 l 1
 706 1194 l 1
 958 1194 l 1
 958 1074 l 1xc8
 896 1074 l 1
 896 282 l 2
 896 274 894 254 880 240 c 2
 762 118 l 2
 754 110 738 96 718 96 c 2
 576 96 l 2
 568 96 548 102 534 116 c 2
 414 232 l 2
 408 238 396 254 396 274 c 2
 396 464 l 1xd4
116 1194 m 1xe0
 396 1194 l 1
 396 1074 l 1
 316 1074 l 1
 316 218 l 1
 396 218 l 1
 396 96 l 1
 116 96 l 1
 116 218 l 1
 194 218 l 1
 194 1074 l 1
 116 1074 l 1
 116 1194 l 1xe0
EndSplineSet
Validated: 1
EndChar

StartChar: ellipsis
Encoding: 8230 8230 580
Width: 1080
VWidth: 0
Flags: HW
HStem: 98 244<60 202 354 496 646 788>
VStem: 60 142<98 342> 354 142<98 342> 646 142<98 342>
LayerCount: 2
Fore
SplineSet
354 342 m 1
 496 342 l 1
 496 98 l 1
 354 98 l 1
 354 342 l 1
60 342 m 1
 202 342 l 1
 202 98 l 1
 60 98 l 1
 60 342 l 1
646 342 m 1
 788 342 l 1
 788 98 l 1
 646 98 l 1
 646 342 l 1
EndSplineSet
Validated: 1
EndChar

StartChar: uni27F3
Encoding: 10227 10227 581
Width: 1080
VWidth: 0
Flags: HW
HStem: 274 120<377 689> 704 120<462 814> 1010 120<377 687>
VStem: 104 120<549 859> 880 120<948 1246>
LayerCount: 2
Fore
SplineSet
880 948 m 1
 880 1188 l 2
 880 1220 908 1248 940 1248 c 0
 972 1248 1000 1220 1000 1188 c 2
 1000 764 l 2
 1000 732 972 704 940 704 c 2
 520 704 l 2
 488 704 460 732 460 764 c 0
 460 796 488 824 520 824 c 2
 728 824 l 2
 728 824 738 824 750 824 c 0
 814 824 l 1
 766 934 658 1010 532 1010 c 0
 362 1010 224 874 224 704 c 0
 224 534 362 394 532 394 c 0
 662 394 774 476 818 590 c 1
 944 590 l 1
 894 408 730 274 532 274 c 0
 296 274 104 468 104 704 c 0
 104 940 296 1130 532 1130 c 0
 676 1130 802 1058 880 948 c 1
EndSplineSet
Validated: 1
EndChar

StartChar: NameMe.755
Encoding: 1114238 -1 587
Width: 1080
VWidth: 0
Flags: HW
HStem: 98 120<230 962> 488 122<230 718> 818 122<230 962>
VStem: 108 122<218 488 610 818>
LayerCount: 2
Fore
SplineSet
108 940 m 1
 962 940 l 1
 962 818 l 1
 230 818 l 1
 230 610 l 1
 718 610 l 1
 718 488 l 1
 230 488 l 1
 230 218 l 1
 962 218 l 1
 962 98 l 1
 108 98 l 1
 108 940 l 1
EndSplineSet
Validated: 1
EndChar

StartChar: NameMe.756
Encoding: 1114239 -1 588
Width: 1080
VWidth: 0
Flags: HW
HStem: 100 120<314 758>
VStem: 112 118<304 940> 840 120<306 940>
LayerCount: 2
Fore
SplineSet
112 940 m 1
 230 940 l 1
 230 304 l 1
 314 220 l 1
 758 220 l 1
 840 306 l 1
 840 940 l 1
 960 940 l 1
 960 282 l 2
 960 274 958 256 944 242 c 2
 828 120 l 2
 820 112 804 100 784 100 c 2
 288 100 l 2
 278 100 260 104 246 118 c 2
 128 236 l 2
 122 242 112 258 112 278 c 2
 112 940 l 1
EndSplineSet
Validated: 1
EndChar

StartChar: smalll
Encoding: 1114240 -1 593
Width: 1080
VWidth: 0
Flags: HW
HStem: 98 120<620 718>
VStem: 474 120<246 942>
LayerCount: 2
Fore
SplineSet
594 246 m 1
 620 218 l 1
 718 218 l 1
 718 98 l 1
 596 98 l 2
 580 98 566 104 554 116 c 2
 492 178 l 2
 480 190 474 204 474 220 c 2
 474 942 l 1
 594 942 l 1
 594 246 l 1
EndSplineSet
Validated: 1
EndChar

StartChar: SF060000
Encoding: 9516 9516 599
Width: 1080
VWidth: 0
Flags: HW
HStem: 586 122<0 488 610 1078>
VStem: 488 122<-400 586>
LayerCount: 2
Fore
SplineSet
1078 708 m 1
 1078 586 l 1
 610 586 l 1
 610 -400 l 1
 488 -400 l 1
 488 586 l 1
 0 586 l 1
 0 708 l 1
 1078 708 l 1
EndSplineSet
Validated: 1
EndChar

StartChar: SF070000
Encoding: 9524 9524 600
Width: 1080
VWidth: 0
Flags: HW
HStem: 586 122<0 488 610 1078>
VStem: 488 122<708 1600>
LayerCount: 2
Fore
SplineSet
0 586 m 1
 0 708 l 1
 488 708 l 1
 488 1600 l 1
 610 1600 l 1
 610 708 l 1
 1078 708 l 1
 1078 586 l 1
 0 586 l 1
EndSplineSet
Validated: 1
EndChar

StartChar: SF390000
Encoding: 9556 9556 601
Width: 1080
VWidth: 0
Flags: HW
HStem: 462 122<734 1078> 708 122<492 1078>
VStem: 370 122<-400 708> 612 122<-400 462>
LayerCount: 2
Fore
SplineSet
1078 830 m 1
 1078 708 l 1
 492 708 l 1
 492 -400 l 1
 370 -400 l 1
 370 830 l 1
 1078 830 l 1
1078 584 m 1
 1078 462 l 1
 734 462 l 1
 734 -400 l 1
 612 -400 l 1
 612 584 l 1
 1078 584 l 1
EndSplineSet
Validated: 1
EndChar

StartChar: SF250000
Encoding: 9559 9559 602
Width: 1080
VWidth: 0
Flags: HW
HStem: 462 122<0 370> 708 122<0 612>
VStem: 370 122<-400 462> 612 122<-400 708>
LayerCount: 2
Fore
SplineSet
734 830 m 1
 734 -400 l 1
 612 -400 l 1
 612 708 l 1
 0 708 l 1
 0 830 l 1
 734 830 l 1
492 584 m 1
 492 -400 l 1
 370 -400 l 1
 370 462 l 1
 0 462 l 1
 0 584 l 1
 492 584 l 1
EndSplineSet
Validated: 1
EndChar

StartChar: SF260000
Encoding: 9565 9565 603
Width: 1080
VWidth: 0
Flags: HW
HStem: 462 122<0 612> 708 122<0 370>
VStem: 370 122<830 1600> 612 122<584 1600>
LayerCount: 2
Fore
SplineSet
734 1600 m 1
 734 462 l 1
 0 462 l 1
 0 584 l 1
 612 584 l 1
 612 1600 l 1
 734 1600 l 1
492 1600 m 1
 492 708 l 1
 0 708 l 1
 0 830 l 1
 370 830 l 1
 370 1600 l 1
 492 1600 l 1
EndSplineSet
Validated: 1
EndChar

StartChar: SF380000
Encoding: 9562 9562 604
Width: 1080
VWidth: 0
Flags: HW
HStem: 462 122<492 1078> 708 122<734 1078>
VStem: 370 122<584 1600> 612 122<830 1600>
LayerCount: 2
Fore
SplineSet
1078 830 m 1
 1078 708 l 1
 612 708 l 1
 612 1600 l 1
 734 1600 l 1
 734 830 l 1
 1078 830 l 1
1078 584 m 1
 1078 462 l 1
 370 462 l 1
 370 1600 l 1
 492 1600 l 1
 492 584 l 1
 1078 584 l 1
EndSplineSet
Validated: 1
EndChar

StartChar: SF430000
Encoding: 9552 9552 605
Width: 1080
VWidth: 0
Flags: HW
HStem: 462 122<0 1078> 708 122<0 1078>
LayerCount: 2
Fore
SplineSet
1078 584 m 1
 1078 462 l 1
 0 462 l 1
 0 584 l 1
 1078 584 l 1
1078 830 m 1
 1078 708 l 1
 0 708 l 1
 0 830 l 1
 1078 830 l 1
EndSplineSet
Validated: 1
EndChar

StartChar: SF240000
Encoding: 9553 9553 606
Width: 1080
VWidth: 0
Flags: HW
VStem: 370 122<-400 1600> 612 122<-400 1600>
LayerCount: 2
Fore
SplineSet
492 1600 m 1
 492 934 492 266 492 -400 c 1
 370 -400 l 1
 370 266 370 934 370 1600 c 1
 492 1600 l 1
734 1600 m 1
 734 934 734 266 734 -400 c 1
 612 -400 l 1
 612 266 612 934 612 1600 c 1
 734 1600 l 1
EndSplineSet
Validated: 1
EndChar

StartChar: SF370000
Encoding: 9567 9567 607
Width: 1080
VWidth: 0
Flags: HW
HStem: 586 122<734 1078>
VStem: 370 122<-400 1600> 612 122<-400 586 708 1600>
LayerCount: 2
Fore
SplineSet
492 1600 m 1
 492 934 492 266 492 -400 c 1
 370 -400 l 1
 370 266 370 934 370 1600 c 1
 492 1600 l 1
1078 708 m 1
 1078 586 l 1
 734 586 l 1
 734 -400 l 1
 612 -400 l 1
 612 266 612 934 612 1600 c 1
 734 1600 l 1
 734 708 l 1
 1078 708 l 1
EndSplineSet
Validated: 1
EndChar

StartChar: SF200000
Encoding: 9570 9570 608
Width: 1080
VWidth: 0
Flags: HW
HStem: 586 122<0 370>
VStem: 370 122<-400 586 708 1600> 612 122<-400 1600>
LayerCount: 2
Fore
SplineSet
492 1600 m 1
 492 934 492 266 492 -400 c 1
 370 -400 l 1
 370 586 l 1
 0 586 l 1
 0 708 l 1
 370 708 l 1
 370 1600 l 1
 492 1600 l 1
734 1600 m 1
 734 934 734 266 734 -400 c 1
 612 -400 l 1
 612 266 612 934 612 1600 c 1
 734 1600 l 1
EndSplineSet
Validated: 1
EndChar

StartChar: SF440000
Encoding: 9580 9580 609
Width: 1080
VWidth: 0
Flags: HW
HStem: 462 122<0 370 734 1078> 708 122<0 370 734 1078>
VStem: 370 122<-400 462 830 1600> 612 122<-400 462 830 1600>
LayerCount: 2
Fore
SplineSet
492 1600 m 1
 492 708 l 1
 0 708 l 1
 0 830 l 1
 370 830 l 1
 370 1600 l 1
 492 1600 l 1
1078 830 m 1
 1078 708 l 1
 612 708 l 1
 612 1600 l 1
 734 1600 l 1
 734 830 l 1
 1078 830 l 1
1078 584 m 1
 1078 462 l 1
 734 462 l 1
 734 -400 l 1
 612 -400 l 1
 612 584 l 1
 1078 584 l 1
492 584 m 1
 492 -400 l 1
 370 -400 l 1
 370 462 l 1
 0 462 l 1
 0 584 l 1
 492 584 l 1
EndSplineSet
Validated: 1
EndChar

StartChar: SF530000
Encoding: 9579 9579 610
Width: 1080
VWidth: 0
Flags: HW
HStem: 586 122<0 370 492 612 734 1078>
VStem: 370 122<-400 586 708 1600> 612 122<-400 586 708 1600>
LayerCount: 2
Fore
SplineSet
1078 708 m 1
 1078 586 l 1
 734 586 l 1
 734 -400 l 1
 612 -400 l 1
 612 586 l 1
 492 586 l 1
 492 -400 l 1
 370 -400 l 1
 370 586 l 1
 0 586 l 1
 0 708 l 1
 370 708 l 1
 370 1600 l 1
 492 1600 l 1
 492 708 l 1
 612 708 l 1
 612 1600 l 1
 734 1600 l 1
 734 708 l 1
 1078 708 l 1
EndSplineSet
Validated: 1
EndChar

StartChar: SF540000
Encoding: 9578 9578 611
Width: 1080
VWidth: 0
Flags: HW
HStem: 462 122<0 488 610 1078> 708 122<0 488 610 1078>
VStem: 488 122<-400 462 584 708 830 1600>
LayerCount: 2
Fore
SplineSet
1078 830 m 1
 1078 708 l 1
 610 708 l 1
 610 584 l 1
 1078 584 l 1
 1078 462 l 1
 610 462 l 1
 610 -400 l 1
 488 -400 l 1
 488 462 l 1
 0 462 l 1
 0 584 l 1
 488 584 l 1
 488 708 l 1
 0 708 l 1
 0 830 l 1
 488 830 l 1
 488 1600 l 1
 610 1600 l 1
 610 830 l 1
 1078 830 l 1
EndSplineSet
Validated: 1
EndChar

StartChar: SF230000
Encoding: 9571 9571 612
Width: 1080
VWidth: 0
Flags: HW
HStem: 462 122<0 370> 708 122<0 370>
VStem: 370 122<-400 462 830 1600> 612 122<-400 1600>
LayerCount: 2
Fore
SplineSet
492 584 m 1
 492 -400 l 1
 370 -400 l 1
 370 462 l 1
 0 462 l 1
 0 584 l 1
 492 584 l 1
492 1600 m 1
 492 708 l 1
 0 708 l 1
 0 830 l 1
 370 830 l 1
 370 1600 l 1
 492 1600 l 1
734 1600 m 1
 734 934 734 266 734 -400 c 1
 612 -400 l 1
 612 266 612 934 612 1600 c 1
 734 1600 l 1
EndSplineSet
Validated: 1
EndChar

StartChar: SF420000
Encoding: 9568 9568 613
Width: 1080
VWidth: 0
Flags: HW
HStem: 462 122<734 1078> 708 122<734 1078>
VStem: 370 122<-400 1600> 612 122<-400 462 830 1600>
LayerCount: 2
Fore
SplineSet
1078 584 m 1
 1078 462 l 1
 734 462 l 1
 734 -400 l 1
 612 -400 l 1
 612 584 l 1
 1078 584 l 1
1078 830 m 1
 1078 708 l 1
 612 708 l 1
 612 1600 l 1
 734 1600 l 1
 734 830 l 1
 1078 830 l 1
492 1600 m 1
 492 934 492 266 492 -400 c 1
 370 -400 l 1
 370 266 370 934 370 1600 c 1
 492 1600 l 1
EndSplineSet
Validated: 1
EndChar

StartChar: SF410000
Encoding: 9574 9574 614
Width: 1080
VWidth: 0
Flags: HW
HStem: 462 122<0 370 734 1078> 708 122<0 1078>
VStem: 370 122<-400 462> 612 122<-400 462>
LayerCount: 2
Fore
SplineSet
1078 584 m 1
 1078 462 l 1
 734 462 l 1
 734 -400 l 1
 612 -400 l 1
 612 584 l 1
 1078 584 l 1
492 584 m 1
 492 -400 l 1
 370 -400 l 1
 370 462 l 1
 0 462 l 1
 0 584 l 1
 492 584 l 1
1078 830 m 1
 1078 708 l 1
 0 708 l 1
 0 830 l 1
 1078 830 l 1
EndSplineSet
Validated: 1
EndChar

StartChar: SF400000
Encoding: 9577 9577 615
Width: 1080
VWidth: 0
Flags: HW
HStem: 462 122<0 1078> 708 122<0 370 734 1078>
VStem: 370 122<830 1600> 612 122<830 1600>
LayerCount: 2
Fore
SplineSet
492 1600 m 1
 492 708 l 1
 0 708 l 1
 0 830 l 1
 370 830 l 1
 370 1600 l 1
 492 1600 l 1
1078 830 m 1
 1078 708 l 1
 612 708 l 1
 612 1600 l 1
 734 1600 l 1
 734 830 l 1
 1078 830 l 1
1078 584 m 1
 1078 462 l 1
 0 462 l 1
 0 584 l 1
 1078 584 l 1
EndSplineSet
Validated: 1
EndChar

StartChar: trademark
Encoding: 8482 8482 616
Width: 1080
VWidth: 0
Flags: HW
HStem: 1276 102<100 224 324 450>
VStem: 224 100<770 1276> 550 100<770 1206> 814 100<770 1206>
LayerCount: 2
Fore
SplineSet
550 1378 m 1
 650 1378 l 1
 730 1254 l 1
 814 1378 l 1
 914 1378 l 1
 914 770 l 1
 814 770 l 1
 814 1206 l 1
 730 1086 l 1
 650 1206 l 1
 650 770 l 1
 550 770 l 1
 550 1378 l 1
100 1378 m 1
 450 1378 l 1
 450 1276 l 1
 324 1276 l 1
 324 770 l 1
 224 770 l 1
 224 1276 l 1
 100 1276 l 1
 100 1378 l 1
EndSplineSet
Validated: 1
EndChar

StartChar: H18533
Encoding: 9679 9679 617
Width: 1080
VWidth: 0
Flags: HW
HStem: 276 832<356 716>
VStem: 120 832<512 872>
LayerCount: 2
Fore
SplineSet
120 692 m 0
 120 922 306 1108 536 1108 c 0
 766 1108 952 922 952 692 c 0
 952 462 766 276 536 276 c 0
 306 276 120 462 120 692 c 0
EndSplineSet
Validated: 1
EndChar

StartChar: uni2583
Encoding: 9603 9603 618
Width: 1080
VWidth: 0
Flags: HW
HStem: -400 772<0 1072>
LayerCount: 2
Fore
SplineSet
0 372 m 1
 1072 372 l 1
 1072 -400 l 1
 0 -400 l 1
 0 372 l 1
EndSplineSet
Validated: 1
EndChar

StartChar: uni2581
Encoding: 9601 9601 619
Width: 1080
VWidth: 0
Flags: HW
HStem: -400 286<0 1072>
LayerCount: 2
Fore
SplineSet
0 -114 m 1
 1072 -114 l 1
 1072 -400 l 1
 0 -400 l 1
 0 -114 l 1
EndSplineSet
Validated: 1
EndChar

StartChar: uni2582
Encoding: 9602 9602 620
Width: 1080
VWidth: 0
Flags: HW
HStem: -400 540<0 1072>
LayerCount: 2
Fore
SplineSet
0 140 m 1
 1072 140 l 1
 1072 -400 l 1
 0 -400 l 1
 0 140 l 1
EndSplineSet
Validated: 1
EndChar

StartChar: uni2585
Encoding: 9605 9605 621
Width: 1080
VWidth: 0
Flags: HW
HStem: -400 1308<0 1072>
VStem: 0 1072<-400 908>
LayerCount: 2
Fore
SplineSet
0 908 m 1
 1072 908 l 1
 1072 -400 l 1
 0 -400 l 1
 0 908 l 1
EndSplineSet
Validated: 1
EndChar

StartChar: uni2586
Encoding: 9606 9606 622
Width: 1080
VWidth: 0
Flags: HW
VStem: 0 1072<-400 1160>
LayerCount: 2
Fore
SplineSet
0 1160 m 1
 1072 1160 l 1
 1072 -400 l 1
 0 -400 l 1
 0 1160 l 1
EndSplineSet
Validated: 1
EndChar

StartChar: uni2587
Encoding: 9607 9607 623
Width: 1080
VWidth: 0
Flags: HW
VStem: 0 1072<-400 1404>
LayerCount: 2
Fore
SplineSet
0 1404 m 1
 1072 1404 l 1
 1072 -400 l 1
 0 -400 l 1
 0 1404 l 1
EndSplineSet
Validated: 1
EndChar

StartChar: uni2589
Encoding: 9609 9609 624
Width: 1080
VWidth: 0
Flags: HW
HStem: -396 692<0 1072>
LayerCount: 2
Fore
SplineSet
0 296 m 1
 1072 296 l 1
 1072 -396 l 1
 0 -396 l 1
 0 296 l 1
EndSplineSet
Validated: 1
EndChar

StartChar: uni23CE
Encoding: 9166 9166 625
Width: 1080
VWidth: 0
Flags: HW
HStem: 500 100<456 820> 694 100<456 636> 1050 100<736 820>
VStem: 82 142<577 719> 636 100<794 1050> 820 100<600 1050>
DStem2: 224 648 82 648 0.712801 -0.701366<0 183.865> 82 648 224 648 0.712801 0.701366<101.218 285.082>
LayerCount: 2
Fore
SplineSet
636 1150 m 1
 920 1150 l 1
 920 500 l 1
 456 500 l 1
 456 280 l 1
 82 648 l 1
 456 1016 l 1
 456 794 l 1
 636 794 l 1
 636 1150 l 1
820 1050 m 1
 736 1050 l 1
 736 694 l 1
 356 694 l 1
 356 776 l 1
 224 648 l 1
 356 520 l 1
 356 600 l 1
 820 600 l 1
 820 1050 l 1
EndSplineSet
Validated: 1
EndChar

StartChar: uni2318
Encoding: 8984 8984 626
Width: 1080
VWidth: 0
Flags: HW
HStem: 248 110<164 292 732 864> 492 110<164 292 404 620 732 864> 828 112<162 292 404 620 732 864> 1076 110<162 292 732 864>
VStem: 50 112<358 492 940 1076> 292 112<358 492 602 828 940 1076> 620 112<358 492 602 828 940 1076> 864 112<358 492 940 1076>
LayerCount: 2
Fore
SplineSet
292 602 m 1
 292 828 l 1
 96 828 l 0
 74 828 50 844 50 872 c 0
 50 1120 l 0
 50 1122 50 1126 50 1130 c 0
 56 1160 86 1186 116 1186 c 0
 358 1186 l 0
 380 1186 404 1168 404 1140 c 0
 404 940 l 1
 620 940 l 1
 620 1120 l 0
 620 1122 620 1126 620 1130 c 0
 626 1160 656 1186 686 1186 c 0
 930 1186 l 0
 952 1186 976 1168 976 1140 c 0
 976 892 l 0
 976 890 974 886 974 882 c 0
 968 852 940 828 910 828 c 0
 732 828 l 1
 732 602 l 1
 930 602 l 0
 952 602 976 584 976 556 c 0
 976 312 l 0
 976 310 974 306 974 302 c 0
 968 272 940 248 910 248 c 0
 666 248 l 0
 644 248 620 264 620 292 c 0
 620 492 l 1
 404 492 l 1
 404 312 l 0
 404 310 402 306 402 302 c 0
 396 272 368 248 338 248 c 0
 98 248 l 0
 76 248 50 264 50 292 c 0
 50 536 l 0
 50 538 50 542 50 546 c 0
 56 576 88 602 118 602 c 0
 292 602 l 1
404 828 m 1
 404 602 l 1
 620 602 l 1
 620 828 l 1
 404 828 l 1
732 940 m 1
 864 940 l 1
 864 1076 l 1
 732 1076 l 1
 732 940 l 1
732 492 m 1
 732 358 l 1
 864 358 l 1
 864 492 l 1
 732 492 l 1
292 492 m 1
 164 492 l 1
 164 358 l 1
 292 358 l 1
 292 492 l 1
292 940 m 1
 292 1076 l 1
 162 1076 l 1
 162 940 l 1
 292 940 l 1
EndSplineSet
Validated: 1
EndChar

StartChar: ltshade
Encoding: 9617 9617 627
Width: 1080
VWidth: 0
Flags: HW
HStem: 34 108<0 108 964 1072> 540 110<962 1072> 558 108<0 108> 1020 110<962 1072> 1046 108<0 108>
VStem: 484 118<-400 -282 1482 1600>
DStem2: 0 1154 0 1046 0.735834 0.677162<0 658.158> 0 666 0 558 0.736013 0.676967<0 1378.6> 0 142 0 34 0.735329 0.67771<0 1383.3> 0 -338 52 -400 0.735329 0.67771<0 1383.3> 484 -400 602 -400 0.735283 0.677761<86.7634 725.138>
LayerCount: 2
Fore
SplineSet
0 1046 m 1x8c
 0 1154 l 1
 484 1600 l 1
 602 1600 l 1
 0 1046 l 1x8c
0 666 m 1xa4
 1014 1600 l 1
 1072 1600 l 1
 1072 1544 l 1
 0 558 l 1
 0 666 l 1xa4
0 34 m 1
 0 142 l 1
 1072 1130 l 1
 1072 1020 l 1x94
 0 34 l 1
0 -338 m 1
 1072 650 l 1
 1072 540 l 1xc4
 52 -400 l 1
 0 -400 l 1
 0 -338 l 1
0 1548 m 1
 0 1600 l 1
 56 1600 l 1
 0 1548 l 1
602 -400 m 1
 484 -400 l 1
 1072 142 l 1
 1072 32 l 1
 602 -400 l 1
1010 -400 m 1
 1072 -342 l 1
 1072 -400 l 1
 1010 -400 l 1
EndSplineSet
Validated: 1
EndChar

StartChar: shade
Encoding: 9618 9618 628
Width: 1080
VWidth: 0
Flags: HW
HStem: -34 244<0 244 828 1072> 472 246<826 1072> 490 244<0 244> 952 246<826 1072> 978 244<0 244>
VStem: 412 266<-398 -132 1336 1602>
DStem2: 0 1222 0 978 0.735801 0.677198<0 560.486> 0 734 0 490 0.736013 0.676967<0 1280.93> 0 210 0 -34 0.735329 0.67771<0 1291.13> 0 -268 128 -398 0.736013 0.676967<6.20394 1289.96> 412 -398 678 -398 0.735487 0.677539<195.639 730.69>
LayerCount: 2
Fore
SplineSet
0 978 m 1x8c
 0 1060 0 1140 0 1222 c 1
 412 1602 l 1
 678 1602 l 1
 0 978 l 1x8c
0 734 m 1xa4
 942 1602 l 1
 1072 1602 l 1
 1072 1476 l 1
 0 490 l 1
 0 734 l 1xa4
0 -34 m 1
 0 210 l 1
 1072 1198 l 1
 1072 952 l 1x94
 0 -34 l 1
0 -268 m 1
 1072 718 l 1
 1072 472 l 1xc4
 128 -398 l 1
 0 -398 l 1
 0 -268 l 1
0 1480 m 1
 0 1602 l 1
 132 1602 l 1
 0 1480 l 1
678 -398 m 1
 412 -398 l 1
 1072 210 l 1
 1072 -36 l 1
 678 -398 l 1
938 -398 m 1
 1072 -274 l 1
 1072 -398 l 1
 938 -398 l 1
EndSplineSet
Validated: 1
EndChar

StartChar: dkshade
Encoding: 9619 9619 629
Width: 1080
VWidth: 0
Flags: HW
HStem: -102 380<0 380 692 1072> 404 382<690 1072> 422 380<0 380> 884 382<690 1072> 910 380<0 380>
VStem: 336 414<-400 14 1186 1600>
DStem2: 0 1290 0 910 0.735931 0.677057<0 457.16> 0 802 0 422 0.736013 0.676967<0 1177.61> 0 278 0 -102 0.735329 0.67771<0 1198.97> 0 -202 198 -400 0.735329 0.67771<11.4086 1198.97> 336 -400 750 -400 0.735493 0.677533<304.494 741.872>
LayerCount: 2
Fore
SplineSet
0 910 m 1x8c
 0 1290 l 1
 336 1600 l 1
 750 1600 l 1
 0 910 l 1x8c
0 802 m 1xa4
 866 1600 l 1
 1072 1600 l 1
 1072 1408 l 1
 0 422 l 1
 0 548 0 676 0 802 c 1xa4
0 -102 m 1
 0 278 l 1
 1072 1266 l 1
 1072 884 l 1x94
 0 -102 l 1
0 -202 m 1
 1072 786 l 1
 1072 404 l 1xc4
 198 -400 l 1
 0 -400 l 1
 0 -202 l 1
0 1414 m 1
 0 1600 l 1
 204 1600 l 1
 0 1414 l 1
750 -400 m 1
 336 -400 l 1
 1072 278 l 1
 1072 -104 l 1
 750 -400 l 1
862 -400 m 1
 1072 -206 l 1
 1072 -400 l 1
 862 -400 l 1
EndSplineSet
Validated: 1
EndChar

StartChar: uni2594
Encoding: 9620 9620 630
Width: 1080
VWidth: 0
Flags: HW
HStem: 1336 266<0 1072>
LayerCount: 2
Fore
SplineSet
0 1602 m 1
 1072 1602 l 1
 1072 1336 l 1
 0 1336 l 1
 0 1602 l 1
EndSplineSet
Validated: 1
EndChar

StartChar: NameMe.795
Encoding: 9621 9621 631
Width: 1080
VWidth: 0
Flags: HW
VStem: 966 102<-396 1602>
LayerCount: 2
Fore
SplineSet
966 1602 m 1
 1068 1602 l 1
 1068 -396 l 1
 966 -396 l 1
 966 1602 l 1
EndSplineSet
Validated: 1
EndChar

StartChar: NameMe.796
Encoding: 9622 9622 632
Width: 1080
VWidth: 0
Flags: HW
VStem: 0 548<-390 586>
LayerCount: 2
Fore
SplineSet
548 -390 m 1
 0 -390 l 1
 0 586 l 1
 548 586 l 1
 548 -390 l 1
EndSplineSet
Validated: 1
EndChar

StartChar: NameMe.797
Encoding: 9623 9623 633
Width: 1080
VWidth: 0
Flags: HW
VStem: 548 522<-396 586>
LayerCount: 2
Fore
SplineSet
548 -396 m 1
 548 586 l 1
 1070 586 l 1
 1070 -396 l 1
 548 -396 l 1
EndSplineSet
Validated: 1
EndChar

StartChar: NameMe.798
Encoding: 9624 9624 634
Width: 1080
VWidth: 0
Flags: HW
VStem: 0 548<586 1600>
LayerCount: 2
Fore
SplineSet
548 586 m 1
 0 586 l 1
 0 1600 l 1
 548 1600 l 1
 548 586 l 1
EndSplineSet
Validated: 1
EndChar

StartChar: NameMe.799
Encoding: 9625 9625 635
Width: 1080
VWidth: 0
Flags: HW
VStem: 0 1072<-400 586> 0 550<586 1602>
LayerCount: 2
Fore
SplineSet
0 1602 m 1x40
 550 1602 l 1
 550 586 l 1x40
 1072 586 l 1
 1072 -400 l 1
 0 -400 l 1
 0 -396 l 1x80
 0 1602 l 1x40
EndSplineSet
Validated: 1
EndChar

StartChar: NameMe.800
Encoding: 9626 9626 636
Width: 1080
VWidth: 0
Flags: HW
VStem: 0 548<586 1600> 550 522<-396 586>
LayerCount: 2
Fore
SplineSet
548 586 m 1
 0 586 l 1
 0 1600 l 1
 548 1600 l 1
 548 586 l 1
550 586 m 1
 1072 586 l 1
 1072 -396 l 1
 550 -396 l 1
 550 586 l 1
EndSplineSet
Validated: 1
EndChar

StartChar: NameMe.801
Encoding: 9627 9627 637
Width: 1080
VWidth: 0
Flags: HW
VStem: -2 1074<586 1604> -2 550<-396 586>
LayerCount: 2
Fore
SplineSet
-2 1604 m 1x80
 1072 1604 l 1
 1072 586 l 1x80
 548 586 l 1
 548 -396 l 1
 -2 -396 l 1x40
 -2 1602 l 1
 -2 1604 l 1x80
EndSplineSet
Validated: 1
EndChar

StartChar: NameMe.802
Encoding: 9628 9628 638
Width: 1080
VWidth: 0
Flags: HW
VStem: 0 1072<586 1604> 548 520<-396 586>
LayerCount: 2
Fore
SplineSet
0 1604 m 1x80
 1072 1604 l 1
 1072 586 l 1x80
 1068 586 l 1
 1068 -396 l 1
 548 -396 l 1
 548 586 l 1x40
 0 586 l 1
 0 1604 l 1x80
EndSplineSet
Validated: 1
EndChar

StartChar: NameMe.803
Encoding: 9629 9629 639
Width: 1080
VWidth: 0
Flags: HW
VStem: 548 520<586 1602>
LayerCount: 2
Fore
SplineSet
548 1602 m 1
 1068 1602 l 1
 1068 586 l 1
 548 586 l 1
 548 1602 l 1
EndSplineSet
Validated: 1
EndChar

StartChar: NameMe.804
Encoding: 9630 9630 640
Width: 1080
VWidth: 0
Flags: HW
VStem: 0 552<-390 586> 554 518<586 1602>
LayerCount: 2
Fore
SplineSet
554 1602 m 1
 1072 1602 l 1
 1072 586 l 1
 554 586 l 1
 554 1602 l 1
552 -390 m 1
 0 -390 l 1
 0 586 l 1
 552 586 l 1
 552 -390 l 1
EndSplineSet
Validated: 1
EndChar

